<?xml version="1.0" standalone="no"?>
<!DOCTYPE svg PUBLIC "-//W3C//DTD SVG 1.1//EN" "http://www.w3.org/Graphics/SVG/1.1/DTD/svg11.dtd" >
<svg xmlns="http://www.w3.org/2000/svg" xmlns:xlink="http://www.w3.org/1999/xlink" version="1.1">
<metadata></metadata>
<defs>
<font id="balerno_serifregular_free" horiz-adv-x="1538" >
<font-face units-per-em="2048" ascent="1638" descent="-410" />
<missing-glyph horiz-adv-x="409" />
<glyph horiz-adv-x="0" />
<glyph horiz-adv-x="682" />
<glyph unicode=" "  horiz-adv-x="409" />
<glyph unicode="&#x09;" horiz-adv-x="409" />
<glyph unicode="&#xa0;" horiz-adv-x="409" />
<glyph unicode="!" horiz-adv-x="411" d="M94 96q0 46 32.5 79.5t78.5 33.5q47 0 80.5 -33.5t33.5 -79.5q0 -47 -33.5 -80.5t-80.5 -33.5q-46 0 -78.5 33.5t-32.5 80.5zM123 1303q-6 104 82 104q43 0 66 -26.5t20 -77.5l-72 -990h-29z" />
<glyph unicode="&#x22;" horiz-adv-x="544" d="M211 1335q-4 34 14 53t47 19h7h6q30 0 47.5 -21t13.5 -51l-51 -399h-43z" />
<glyph unicode="#" horiz-adv-x="1191" d="M53 379l66 164h223l111 288h-220l66 166h219l178 463h31l-178 -463h330l178 463h30l-178 -463h226l-68 -166h-223l-111 -288h221l-67 -164h-217l-176 -455h-31l176 455h-330l-176 -455h-31l177 455h-226zM373 543h329l111 288h-330z" />
<glyph unicode="$" horiz-adv-x="1120" d="M94 451h29q23 -190 134.5 -302.5t274.5 -130.5v627l-20 8q-40 18 -60.5 27t-60 28.5t-61 33.5t-55 37t-52.5 43t-42 48.5t-35 57.5t-20.5 65.5t-8.5 75.5q0 146 106.5 242t276.5 96q22 0 32 -2v154h29v-156q98 -11 182 -57q72 -34 112.5 -18.5t43.5 65.5h29l26 -414h-28 q-24 164 -125.5 270t-239.5 125v-555q3 -2 10.5 -5t10.5 -5q60 -27 90.5 -41.5t84.5 -43t83 -49.5t67 -55t57.5 -67t33.5 -76.5t14 -91.5q0 -183 -119.5 -291t-306.5 -108h-25v-154h-29v156q-24 2 -46 5t-40.5 8t-33 9t-29 10t-22 9.5t-19 9t-12.5 6.5q-73 35 -120 20 t-58 -65h-29zM213 1143q0 -46 18 -86t44 -69t72.5 -59.5t84.5 -50t100 -47.5v547h-32q-121 0 -204 -61.5t-83 -173.5zM561 14h25q138 2 229.5 81t91.5 210q0 47 -18.5 88t-46.5 71.5t-76 62t-93 54.5t-112 52v-619z" />
<glyph unicode="%" horiz-adv-x="1613" d="M66 1067q0 144 97.5 242t246.5 98q151 0 247.5 -100.5t96.5 -239.5q0 -144 -97 -242t-247 -98q-149 0 -246.5 96t-97.5 244zM211 1067q0 -139 55.5 -225t143.5 -86q89 0 143.5 86t54.5 225q0 136 -55.5 223.5t-142.5 87.5t-143 -87t-56 -224zM354 -100l869 1593h32 l-868 -1593h-33zM864 326q0 144 97.5 242t246.5 98q151 0 247.5 -100.5t96.5 -239.5q0 -144 -97 -242t-247 -98q-149 0 -246.5 96t-97.5 244zM1010 326q0 -139 55 -225.5t143 -86.5q89 0 144 87t55 225q0 136 -56 223.5t-143 87.5t-142.5 -87t-55.5 -224z" />
<glyph unicode="&#x26;" horiz-adv-x="1349" d="M23 346q0 44 10 84t25 73t45 69t56.5 63t74.5 64t84 63t98 69l-17 21q-85 109 -127.5 182.5t-42.5 134.5q0 110 83 174t208 64q120 0 196.5 -55.5t76.5 -141.5q0 -44 -13 -80t-48 -75t-74.5 -72.5t-112.5 -89.5l483 -606q19 42 23 55q46 135 16 216t-141 81v27h411v-27 q-24 0 -46.5 -9.5t-45 -32.5t-39 -44.5t-39.5 -63t-37 -68t-40 -79.5q-15 -36 -43 -80l32 -41q152 -194 267 -194q65 0 122 45l15 -27q-95 -65 -203 -65q-94 0 -171.5 34.5t-147.5 130.5q-166 -172 -431 -172q-222 0 -364.5 105.5t-142.5 267.5zM190 362q0 -159 97 -258.5 t262 -99.5q108 0 210 40t183 124l-508 641q-244 -199 -244 -447zM367 1225q0 -75 36.5 -140t112.5 -155l10 -15q146 131 146 306q0 75 -38.5 116t-111.5 41q-69 0 -112 -42t-43 -111z" />
<glyph unicode="'" horiz-adv-x="301" d="M90 1335q-4 34 14 53t48 19t47.5 -21t13.5 -51l-51 -399h-31z" />
<glyph unicode="(" horiz-adv-x="585" d="M92 461q0 283 107.5 539t292.5 391h40q-76 -70 -133.5 -184.5t-88 -245t-45.5 -256t-15 -244.5t15 -244.5t45.5 -256t88 -245t133.5 -184.5h-40q-185 135 -292.5 391t-107.5 539z" />
<glyph unicode=")" horiz-adv-x="585" d="M55 -469q76 70 133.5 184.5t88.5 245t46 256t15 244.5t-15 244.5t-46 256t-88.5 245t-133.5 184.5h41q185 -135 292.5 -391t107.5 -539t-107.5 -539t-292.5 -391h-41z" />
<glyph unicode="*" horiz-adv-x="890" d="M101 937q8 25 32 32l287 118l-289 117q-22 9 -29.5 31.5t4.5 44.5q12 23 36 27.5t42 -9.5l250 -192l-43 311q-3 24 12.5 42t42.5 18q25 0 41 -18.5t11 -41.5l-41 -311l248 192q18 16 42 11t37 -29q12 -22 4 -44.5t-30 -31.5l-291 -117l291 -116q23 -9 30 -33t-6 -49 q-13 -23 -36.5 -26.5t-43.5 11.5l-245 191l43 -307q5 -26 -10.5 -44t-43.5 -18q-26 0 -43 18.5t-14 43.5l43 307l-246 -191q-20 -17 -43 -12.5t-37 27.5q-13 23 -5 48z" />
<glyph unicode="+" horiz-adv-x="1122" d="M113 672v28h434v437h28v-437h437v-28h-437v-434h-28v434h-434z" />
<glyph unicode="," horiz-adv-x="397" d="M82 72q0 33 30 65.5t76 32.5q57 0 88 -37.5t31 -93.5q0 -79 -54.5 -166.5t-127.5 -146.5l-16 16q90 96 90 211q0 57 -35 89.5t-82 29.5z" />
<glyph unicode="-" horiz-adv-x="831" d="M113 434v29h606v-29h-606z" />
<glyph unicode="." horiz-adv-x="411" d="M94 96q0 46 32.5 79.5t78.5 33.5q47 0 80.5 -33.5t33.5 -79.5q0 -47 -33.5 -80.5t-80.5 -33.5q-46 0 -78.5 33.5t-32.5 80.5z" />
<glyph unicode="/" horiz-adv-x="833" d="M70 -152l663 1696h31l-664 -1696h-30z" />
<glyph unicode="0" horiz-adv-x="1204" d="M100 696q0 143 36.5 272.5t100.5 226.5t158.5 154.5t204.5 57.5t204.5 -57.5t158.5 -155t100.5 -227t36.5 -271.5q0 -192 -61 -354.5t-176.5 -262t-262.5 -99.5q-146 0 -261.5 98.5t-177 261t-61.5 356.5zM268 696q0 -193 36 -346t112.5 -247.5t183.5 -94.5 q108 0 184.5 95.5t112 248t35.5 344.5q0 190 -36 341.5t-112.5 246t-183.5 94.5q-108 0 -184.5 -95t-112 -246t-35.5 -341z" />
<glyph unicode="1" horiz-adv-x="1079" d="M123 0v29h346v1224q-124 -89 -309 -145l-8 27q249 69 481 282v-1388h344v-29h-854z" />
<glyph unicode="2" horiz-adv-x="1093" d="M47 0q12 8 131 111q270 237 422 483t152 469q0 315 -254 315q-110 0 -170 -58t-60 -138q0 -35 10.5 -89t10.5 -89q0 -37 -23 -66t-67 -29q-52 0 -76.5 37t-24.5 94q0 106 56 191t147.5 130.5t198.5 45.5q197 0 309.5 -91t112.5 -253q0 -406 -660 -909h676l49 137h31 l-100 -291h-871z" />
<glyph unicode="3" horiz-adv-x="1085" d="M133 330q0 56 24 92.5t76 36.5q44 0 66.5 -28t22.5 -66q0 -35 -11.5 -88t-11.5 -80q0 -181 223 -181q100 1 172 55.5t106 141t34 193.5q0 145 -66 246.5t-199 125.5q-41 -16 -92.5 -27t-91 -9.5t-39.5 18.5q0 19 58.5 35t136.5 16q86 37 139 125.5t53 191.5 q0 115 -53.5 182.5t-153.5 67.5q-90 0 -141 -45t-51 -119q0 -27 12 -80t12 -90q0 -36 -22 -62t-68 -26q-51 0 -74.5 34.5t-23.5 90.5q0 138 98.5 232t257.5 94q171 0 266 -76t95 -205q0 -105 -76.5 -191.5t-196.5 -127.5q175 -29 285.5 -132t110.5 -265q0 -102 -40.5 -184 t-108.5 -133.5t-155 -79t-184 -27.5q-180 0 -284.5 97.5t-104.5 246.5z" />
<glyph unicode="4" horiz-adv-x="1224" d="M47 389l807 1030v-1001h254v-29h-254v-360h141v-29h-452v29h147v360h-643zM106 418h584v747z" />
<glyph unicode="5" horiz-adv-x="1089" d="M82 319q0 57 24 93.5t76 36.5q44 0 66 -28.5t22 -66.5q0 -35 -10 -88t-10 -80q0 -172 209 -172q151 0 238 127t87 342q0 183 -84 294.5t-223 107.5q-83 -2 -163 -47.5t-124 -124.5h-26l88 680h600l27 108h28l-57 -264h-590l-57 -459q121 137 303 137q200 0 323 -119.5 t123 -310.5q0 -229 -132.5 -364t-360.5 -135q-174 0 -275.5 92.5t-101.5 240.5z" />
<glyph unicode="6" horiz-adv-x="1144" d="M88 580q0 142 54 281t146 250.5t219 193.5t269 116l8 -26q-230 -89 -370.5 -287t-155.5 -451q48 132 141.5 195t210.5 63q186 0 302 -118.5t116 -317.5q0 -222 -123.5 -357.5t-329.5 -135.5q-224 0 -355.5 158t-131.5 436zM258 471q0 -201 84 -329t229 -128 q132 0 210.5 127t78.5 336q0 188 -76 299t-200 111q-132 0 -229 -113.5t-97 -302.5z" />
<glyph unicode="7" horiz-adv-x="1015" d="M96 1122l60 271h841v-35q-270 -273 -419.5 -642t-116.5 -716h-182q-10 141 32.5 304.5t127 325.5t189 314t228.5 295h-704l-27 -117h-29z" />
<glyph unicode="8" horiz-adv-x="1171" d="M70 350q0 75 27 138.5t79 113.5t119 90t156 76q-125 71 -187.5 152.5t-62.5 183.5q0 94 53.5 164t140 104.5t191.5 34.5q158 0 267.5 -73t109.5 -195q0 -189 -273 -308q210 -106 312 -212t102 -252q0 -120 -73.5 -208t-190.5 -130.5t-260 -42.5q-141 0 -258 47 t-184.5 130.5t-67.5 186.5zM215 356q0 -107 54 -186t139 -117.5t188 -38.5q156 0 256 82t100 215q0 108 -97.5 199t-362.5 235q-277 -142 -277 -389zM332 1163q0 -85 73 -156.5t246 -156.5q209 102 209 291q0 114 -74 175.5t-196 61.5q-113 0 -185.5 -58.5t-72.5 -156.5z " />
<glyph unicode="9" horiz-adv-x="1140" d="M119 913q0 222 122 357t328 135q226 0 357 -157.5t131 -436.5q0 -142 -54 -281t-146 -250t-218.5 -193.5t-267.5 -117.5l-9 27q229 89 369.5 287t155.5 452q-47 -132 -141 -196t-209 -64q-186 0 -302 119.5t-116 318.5zM287 913q0 -187 76 -298t200 -111q131 0 227.5 114 t96.5 302q0 203 -84 329.5t-230 126.5q-132 0 -209 -127t-77 -336z" />
<glyph unicode=":" horiz-adv-x="411" d="M94 96q0 46 32.5 79.5t78.5 33.5q47 0 80.5 -33.5t33.5 -79.5q0 -47 -33.5 -80.5t-80.5 -33.5q-46 0 -78.5 33.5t-32.5 80.5zM94 782q0 46 32.5 78.5t78.5 32.5q47 0 80.5 -32.5t33.5 -78.5q0 -47 -33.5 -80.5t-80.5 -33.5q-46 0 -78.5 33.5t-32.5 80.5z" />
<glyph unicode=";" horiz-adv-x="423" d="M66 72q0 33 30 65.5t76 32.5q57 0 88 -37.5t31 -93.5q0 -79 -54.5 -166.5t-127.5 -146.5l-17 16q90 96 90 211q0 57 -34.5 89.5t-81.5 29.5zM94 782q0 46 32.5 79.5t78.5 33.5q47 0 80.5 -33.5t33.5 -79.5q0 -47 -33.5 -80.5t-80.5 -33.5q-46 0 -78.5 33.5t-32.5 80.5z " />
<glyph unicode="&#x3c;" horiz-adv-x="1085" d="M82 670v30l891 387v-32l-852 -369l852 -371v-32z" />
<glyph unicode="=" horiz-adv-x="1116" d="M113 514v29h891v-29h-891zM113 829v29h891v-29h-891z" />
<glyph unicode="&#x3e;" horiz-adv-x="1085" d="M113 283v32l852 371l-852 369v32l891 -387v-30z" />
<glyph unicode="?" horiz-adv-x="972" d="M76 1040q0 161 116 264t285 103q201 0 314.5 -91t113.5 -253t-130.5 -307t-375.5 -287v-156h-28v172q197 159 280.5 291t83.5 287q0 151 -63.5 233t-194.5 82q-112 0 -180 -59t-68 -137q0 -35 19.5 -89t19.5 -89q0 -37 -23 -66t-69 -29q-51 0 -75.5 37.5t-24.5 93.5z M299 96q0 46 32.5 79.5t78.5 33.5q47 0 80.5 -33.5t33.5 -79.5q0 -47 -33.5 -80.5t-80.5 -33.5q-46 0 -78.5 33.5t-32.5 80.5z" />
<glyph unicode="@" horiz-adv-x="1638" d="M70 442q0 177 70 333.5t188 265.5t277.5 172t334.5 63q125 0 230 -33.5t176.5 -89.5t121 -131t72.5 -156t23 -166q0 -235 -102 -385t-261 -153q-107 0 -166 46.5t-59 139.5q-105 -190 -275 -190q-99 0 -151.5 70t-52.5 186q0 118 54 229.5t145.5 181.5t193.5 70 q89 0 131.5 -55.5t42.5 -147.5l55 182h137l-120 -397q-37 -118 -37 -170q0 -117 102 -117q146 3 240 144.5t94 365.5q0 82 -21.5 159.5t-68.5 148.5t-115 123.5t-168 84t-221 31.5q-144 0 -277 -61t-231.5 -166t-157.5 -256t-59 -322q0 -95 19 -178.5t51.5 -146t78 -114 t97.5 -86.5t110 -58.5t115.5 -34t114.5 -10.5q159 0 309 46t266 132l17 -25q-112 -80 -265 -131t-327 -51q-100 0 -200 23t-196.5 74.5t-170 126t-119 186.5t-45.5 247zM641 418q0 -90 32 -142.5t97 -52.5q73 0 135.5 79.5t94.5 183.5t32 194q0 75 -30 123.5t-89 48.5 q-75 0 -139.5 -68.5t-98.5 -168t-34 -197.5z" />
<glyph unicode="A" horiz-adv-x="1394" d="M-12 0v27q82 0 152 70.5t141 250.5l432 1079l573 -1398h117v-29h-424v29h127l-213 532h-494l-84 -213q-52 -127 -52 -204q0 -117 120 -117v-27h-395zM412 590h469l-236 590z" />
<glyph unicode="B" horiz-adv-x="1208" d="M94 0v29h142v1337h-142v27h434q217 0 345 -78.5t128 -222.5q0 -112 -90.5 -194t-230.5 -103q119 -5 222 -53.5t167 -135t64 -190.5q0 -188 -146.5 -302t-386.5 -114h-506zM399 29h183q374 0 374 387q0 173 -93 266.5t-281 93.5h-183v-747zM399 805h176q137 0 206 75.5 t69 204.5q0 143 -77.5 211t-256.5 68h-117v-559z" />
<glyph unicode="C" horiz-adv-x="1312" d="M100 696q0 147 53 279.5t142 227t210 149.5t253 55q146 0 266 -68q42 -20 74 -20q18 1 32 7q40 18 44 67h28l29 -414h-29q-29 181 -147 289q-117 108 -284 108h-3q-154 0 -265 -87.5t-166.5 -239.5t-55.5 -353q0 -202 57 -353.5t170.5 -238t271.5 -86.5h5q332 0 452 371 l29 -8q-128 -395 -496 -395h-6q-134 0 -256 54t-212 147.5t-143 226t-53 282.5z" />
<glyph unicode="D" horiz-adv-x="1472" d="M94 0v29h142v1337h-142v27h504q177 0 323.5 -53t244 -146.5t151 -221t53.5 -276.5q0 -151 -54 -279t-152 -220.5t-244 -144.5t-322 -52h-504zM399 29h195q149 0 265.5 52.5t188 144.5t108 211t36.5 259q0 138 -37 257.5t-108.5 212t-187.5 145.5t-265 53h-195v-1335z" />
<glyph unicode="E" horiz-adv-x="1204" d="M94 0v29h142v1337h-142v27h969l29 -414h-29q-18 208 -86 296.5t-229 88.5h-349v-619h160q132 0 190 49.5t58 168.5h27v-463h-27q0 121 -58.5 169t-189.5 48h-160v-688h373q161 0 230 89t88 298h28l-28 -416h-996z" />
<glyph unicode="F" horiz-adv-x="1116" d="M94 0v29h148v1337h-142v27h932l29 -414h-29q-18 208 -86 296.5t-229 88.5h-311v-639h159q132 0 190 49t58 168h27v-463h-27q0 121 -58.5 169t-189.5 48h-159v-667h141v-29h-453z" />
<glyph unicode="G" horiz-adv-x="1417" d="M100 696q0 147 53 279.5t142 227t210 149.5t253 55q160 0 282 -82q41 -25 73 -25q14 0 26 5q37 14 37 88h28l29 -451h-29q-24 209 -142 322q-117 112 -288 112h-6q-152 0 -263.5 -87t-167.5 -240t-56 -353q0 -201 56 -354.5t166 -240.5t261 -87q109 0 204.5 39t137.5 103 v415h-346v29h567v-29h-72v-579h-28q-11 35 -45 110q-42 -10 -111 -41t-143.5 -53t-163.5 -22q-134 0 -256 54t-212 147.5t-143 226t-53 282.5z" />
<glyph unicode="H" horiz-adv-x="1523" d="M94 0v29h148v1337h-142v27h453v-27h-147v-643l714 2v641h-141v27h453v-27h-148v-1337h141v-29h-452v29h147v667h-714v-667h141v-29h-453z" />
<glyph unicode="I" horiz-adv-x="643" d="M94 0v29h148v1337h-142v27h453v-27h-147v-1337h141v-29h-453z" />
<glyph unicode="J" horiz-adv-x="645" d="M-244 -276q0 65 32.5 108t96.5 43q53 0 88 -34.5t35 -86.5q0 -50 -34.5 -82t-82.5 -32q-35 0 -63 17.5t-43 47.5q7 -72 65.5 -116t145.5 -44h5q75 0 128 31q55 32 83.5 84t40.5 127q9 58 9 117v35q-4 77 -18 167l-2 1260h-142v27h453v-27h-147v-1231q0 -620 -394 -620 q-117 0 -186.5 57t-69.5 152z" />
<glyph unicode="K" horiz-adv-x="1429" d="M94 0v29h148v1337h-142v27h453v-27h-147v-735l479 487q140 142 140 203q0 45 -77 45v27h393v-27q-77 0 -190.5 -65t-230.5 -185l-275 -280l651 -809l164 2v-29h-497v29l145 -2l-573 694l-129 -131v-561h141v-29h-453z" />
<glyph unicode="L" horiz-adv-x="1095" d="M94 0v29h142v1337h-142v27h453v-27h-148v-1337h273q161 0 229.5 88.5t87.5 298.5h29l-29 -416h-895z" />
<glyph unicode="M" horiz-adv-x="1923" d="M10 0v27q99 0 159 81.5t89 262.5l168 1044l539 -1218l559 1218l221 -1388l147 2v-29h-452v29l141 -2l-168 1077l-520 -1129l-490 1127l-116 -731q-15 -91 -15 -157q0 -65 14 -105q30 -82 130 -82v-27h-406z" />
<glyph unicode="N" horiz-adv-x="1531" d="M51 0v27q99 0 144 82t45 266v991h-142v27h191l977 -1135v760q0 183 -44 265.5t-145 82.5v27h406v-27q-99 0 -144 -82t-45 -266v-1043l-1026 1199v-799q0 -183 44 -265.5t145 -82.5v-27h-406z" />
<glyph unicode="O" d="M100 696q0 147 53 279.5t143 227t212 149.5t256 55q135 0 258.5 -55t214.5 -149t145 -226.5t54 -280.5q0 -149 -54 -281.5t-145 -226t-214.5 -148t-258.5 -54.5q-133 0 -255 54t-212 147.5t-143.5 226t-53.5 282.5zM281 696q0 -317 129.5 -499.5t353.5 -182.5 q230 0 361.5 182.5t131.5 499.5t-131.5 499.5t-361.5 182.5q-224 0 -353.5 -182.5t-129.5 -499.5z" />
<glyph unicode="P" horiz-adv-x="1165" d="M94 0v29h148v1337h-142v27h512q229 0 372.5 -100.5t143.5 -278.5q0 -128 -69 -223t-183 -142t-255 -47q-103 0 -215 31v-604h141v-29h-453zM406 662q117 -31 215 -31q150 0 240.5 98t90.5 285q0 178 -99 264t-296 86h-151v-702z" />
<glyph unicode="Q" d="M100 696q0 147 53 279.5t143 227t212 149.5t256 55q135 0 258.5 -55t214.5 -149t145 -226.5t54 -280.5q0 -206 -98 -372t-261 -256q30 -50 58 -113q70 -149 93 -187q55 -87 111 -87q28 0 52 16.5t42.5 48.5t30.5 60.5t25 68.5l29 -8q-34 -102 -60 -142q-56 -84 -151 -85 q-111 0 -183.5 70.5t-146.5 234.5l-31 67q-85 -26 -182 -26q-133 0 -255 54t-212 147.5t-143.5 226t-53.5 282.5zM281 696q0 -251 82.5 -420t232.5 -231q10 29 16.5 47t19.5 46.5t28 46.5t36 36.5t48.5 27.5t60.5 9q75 0 134 -35t110 -110q101 85 154.5 234.5t53.5 348.5 q0 317 -131.5 499.5t-361.5 182.5q-224 0 -353.5 -182.5t-129.5 -499.5zM625 35q75 -21 139 -21q84 0 166 29q-43 86 -79.5 131t-78.5 45q-28 0 -51.5 -15.5t-41 -45.5t-29.5 -57t-25 -66z" />
<glyph unicode="R" horiz-adv-x="1275" d="M94 0v29h148v1337h-142v27h500q226 0 361 -87t135 -247q0 -139 -107.5 -230.5t-275.5 -115.5q67 -12 118 -38t82 -55.5t54.5 -75t34.5 -81.5t24 -90q46 -203 89.5 -281t111.5 -78q30 0 57.5 14t40.5 29l18 -18q-43 -50 -126 -53q-85 0 -146.5 26t-102 80t-65.5 117.5 t-47 157.5q-16 70 -28 114.5t-29 86.5t-35.5 65t-46 41t-62 24.5t-82.5 6.5h-167v-676h141v-29h-453zM406 733h198q149 0 233.5 85.5t84.5 240.5q0 152 -77.5 228.5t-262.5 76.5h-176v-631z" />
<glyph unicode="S" horiz-adv-x="1120" d="M94 451h29q24 -206 153 -320.5t310 -116.5q138 2 229.5 81t91.5 210q0 36 -11.5 69.5t-28 59t-48.5 52.5t-59.5 45t-75.5 42.5t-81 39.5t-91 40q-40 18 -60.5 27t-60 28.5t-61 33.5t-55 37t-52.5 43t-42 48.5t-35 57.5t-20.5 65.5t-8.5 75.5q0 146 106.5 242t276.5 96 q134 0 243 -61q49 -23 84 -23q17 1 29 5q40 16 43 65h29l26 -414h-28q-28 183 -148 292q-118 107 -272 107h-6q-121 0 -204 -61.5t-83 -173.5q0 -48 19 -89.5t51.5 -73t78 -60t94.5 -52.5t105 -50q7 -3 11.5 -5t9.5 -4q60 -27 90.5 -41.5t84.5 -43t83 -49.5t67 -55t57.5 -67 t33.5 -76.5t14 -91.5q0 -183 -119.5 -291t-306.5 -108q-21 0 -42 1.5t-38 3.5t-35 5.5t-30.5 6.5t-27 7.5t-23 7.5t-20.5 8t-16 7t-13.5 7t-10.5 5q-51 25 -89 25q-16 0 -31 -5q-47 -15 -58 -65h-29z" />
<glyph unicode="T" horiz-adv-x="1271" d="M55 979l29 414h1104l29 -414h-29q-18 208 -86.5 296.5t-229.5 88.5h-155l2 -1335h141v-29h-452v29h147v1335h-154q-110 0 -176 -41.5t-97.5 -123t-43.5 -220.5h-29z" />
<glyph unicode="U" horiz-adv-x="1431" d="M78 1366v27h452v-27h-147v-772q0 -112 9 -195.5t34 -158.5t67 -122t108.5 -74.5t158.5 -27.5q114 0 195.5 37.5t130 111t70.5 172.5t22 230v451q0 183 -44 265.5t-145 82.5v27h406v-27q-99 0 -144 -82t-45 -266v-453q0 -579 -446 -579q-127 0 -220.5 27.5t-155 78 t-98.5 132.5t-52 180t-15 231v731h-141z" />
<glyph unicode="V" horiz-adv-x="1452" d="M29 1364v29h424v-29h-127l467 -1139l323 819q52 128 52 205q0 117 -119 117v27h395v-27q-80 0 -151 -71.5t-142 -250.5l-428 -1075l-578 1395h-116z" />
<glyph unicode="W" horiz-adv-x="2150" d="M33 1366v27h444v-27h-139l383 -1110l426 1159l442 -1155l248 776q38 116 38 192q0 138 -128 138v27h393v-27q-79 0 -143.5 -73.5t-124.5 -256.5l-346 -1061l-449 1174l-428 -1174l-479 1391h-137z" />
<glyph unicode="X" horiz-adv-x="1447" d="M27 1366v27h508v-27h-152l356 -551l176 266q29 43 49.5 78t35 68.5t16.5 58t-6 43t-31 28t-61 9.5v27h397v-27q-81 0 -168.5 -63.5t-194.5 -221.5l-194 -295l491 -759h170v-27h-506v27h150l-406 626l-225 -340q-44 -66 -68 -115q-24 -48 -30 -88q-1 -8 -1 -16 q0 -29 20 -46q25 -21 81 -21v-27h-397v27q81 0 167 63.5t191 222.5l244 369l-442 684h-170z" />
<glyph unicode="Y" horiz-adv-x="1357" d="M33 1366v27h463v-27h-134l394 -696l221 395q39 69 59 120.5t23 94.5v8q0 36 -23 56q-26 22 -82 22v27h394v-27q-81 0 -161.5 -66.5t-174.5 -234.5l-250 -444v-592h141v-29h-452v29h147v610l-424 727h-141z" />
<glyph unicode="Z" horiz-adv-x="1124" d="M106 0l721 1364h-368q-161 0 -230.5 -89t-87.5 -296h-28l28 414h879l-721 -1364h393q161 0 229.5 89t86.5 298h28l-28 -416h-902z" />
<glyph unicode="[" horiz-adv-x="542" d="M113 -469v1860h376v-29h-225v-1802h225v-29h-376z" />
<glyph unicode="\" horiz-adv-x="833" d="M29 1544h30l664 -1696h-31z" />
<glyph unicode="]" horiz-adv-x="542" d="M53 -440h226v1802h-226v29h377v-1860h-377v29z" />
<glyph unicode="^" horiz-adv-x="589" d="M68 856l254 559l231 -559h-147l-146 356l-162 -356h-30z" />
<glyph unicode="_" horiz-adv-x="927" d="M0 -94h928v-29h-928v29z" />
<glyph unicode="`" horiz-adv-x="561" d="M113 1290q0 24 17 40t40 16q37 0 66 -39l213 -267l-29 -8l-266 195q-41 27 -41 63z" />
<glyph unicode="a" horiz-adv-x="956" d="M63 213q0 28 6.5 53.5t16 45.5t28.5 40t34 34t42.5 30t45.5 25.5t51 23t50.5 20t53 19.5t49.5 18q109 41 163 79t54 99q0 75 -46 132t-146 57q-106 -3 -152 -72q-10 -14 -16 -34t-7 -30t-2 -41.5t-1 -33.5q0 -47 -16 -72.5t-58 -25.5q-36 0 -56 24t-20 60q0 111 94.5 181 t233.5 70q161 0 251.5 -95.5t90.5 -293.5l2 -348q0 -92 12.5 -122.5t44.5 -30.5q29 0 62 43l22 -19q-21 -24 -28.5 -32t-32.5 -19.5t-58 -11.5q-174 0 -174 209v71q-42 -127 -129.5 -203.5t-195.5 -76.5q-118 0 -193.5 58.5t-75.5 168.5zM213 213q0 -90 40 -139t116 -49 q65 0 132 54t111.5 145t44.5 188v204q-18 -25 -53 -48t-64.5 -36.5t-84.5 -35.5q-40 -17 -68.5 -31.5t-64 -40t-57 -53t-37 -69t-15.5 -89.5z" />
<glyph unicode="b" horiz-adv-x="1130" d="M53 1364v29q113 0 289 22v-715q29 86 111.5 150t199.5 65q181 0 295.5 -132t114.5 -328q0 -198 -117.5 -334.5t-296.5 -136.5q-219 0 -303 192q-76 -73 -123 -176h-33v1364h-137zM348 463q0 -174 23 -262q20 -73 88 -127t162 -54q74 0 129 35t87.5 97t48 138t15.5 165 q0 120 -29.5 213.5t-93.5 152t-155 58.5q-56 -1 -104.5 -23t-80.5 -57t-53 -74t-29 -78t-8 -184z" />
<glyph unicode="c" horiz-adv-x="935" d="M70 451q0 201 131.5 332.5t326.5 131.5q138 0 234 -74.5t96 -181.5q0 -41 -20.5 -66.5t-57.5 -25.5q-72 0 -75 99v21.5v23.5t-0.5 21.5t-2.5 23.5t-4.5 20t-7 21t-10.5 18q-47 72 -152 72q-137 0 -218 -121t-81 -315q0 -196 83 -316.5t216 -120.5h6q63 0 117 20 q57 21 109.5 79t81.5 151l26 -8q-90 -270 -339 -270h-7q-192 0 -322 132t-130 333z" />
<glyph unicode="d" horiz-adv-x="1103" d="M70 455q0 196 114.5 328t294.5 132q117 -1 200 -65t112 -150l-3 664h-137v29q113 0 289 22v-1415h-29q-45 92 -125 176q-84 -192 -303 -192q-179 0 -296 136.5t-117 334.5zM231 455q0 -89 16 -165t48 -138t87.5 -97t129.5 -35q94 0 162 54t88 127q22 84 22 252 q0 155 -8 194t-28.5 78t-53 74t-80.5 57t-104 23q-91 0 -155 -58t-94 -152t-30 -214z" />
<glyph unicode="e" horiz-adv-x="937" d="M70 451q0 128 56 235.5t154 169.5t216 62q160 0 261 -103t101 -242q0 -17 -4 -53h-623q-2 -23 -2 -69q0 -203 73.5 -320t217.5 -117h7q43 0 83 11q44 12 86 39.5t76.5 78.5t56.5 121l27 -8q-90 -270 -335 -270h-7q-197 0 -320.5 130.5t-123.5 334.5zM233 549h472 q2 25 2 67q0 116 -57 194.5t-156 78.5q-108 0 -177 -88t-84 -252z" />
<glyph unicode="f" horiz-adv-x="614" d="M51 872v29h144q0 124 23.5 227.5t64.5 157.5q90 121 278 121q63 0 105.5 -24t42.5 -66q0 -36 -24 -57t-60 -21q-44 0 -114.5 39t-115.5 39q-63 0 -90 -45q-24 -44 -24 -123q0 -130 65 -248h174v-29h-174v-845h178v-27h-467v27h138v845h-144z" />
<glyph unicode="g" horiz-adv-x="987" d="M0 -244q0 52 38.5 91.5t94.5 62.5t137 41l9 -19q-67 -32 -96 -75t-29 -105q0 -93 84 -151t231 -58q141 0 227 57t86 152t-80.5 152.5t-285.5 91.5q-202 35 -270 58t-68 73q0 37 46 66t150 65q-88 45 -137 126t-49 179q0 157 110 254.5t277 97.5q96 0 174 -34 q6 104 60.5 164.5t134.5 60.5q56 0 91.5 -27t35.5 -71q0 -35 -24 -57.5t-58 -22.5q-30 0 -68 23.5t-65 23.5q-75 0 -80 -107q87 -45 136.5 -124.5t49.5 -180.5q0 -153 -111 -252.5t-274 -99.5q-86 0 -170 31q-110 -39 -110 -101q0 -24 15 -42t69 -38t153 -38q98 -18 146 -28 t118.5 -27.5t103.5 -33.5t70 -40.5t50.5 -55.5t13.5 -71q0 -114 -128.5 -183t-338.5 -69q-207 0 -338 67t-131 174zM248 563q0 -146 62.5 -234.5t164.5 -88.5q100 0 163.5 89t63.5 234q0 147 -63.5 236.5t-163.5 89.5t-163.5 -89.5t-63.5 -236.5z" />
<glyph unicode="h" horiz-adv-x="1167" d="M49 0v29h137v1335h-137v29q113 0 289 22v-823q9 38 26.5 78t47 85t66 79.5t88 57.5t108.5 23q150 0 228.5 -89.5t78.5 -262.5v-534h137v-29h-424v29h135v544q0 161 -40 234.5t-134 73.5h-2q-84 0 -157 -69q-74 -70 -116 -178t-42 -220v-385h135v-29h-424z" />
<glyph unicode="i" horiz-adv-x="524" d="M49 0v29h137v843h-137v29q105 0 289 23v-895h137v-29h-426zM164 1182q0 40 28.5 69t69.5 29q39 0 68.5 -29.5t29.5 -68.5q0 -40 -28.5 -69.5t-69.5 -29.5q-44 0 -71 30t-27 69z" />
<glyph unicode="j" horiz-adv-x="518" d="M-178 -395q0 36 24 57t60 21q44 0 114 -39t115 -39q63 0 90 45q25 40 25 123q0 132 -66 247v852h-137v29q105 0 289 23v-904q0 -124 -23.5 -227.5t-64.5 -157.5q-41 -57 -112.5 -88.5t-166.5 -31.5q-63 0 -105 23.5t-42 66.5zM158 1182q0 40 28.5 69t69.5 29 q39 0 68.5 -29.5t29.5 -68.5q0 -40 -28.5 -69.5t-69.5 -29.5q-44 0 -71 30t-27 69z" />
<glyph unicode="k" horiz-adv-x="1130" d="M57 0v29h138v1335h-138v29q109 0 289 22v-979l248 234q130 123 143 161q2 6 2 11q0 22 -40 28q-23 4 -64 4v27h375v-27q-168 0 -379 -204l-47 -45l446 -598l137 2v-29h-440v29l117 -2l-365 497l-133 -129v-366h137v-29h-426z" />
<glyph unicode="l" horiz-adv-x="538" d="M57 0v29h138v1335h-138v29q109 0 289 22v-1386h137v-29h-426z" />
<glyph unicode="m" horiz-adv-x="1751" d="M61 0v29h138v843h-138v29q105 0 289 23v-320q11 44 28 84.5t45 83t62 73.5t82.5 50.5t104.5 19.5q122 0 198 -80.5t86 -228.5q15 57 40 107t63 98t95 76t126 28q129 0 207 -92.5t78 -259.5v-534h137v-29h-424v29h135v555q0 151 -38 223.5t-126 73.5h-2q-79 -1 -145 -67 q-68 -68 -105.5 -173.5t-38.5 -222.5v-391h156v-27h-463v27h156v557q0 150 -39 223t-125 74h-2q-79 -1 -146 -67q-68 -68 -106 -173.5t-39 -222.5v-389h135v-29h-424z" />
<glyph unicode="n" horiz-adv-x="1169" d="M49 0v29h137v843h-137v29q105 0 289 23v-334q14 54 41 107.5t68 104t100 82t127 31.5q307 0 307 -372v-514h137v-29h-424v29h135v534q0 166 -42 242.5t-134 77.5q-83 0 -156.5 -69.5t-115.5 -177t-43 -218.5v-389h135v-29h-424z" />
<glyph unicode="o" horiz-adv-x="1026" d="M70 455q0 195 128 327.5t314 132.5q188 0 317 -132.5t129 -327.5q0 -197 -129.5 -333t-316.5 -136q-186 0 -314 136t-128 333zM229 455q0 -198 78 -319.5t205 -121.5q129 0 208 121.5t79 319.5q0 195 -79 313.5t-208 118.5q-128 0 -205.5 -118.5t-77.5 -313.5z" />
<glyph unicode="p" horiz-adv-x="1126" d="M49 -442h137v1314h-137v29q105 0 289 23v-219q29 84 111.5 146.5t199.5 63.5q181 0 295.5 -132t114.5 -328q0 -197 -117.5 -333t-296.5 -136q-223 0 -307 192v-620h137v-29h-426v29zM340 453q0 -157 25 -252q19 -73 86 -127t161 -54q74 0 129.5 35t87.5 97t48 138t16 165 q0 185 -71.5 304.5t-207.5 119.5q-55 -1 -103 -23t-80 -57.5t-53 -74t-30 -77.5q-8 -39 -8 -194z" />
<glyph unicode="q" horiz-adv-x="1126" d="M68 455q0 196 115 328t296 132q116 -1 198 -63.5t111 -146.5v219q188 -23 289 -23v-29h-137v-1314h137v-29h-426v29h137v620q-81 -192 -307 -192q-178 0 -295.5 136t-117.5 333zM233 455q0 -89 16 -165t48.5 -138t88.5 -97t130 -35q94 0 161 54t87 127q22 84 22 252 q0 155 -8 194t-28.5 78t-53 74t-80.5 57t-104 23q-91 0 -155 -58t-94 -152t-30 -214z" />
<glyph unicode="r" horiz-adv-x="833" d="M49 0v29h137v843h-137v29q105 0 289 23v-377q42 152 106 244q41 61 103 97t135 36q68 0 106.5 -28.5t38.5 -72.5q0 -35 -22 -54t-55 -19q-40 0 -96.5 44t-96.5 44q-44 0 -90 -66q-59 -85 -94 -206.5t-35 -205.5v-331h137v-29h-426z" />
<glyph unicode="s" horiz-adv-x="800" d="M80 305h26q31 -140 108 -216q76 -75 191 -75h3q92 0 154.5 47t62.5 121q0 47 -28.5 85t-75 64t-102 50t-111.5 51t-102 59t-76 80q-31 50 -30 112q0 103 76 167t193 65q80 0 163 -43q37 -21 59 -18t31 18t9 39h28l21 -290h-27q-28 123 -103 195q-74 71 -178 71h-3 q-73 0 -130 -39.5t-57 -104.5q0 -43 29.5 -79t77.5 -63t105.5 -52.5t114.5 -54t105 -60.5t77.5 -78t29.5 -102q0 -84 -47 -146.5t-116.5 -92t-149.5 -29.5q-90 0 -177 45q-35 14 -57 14q-12 -1 -20 -5q-22 -12 -21 -50h-29z" />
<glyph unicode="t" horiz-adv-x="677" d="M29 872v29h153l2 135q84 78 123 176h27v-311h219v-29h-219v-581q0 -143 25.5 -202.5t93.5 -59.5q82 0 159 65l17 -20q-47 -39 -104 -63.5t-109 -24.5q-133 0 -183.5 84t-50.5 247v555h-153z" />
<glyph unicode="u" horiz-adv-x="1112" d="M49 872v29q105 0 289 23v-586q0 -176 36.5 -247.5t131.5 -72.5q67 0 126 55.5t97.5 141t61 186t22.5 193.5v278h-137v29q101 0 289 23v-731q0 -102 11.5 -135t45.5 -33q28 0 61 43l23 -19q-21 -24 -28.5 -32t-32.5 -19.5t-58 -11.5q-174 0 -174 207v182 q-10 -45 -24 -88.5t-41.5 -100.5t-62 -99t-87.5 -71.5t-115 -29.5q-141 0 -219 88.5t-78 263.5v534h-137z" />
<glyph unicode="v" horiz-adv-x="1003" d="M-10 874v27h450v-27h-137l264 -663l150 379q47 118 53 178q1 11 2 20q0 44 -25 62q-30 24 -108 24v27h375v-27q-69 0 -133.5 -60.5t-130.5 -223.5l-246 -613l-377 897h-137z" />
<glyph unicode="w" horiz-adv-x="1554" d="M-10 874v27h446v-27h-139l233 -659l299 715l320 -713l129 369q44 120 48 180v14q0 50 -27 70q-31 24 -109 24v27h375v-27q-33 0 -62 -12t-61.5 -41.5t-65 -88t-63.5 -144.5l-223 -611l-324 740l-309 -740l-330 897h-137z" />
<glyph unicode="x" horiz-adv-x="1034" d="M10 0v29q71 0 149.5 53t174.5 197l106 157l-274 436l-143 2v27h458v-27l-131 -2l209 -331l62 86q37 53 59.5 89.5t34 65.5t11 45.5t-14.5 27.5t-38 15t-63 4v27h375v-27q-46 0 -89.5 -16.5t-108.5 -74.5t-134 -156l-78 -113l306 -485l143 -2v-27h-457v27l129 2l-239 381 l-88 -131q-43 -64 -66 -105.5t-32 -71.5t3.5 -45t38 -21.5t72.5 -6.5v-29h-375z" />
<glyph unicode="y" horiz-adv-x="1064" d="M-6 -397q0 36 24 57t60 21q44 0 108 -31q57 -27 97 -27h10q44 3 78.5 32t64.5 101l105 244h-56l-327 874h-138v27h451v-27h-137l264 -731l184 449q50 118 58 177q2 13 2 24q0 40 -24 58q-29 23 -107 23v27h374v-27q-70 0 -134 -59.5t-132 -222.5l-356 -846 q-31 -72 -70 -121t-82.5 -72.5t-81.5 -32.5t-82 -9q-67 0 -110 24t-43 68z" />
<glyph unicode="z" horiz-adv-x="868" d="M70 0l528 872h-258q-49 0 -87 -13.5t-62 -35t-40.5 -55t-24.5 -67t-13 -76.5h-29l33 276h667l-526 -872h274q61 0 104 19t67 56t36 77t19 95h28l-30 -276h-686z" />
<glyph unicode="{" horiz-adv-x="540" d="M92 -176q0 40 11 92t23 89t42.5 124t46.5 135q20 49 20 109t-34 78q-24 -7 -43 -7q-37 0 -37 17q0 16 37 16q22 0 43 -6q34 18 34 77.5t-20 108.5q-16 47 -46.5 135t-42 125t-23 89t-11.5 92q0 133 109.5 214t283.5 81v-29q-235 0 -235 -254q0 -69 28.5 -246.5 t28.5 -236.5q0 -60 -25 -102.5t-61 -63.5q36 -21 61 -63.5t25 -102.5q0 -59 -28.5 -236.5t-28.5 -246.5q0 -254 235 -254v-29q-174 0 -283.5 81t-109.5 214z" />
<glyph unicode="|" horiz-adv-x="354" d="M164 -428v1991h29v-1991h-29z" />
<glyph unicode="}" horiz-adv-x="540" d="M55 -442q236 0 236 254q0 69 -29 246.5t-29 236.5q0 60 25 102.5t61 63.5q-36 21 -61 63.5t-25 102.5q0 59 29 236.5t29 246.5q0 254 -236 254v29q174 0 284 -81t110 -214q0 -40 -11.5 -92t-23 -89t-42 -125t-46.5 -135q-20 -49 -20 -108.5t34 -77.5q21 6 43 6 q37 0 37 -16q0 -17 -37 -17q-19 0 -43 7q-34 -18 -34 -78t20 -109q16 -48 46.5 -135t42.5 -124t23 -89t11 -92q0 -133 -110 -214t-284 -81v29z" />
<glyph unicode="~" horiz-adv-x="1179" d="M111 590q8 29 26 58t45.5 57.5t70 46.5t91.5 18q38 0 83.5 -12t76 -25t80.5 -37q53 -26 86.5 -40t81.5 -27t90 -13q72 0 125.5 41.5t81.5 118.5l28 -8q-32 -87 -93 -133.5t-142 -46.5q-45 0 -97.5 14.5t-84 27.5t-89.5 40q-50 24 -79 36t-70.5 23.5t-77.5 11.5 q-84 0 -137.5 -49.5t-67.5 -109.5z" />
<glyph unicode="&#xa1;" horiz-adv-x="411" d="M94 803q0 47 32.5 81t78.5 34q47 0 80.5 -34t33.5 -81q0 -46 -33.5 -78.5t-80.5 -32.5q-46 0 -78.5 32.5t-32.5 78.5zM123 -403l67 989h29l72 -989q3 -51 -20.5 -78t-65.5 -27t-63.5 26.5t-18.5 78.5z" />
<glyph unicode="&#xa2;" horiz-adv-x="927" d="M70 664q0 190 118.5 319t298.5 143v273h29v-271h12q138 0 234 -74.5t96 -181.5q0 -41 -20.5 -66.5t-57.5 -25.5q-72 0 -75 99v21.5v23.5t-0.5 21.5t-2.5 23.5t-4.5 20t-7 21t-10.5 18q-47 72 -152 72h-12v-873h12q66 -1 123 20t109.5 79t81.5 151l26 -8 q-91 -274 -346 -270h-6v-250h-29v252q-180 12 -298.5 141.5t-118.5 321.5zM229 664q0 -180 70.5 -297t187.5 -136v865q-120 -19 -189 -136t-69 -296z" />
<glyph unicode="&#xa3;" horiz-adv-x="1167" d="M68 0q67 58 109 101.5t80 98.5t55.5 116.5t17.5 134.5q0 98 -43 229h-191v29h180q-7 21 -23.5 70t-25 76t-19 68t-15.5 77t-5 71q0 156 106.5 248t317.5 92q166 0 280 -103t114 -264q0 -56 -25 -93.5t-76 -37.5q-46 0 -69 29t-23 66q0 35 11.5 89t11.5 89 q0 81 -56.5 138.5t-167.5 57.5q-126 0 -189 -78t-63 -204q0 -69 10 -130.5t34.5 -154t27.5 -106.5h402v-29h-396q13 -63 13 -113q0 -228 -185 -413h713l49 137h31l-101 -291h-890z" />
<glyph unicode="&#xa4;" horiz-adv-x="882" d="M125 408l98 96q-76 82 -76 196q0 110 74 197l-96 94l18 21l99 -97q83 80 200 80q118 0 201 -80l98 97l19 -21l-96 -94q73 -86 73 -197q0 -115 -75 -196l98 -96l-19 -21l-98 96q-83 -77 -201 -77q-117 0 -200 77l-99 -96zM176 700q0 -110 78 -188t188 -78t188.5 78 t78.5 188t-78.5 188.5t-188.5 78.5t-188 -78.5t-78 -188.5z" />
<glyph unicode="&#xa5;" horiz-adv-x="1271" d="M33 1366v27h463v-27h-134l394 -696l51 92h-12l16 29h12l154 274q39 69 59 120.5t23 94t-23 64.5t-82 22v27h394v-27q-81 0 -161.5 -66.5t-174.5 -234.5l-154 -274h250v-29h-266l-80 -141v-117h346v-29h-346v-446h141v-29h-452v29h147v446h-391v29h391v135l-72 123h-319 v29h303l-336 575h-141z" />
<glyph unicode="&#xa6;" horiz-adv-x="354" d="M164 387h29v-815h-29v815zM164 735v828h29v-828h-29z" />
<glyph unicode="&#xa7;" horiz-adv-x="966" d="M158 -209q0 43 19.5 74t60.5 31q34 0 53.5 -23.5t19.5 -58.5q0 -25 -14 -62.5t-14 -60.5q0 -53 38 -89t111 -36q104 0 154.5 70t50.5 182q0 97 -35 197.5t-87 182t-113.5 173t-113.5 171t-87 175t-35 186.5q0 60 16.5 127.5t52 134.5t83.5 121t117 87.5t147 33.5h2 q111 0 191.5 -63t80.5 -166q0 -43 -19.5 -74t-60.5 -31q-34 0 -54 23.5t-20 58.5q0 25 14.5 62.5t14.5 60.5q0 38 -38 69t-109 31h-2q-99 0 -153 -67t-54 -174q0 -83 26 -166.5t67.5 -155.5t91.5 -144.5t100.5 -146t92 -147t67.5 -160.5t26 -174q0 -60 -16.5 -128 t-51.5 -135t-82.5 -121t-116 -87.5t-145.5 -34.5h-2q-112 0 -193 68.5t-81 185.5zM244 995q0 -83 26.5 -168t68.5 -159.5t93 -150.5t102.5 -152t93.5 -151t68.5 -161t26.5 -170q0 -118 -55 -211q100 114 100 277q0 87 -26.5 175t-69 164t-93.5 152.5t-102.5 152t-94 150 t-69 160t-26.5 168.5q0 86 37 164q-80 -113 -80 -240z" />
<glyph unicode="&#xa8;" horiz-adv-x="741" d="M125 1180q0 37 25.5 63.5t62.5 26.5q36 0 63 -27t27 -63q0 -35 -26.5 -61.5t-63.5 -26.5q-40 0 -64 26.5t-24 61.5zM444 1180q0 37 25.5 63.5t62.5 26.5q36 0 63.5 -27t27.5 -63q0 -35 -27 -61.5t-64 -26.5q-40 0 -64 26.5t-24 61.5z" />
<glyph unicode="&#xa9;" horiz-adv-x="2023" d="M102 696q0 185 72 353.5t194 290.5t290.5 194t353.5 72q186 0 354.5 -72t290 -193.5t193 -290t71.5 -354.5q0 -149 -45.5 -287.5t-129.5 -250.5t-196 -196t-250.5 -129.5t-287.5 -45.5q-148 0 -287 46t-251 130t-196 195.5t-130 250.5t-46 287zM131 696q0 -179 70 -342 t188 -280.5t281 -187.5t342 -70t342 69.5t281 187.5t187.5 281t69.5 342t-69.5 342.5t-187.5 281.5t-281 187.5t-342 69.5t-342 -70t-281 -188t-188 -281t-70 -342zM616 696q0 201 132 333t327 132q138 0 234 -74.5t96 -181.5q0 -41 -20.5 -66.5t-57.5 -25.5t-55.5 26.5 t-20.5 71.5v25.5v28t-1 24.5t-3.5 27t-7.5 22.5t-12 22.5q-47 72 -152 72q-137 0 -218 -121.5t-81 -315.5q0 -196 83 -316t216 -120q66 -1 123 20t109.5 79t81.5 151l26 -8q-91 -275 -346 -271q-192 0 -322.5 132t-130.5 333z" />
<glyph unicode="&#xaa;" horiz-adv-x="956" d="M63 705q0 28 6.5 53.5t16 45.5t28.5 40t34 34t42.5 30t45.5 25.5t51 23t50.5 20t53 19.5t49.5 18q109 41 163 79t54 99q0 75 -46 131.5t-146 56.5q-107 -3 -152 -71q-10 -14 -16 -34.5t-7 -30.5t-2 -41.5t-1 -33.5q0 -47 -16 -72.5t-58 -25.5q-36 0 -56 24t-20 60 q0 111 94.5 181.5t233.5 70.5q161 0 251.5 -95.5t90.5 -293.5l2 -348q0 -92 12.5 -123t44.5 -31q29 0 62 43l22 -18q-2 -2 -8 -9t-8 -9.5t-8 -9t-9.5 -9t-10 -7t-11.5 -7t-12.5 -5.5t-15 -4.5t-17 -2.5t-19.5 -1q-174 0 -174 209v72q-42 -127 -129.5 -204t-195.5 -77 q-118 0 -193.5 59t-75.5 169zM213 705q0 -90 40 -139.5t116 -49.5q65 0 132 54t111.5 145t44.5 188v205q-26 -36 -73.5 -62t-128.5 -59q-51 -22 -86 -41.5t-75 -53t-60.5 -80.5t-20.5 -107z" />
<glyph unicode="&#xab;" horiz-adv-x="665" d="M41 455l328 327l20 -20l-309 -307l307 -308l-20 -20zM256 455l328 327l20 -20l-309 -307l307 -308l-20 -20z" />
<glyph unicode="&#xac;" horiz-adv-x="1122" d="M113 467v29h899v-351h-29v322h-870z" />
<glyph unicode="&#xad;" horiz-adv-x="831" d="M113 434v29h606v-29h-606z" />
<glyph unicode="&#xae;" horiz-adv-x="970" d="M102 1024q0 158 112.5 270.5t270.5 112.5t270.5 -112.5t112.5 -270.5q0 -160 -112.5 -272.5t-270.5 -112.5t-270.5 112.5t-112.5 272.5zM131 1024q0 -148 104 -252t250 -104q147 0 251 104t104 252q0 146 -104.5 250t-250.5 104t-250 -104t-104 -250zM356 870v19h37v323 h-35v19h129q60 0 94.5 -23.5t34.5 -66.5q0 -34 -24 -57t-64 -29q33 -8 48 -29t22 -53q12 -50 22 -68t25 -18t25 16l14 -10q-18 -27 -43 -27q-41 0 -61.5 26t-30.5 75q-13 49 -25 64.5t-43 15.5h-39v-158h37v-19h-123zM442 1065h47q35 0 54.5 20.5t19.5 55.5q0 71 -80 71h-41 v-147z" />
<glyph unicode="&#xaf;" horiz-adv-x="724" d="M106 1098v71h512v-71h-512z" />
<glyph unicode="&#xb0;" horiz-adv-x="647" d="M59 1176q0 101 72.5 166t185.5 65t185.5 -65t72.5 -166t-73 -167.5t-185 -66.5t-185 66.5t-73 167.5zM164 1176q0 -91 43.5 -150t109.5 -59q68 0 112 59t44 150q0 90 -44 148t-112 58q-66 0 -109.5 -58t-43.5 -148z" />
<glyph unicode="&#xb1;" horiz-adv-x="1136" d="M123 205v28h891v-28h-891zM123 766v29h430v430h29v-430h432v-29h-432v-375h-29v375h-430z" />
<glyph unicode="&#xb2;" horiz-adv-x="778" d="M45 457q20 12 88 73q183 161 286 327.5t103 316.5q0 215 -172 215q-73 0 -113 -40t-40 -94q0 -23 6 -60t6 -60q0 -25 -16 -44.5t-46 -19.5q-34 0 -50.5 25t-16.5 63q0 109 80 178.5t192 69.5q133 0 209 -61.5t76 -171.5q0 -276 -447 -613h459l33 92h20l-67 -196h-590z " />
<glyph unicode="&#xb3;" horiz-adv-x="800" d="M133 678q0 38 16.5 63t51.5 25q30 0 44.5 -19t14.5 -45q0 -23 -7 -58.5t-7 -53.5q0 -123 149 -123q101 1 156 76.5t55 187.5q0 99 -44.5 167.5t-133.5 82.5q-21 -7 -47 -12.5t-49.5 -8.5t-39.5 -0.5t-16 11.5q0 13 40 24t92 11q58 25 94.5 84.5t36.5 128.5 q0 77 -36.5 123.5t-103.5 46.5q-62 0 -96.5 -30.5t-34.5 -82.5q0 -19 8.5 -54.5t8.5 -58.5q0 -26 -15 -43.5t-45 -17.5q-35 0 -51 23.5t-16 60.5q0 94 66.5 157.5t174.5 63.5q115 0 178.5 -51t63.5 -137q0 -72 -51 -131.5t-131 -86.5q117 -20 191.5 -89.5t74.5 -178.5 q0 -135 -96 -209.5t-234 -74.5q-121 0 -191.5 64.5t-70.5 164.5z" />
<glyph unicode="&#xb4;" horiz-adv-x="561" d="M111 1040l215 267q29 39 63 39q24 0 40.5 -16t16.5 -40q0 -38 -38 -63l-269 -195z" />
<glyph unicode="&#xb6;" horiz-adv-x="1294" d="M106 1016q0 123 69 209.5t183 127t263 40.5h575l-18 -29h-117v-1628l-154 -82v1710h-162v-1778l-28 -82v1860h-78q-175 0 -266.5 -89t-91.5 -259q0 -173 92 -259.5t266 -86.5l-2 -29q-245 0 -388 97t-143 278z" />
<glyph unicode="&#xb7;" horiz-adv-x="411" d="M94 485q0 46 32.5 79.5t78.5 33.5q47 0 80.5 -33.5t33.5 -79.5q0 -47 -33.5 -80.5t-80.5 -33.5q-46 0 -78.5 33.5t-32.5 80.5z" />
<glyph unicode="&#xb8;" horiz-adv-x="532" d="M98 -352q52 -19 105 -19q58 0 88.5 31.5t30.5 81.5q0 61 -50.5 94t-121.5 33l137 139h35l-91 -100q90 -6 143.5 -50t53.5 -112q0 -71 -58.5 -108t-148.5 -37q-64 0 -119 20z" />
<glyph unicode="&#xb9;" horiz-adv-x="802" d="M123 459v18h233v828q-94 -64 -209 -99l-6 19q166 44 326 192v-940h231v-18h-575z" />
<glyph unicode="&#xba;" horiz-adv-x="1026" d="M70 946q0 195 128 328t314 133q188 0 317 -133t129 -328q0 -197 -129.5 -333t-316.5 -136q-186 0 -314 136t-128 333zM229 946q0 -198 78 -319t205 -121q129 0 208 121t79 319q0 195 -79 313.5t-208 118.5q-128 0 -205.5 -118.5t-77.5 -313.5z" />
<glyph unicode="&#xbb;" horiz-adv-x="661" d="M16 762l21 20l328 -327l-326 -328l-21 20l308 308zM227 764l21 20l327 -327l-325 -328l-21 21l308 307z" />
<glyph unicode="&#xbf;" horiz-adv-x="972" d="M66 -166q0 162 130 307t377 289v154h29v-172q-198 -158 -282 -290.5t-84 -287.5q0 -151 64 -233t194 -82q113 0 180 58.5t67 137.5q0 35 -18 89.5t-18 89.5q0 37 23 65.5t67 28.5q52 0 76 -37t24 -94q0 -161 -116 -264t-285 -103q-200 0 -314 91t-114 253zM446 801 q0 47 34.5 80.5t80.5 33.5q47 0 80 -33.5t33 -80.5q0 -46 -33 -78.5t-80 -32.5q-46 0 -80.5 33t-34.5 78z" />
<glyph unicode="&#xc0;" horiz-adv-x="1394" d="M-12 0v27q82 0 152 70.5t141 250.5l432 1079l573 -1398h117v-29h-424v29h127l-213 532h-494l-84 -213q-131 -321 68 -321v-27h-395zM412 590h469l-236 590zM541 1782q0 24 17 39.5t40 15.5q37 0 66 -39l213 -266l-29 -8l-266 194q-41 27 -41 64z" />
<glyph unicode="&#xc1;" horiz-adv-x="1394" d="M-12 0v27q82 0 152 70.5t141 250.5l432 1079l573 -1398h117v-29h-424v29h127l-213 532h-494l-84 -213q-131 -321 68 -321v-27h-395zM412 590h469l-236 590zM549 1532l215 266q29 39 63 39q24 0 41 -15.5t17 -39.5q0 -38 -39 -64l-268 -194z" />
<glyph unicode="&#xc2;" horiz-adv-x="1394" d="M-12 0v27q82 0 152 70.5t141 250.5l432 1079l573 -1398h117v-29h-424v29h127l-213 532h-494l-84 -213q-131 -321 68 -321v-27h-395zM412 590h469l-236 590zM475 1530l240 307l239 -307l-26 -6l-213 151l-215 -151z" />
<glyph unicode="&#xc3;" horiz-adv-x="1394" d="M-12 0v27q82 0 152 70.5t141 250.5l432 1079l573 -1398h117v-29h-424v29h127l-213 532h-494l-84 -213q-131 -321 68 -321v-27h-395zM412 590h469l-236 590zM430 1550q0 88 41.5 136.5t124.5 48.5q44 0 145 -33q100 -35 142 -35q36 0 61 22.5t31 61.5h22q0 -88 -42 -138 t-126 -50q-53 0 -147 34q-107 35 -131 35q-40 0 -66 -21.5t-30 -60.5h-25z" />
<glyph unicode="&#xc4;" horiz-adv-x="1394" d="M-12 0v27q82 0 152 70.5t141 250.5l432 1079l573 -1398h117v-29h-424v29h127l-213 532h-494l-84 -213q-131 -321 68 -321v-27h-395zM412 590h469l-236 590zM465 1671q0 37 25.5 63.5t62.5 26.5q36 0 63 -27t27 -63q0 -35 -26.5 -61.5t-63.5 -26.5q-40 0 -64 26.5 t-24 61.5zM784 1671q0 37 25.5 63.5t62.5 26.5q36 0 63.5 -27t27.5 -63q0 -35 -27 -61.5t-64 -26.5q-40 0 -64 26.5t-24 61.5z" />
<glyph unicode="&#xc5;" horiz-adv-x="1394" d="M-12 0v27q82 0 152 70.5t141 250.5l432 1079l573 -1398h117v-29h-424v29h127l-213 532h-494l-84 -213q-131 -321 68 -321v-27h-395zM412 590h469l-236 590zM537 1669q0 63 48.5 102t127.5 39q78 0 127 -39t49 -102t-49 -101t-127 -38q-80 0 -128 38t-48 101zM637 1669 q0 -55 21 -87t55 -32t53.5 32t19.5 87q0 56 -19.5 88.5t-53.5 32.5t-55 -33t-21 -88z" />
<glyph unicode="&#xc6;" horiz-adv-x="1869" d="M-43 0v27q82 0 167.5 63.5t188.5 224.5l680 1051h-121v27h883l29 -414h-29q-18 208 -86 296.5t-229 88.5h-262v-639h219q68 0 104.5 7.5t58.5 34t27.5 64.5t5.5 111h27v-463h-27q0 74 -6 113t-28.5 64.5t-58.5 32.5t-103 7h-219v-667h262q161 0 229 89t86 298h29 l-29 -416h-883v29h142v532h-506l-160 -246q-43 -67 -66 -116t-29 -89.5t18.5 -61.5t80.5 -21v-27h-395zM526 590h488v756z" />
<glyph unicode="&#xc7;" horiz-adv-x="1312" d="M100 696q0 147 53 279.5t142 227t210 149.5t253 55q146 0 266 -68q66 -31 105.5 -13.5t44.5 67.5h28l29 -414h-29q-29 181 -147 289.5t-287 107.5q-154 0 -265 -87.5t-166.5 -239.5t-55.5 -353q0 -202 57 -353.5t170.5 -238t271.5 -86.5q336 -3 457 371l29 -8 q-126 -386 -478 -395l-69 -78q90 -6 143 -50t53 -112q0 -71 -58 -108t-148 -37q-64 0 -119 20l-4 27q52 -19 104 -19q58 0 88.5 31.5t30.5 81.5q0 61 -50.5 94t-121.5 33l115 117q-132 2 -252 57t-208 148.5t-140 225t-52 279.5z" />
<glyph unicode="&#xc8;" horiz-adv-x="1204" d="M94 0v29h142v1337h-142v27h969l29 -414h-29q-18 208 -86 296.5t-229 88.5h-349v-619h160q132 0 190 49.5t58 168.5h27v-463h-27q0 121 -58.5 169t-189.5 48h-160v-688h373q161 0 230 89t88 298h28l-28 -416h-996zM442 1782q0 24 17.5 39.5t40.5 15.5q36 0 65 -39 l213 -266l-28 -8l-267 194q-41 27 -41 64z" />
<glyph unicode="&#xc9;" horiz-adv-x="1204" d="M94 0v29h142v1337h-142v27h969l29 -414h-29q-18 208 -86 296.5t-229 88.5h-349v-619h160q132 0 190 49.5t58 168.5h27v-463h-27q0 121 -58.5 169t-189.5 48h-160v-688h373q161 0 230 89t88 298h28l-28 -416h-996zM451 1532l215 266q29 39 63 39q24 0 40.5 -15.5 t16.5 -39.5q0 -39 -38 -64l-269 -194z" />
<glyph unicode="&#xca;" horiz-adv-x="1204" d="M94 0v29h142v1337h-142v27h969l29 -414h-29q-18 208 -86 296.5t-229 88.5h-349v-619h160q132 0 190 49.5t58 168.5h27v-463h-27q0 121 -58.5 169t-189.5 48h-160v-688h373q161 0 230 89t88 298h28l-28 -416h-996zM377 1530l239 307l240 -307l-27 -6l-213 151l-215 -151z " />
<glyph unicode="&#xcb;" horiz-adv-x="1204" d="M94 0v29h142v1337h-142v27h969l29 -414h-29q-18 208 -86 296.5t-229 88.5h-349v-619h160q132 0 190 49.5t58 168.5h27v-463h-27q0 121 -58.5 169t-189.5 48h-160v-688h373q161 0 230 89t88 298h28l-28 -416h-996zM369 1671q0 37 25.5 63.5t62.5 26.5q36 0 63 -27t27 -63 q0 -35 -26.5 -61.5t-63.5 -26.5q-40 0 -64 26.5t-24 61.5zM688 1671q0 37 25.5 63.5t62.5 26.5q36 0 63 -27t27 -63q0 -35 -26.5 -61.5t-63.5 -26.5q-40 0 -64 26.5t-24 61.5z" />
<glyph unicode="&#xcc;" horiz-adv-x="643" d="M94 0v29h148v1337h-142v27h453v-27h-147v-1337h141v-29h-453zM150 1782q0 24 17 39.5t40 15.5q36 0 65 -39l213 -266l-28 -8l-267 194q-40 27 -40 64z" />
<glyph unicode="&#xcd;" horiz-adv-x="643" d="M94 0v29h148v1337h-142v27h453v-27h-147v-1337h141v-29h-453zM158 1532l215 266q29 39 63 39q24 0 41 -15.5t17 -39.5q0 -38 -39 -64l-269 -194z" />
<glyph unicode="&#xce;" horiz-adv-x="643" d="M84 1530l240 307l239 -307l-26 -6l-213 151l-215 -151zM94 0v29h148v1337h-142v27h453v-27h-147v-1337h141v-29h-453z" />
<glyph unicode="&#xcf;" horiz-adv-x="643" d="M74 1671q0 37 25.5 63.5t62.5 26.5q36 0 63 -27t27 -63q0 -35 -26.5 -61.5t-63.5 -26.5q-40 0 -64 26.5t-24 61.5zM94 0v29h148v1337h-142v27h453v-27h-147v-1337h141v-29h-453zM393 1671q0 37 25.5 63.5t62.5 26.5q36 0 63 -27t27 -63q0 -35 -26.5 -61.5t-63.5 -26.5 q-40 0 -64 26.5t-24 61.5z" />
<glyph unicode="&#xd0;" horiz-adv-x="1472" d="M90 682v29h146v655h-142v27h504q177 0 323.5 -53t244 -146.5t151 -221t53.5 -276.5q0 -151 -54 -279t-152 -220.5t-244 -144.5t-322 -52h-504v29h142v653h-146zM399 29h195q149 0 265.5 52.5t188 144.5t108 211t36.5 259q0 138 -37 257.5t-108.5 212t-187.5 145.5 t-265 53h-195v-653h256v-29h-256v-653z" />
<glyph unicode="&#xd1;" horiz-adv-x="1531" d="M51 0v27q99 0 144 82t45 266v991h-142v27h191l977 -1135v760q0 183 -44 265.5t-145 82.5v27h406v-27q-99 0 -144 -82t-45 -266v-1043l-1026 1199v-799q0 -183 44 -265.5t145 -82.5v-27h-406zM498 1550q0 88 41.5 136.5t124.5 48.5q44 0 145 -33q100 -35 141 -35 q36 0 61 22.5t31 61.5h23q0 -88 -42 -138t-126 -50q-53 0 -147 34q-107 35 -132 35q-40 0 -66 -21.5t-30 -60.5h-24z" />
<glyph unicode="&#xd2;" d="M100 696q0 147 53 279.5t143 227t212 149.5t256 55q135 0 258.5 -55t214.5 -149t145 -226.5t54 -280.5q0 -149 -54 -281.5t-145 -226t-214.5 -148t-258.5 -54.5q-133 0 -255 54t-212 147.5t-143.5 226t-53.5 282.5zM281 696q0 -317 129.5 -499.5t353.5 -182.5 q230 0 361.5 182.5t131.5 499.5t-131.5 499.5t-361.5 182.5q-224 0 -353.5 -182.5t-129.5 -499.5zM592 1782q0 24 17 39.5t40 15.5q37 0 66 -39l213 -266l-29 -8l-266 194q-41 27 -41 64z" />
<glyph unicode="&#xd3;" d="M100 696q0 147 53 279.5t143 227t212 149.5t256 55q135 0 258.5 -55t214.5 -149t145 -226.5t54 -280.5q0 -149 -54 -281.5t-145 -226t-214.5 -148t-258.5 -54.5q-133 0 -255 54t-212 147.5t-143.5 226t-53.5 282.5zM281 696q0 -317 129.5 -499.5t353.5 -182.5 q230 0 361.5 182.5t131.5 499.5t-131.5 499.5t-361.5 182.5q-224 0 -353.5 -182.5t-129.5 -499.5zM600 1532l215 266q29 39 64 39q24 0 40.5 -15.5t16.5 -39.5q0 -38 -39 -64l-268 -194z" />
<glyph unicode="&#xd4;" d="M100 696q0 147 53 279.5t143 227t212 149.5t256 55q135 0 258.5 -55t214.5 -149t145 -226.5t54 -280.5q0 -149 -54 -281.5t-145 -226t-214.5 -148t-258.5 -54.5q-133 0 -255 54t-212 147.5t-143.5 226t-53.5 282.5zM281 696q0 -317 129.5 -499.5t353.5 -182.5 q230 0 361.5 182.5t131.5 499.5t-131.5 499.5t-361.5 182.5q-224 0 -353.5 -182.5t-129.5 -499.5zM526 1530l240 307l240 -307l-27 -6l-213 151l-215 -151z" />
<glyph unicode="&#xd5;" d="M100 696q0 147 53 279.5t143 227t212 149.5t256 55q135 0 258.5 -55t214.5 -149t145 -226.5t54 -280.5q0 -149 -54 -281.5t-145 -226t-214.5 -148t-258.5 -54.5q-133 0 -255 54t-212 147.5t-143.5 226t-53.5 282.5zM281 696q0 -317 129.5 -499.5t353.5 -182.5 q230 0 361.5 182.5t131.5 499.5t-131.5 499.5t-361.5 182.5q-224 0 -353.5 -182.5t-129.5 -499.5zM481 1550q0 88 41.5 136.5t124.5 48.5q45 0 146 -33q100 -35 141 -35q36 0 61 22.5t31 61.5h23q0 -88 -42 -138t-126 -50q-55 0 -148 34q-107 35 -131 35q-40 0 -66 -21.5 t-30 -60.5h-25z" />
<glyph unicode="&#xd6;" d="M100 696q0 147 53 279.5t143 227t212 149.5t256 55q135 0 258.5 -55t214.5 -149t145 -226.5t54 -280.5q0 -149 -54 -281.5t-145 -226t-214.5 -148t-258.5 -54.5q-133 0 -255 54t-212 147.5t-143.5 226t-53.5 282.5zM281 696q0 -317 129.5 -499.5t353.5 -182.5 q230 0 361.5 182.5t131.5 499.5t-131.5 499.5t-361.5 182.5q-224 0 -353.5 -182.5t-129.5 -499.5zM516 1671q0 37 25.5 63.5t62.5 26.5q36 0 63 -27t27 -63q0 -35 -26.5 -61.5t-63.5 -26.5q-40 0 -64 26.5t-24 61.5zM836 1671q0 37 25.5 63.5t62.5 26.5q36 0 63 -27t27 -63 q0 -35 -26.5 -61.5t-63.5 -26.5q-40 0 -64 26.5t-24 61.5z" />
<glyph unicode="&#xd7;" horiz-adv-x="952" d="M113 340l344 346l-344 346l18 21l346 -346l344 346l21 -21l-346 -346l346 -346l-21 -21l-344 347l-346 -347z" />
<glyph unicode="&#xd8;" d="M100 696q0 147 53 279.5t143 227t212 149.5t256 55q183 0 340 -96l86 149l24 -14l-88 -152q142 -95 226 -252.5t84 -345.5q0 -149 -54 -281.5t-145 -226t-214.5 -148t-258.5 -54.5q-184 0 -340 98l-88 -152l-25 15l88 153q-137 95 -218 251.5t-81 344.5zM281 696 q0 -351 155 -532l637 1093q-127 121 -309 121q-224 0 -353.5 -182.5t-129.5 -499.5zM457 141q124 -127 307 -127q230 0 361.5 182.5t131.5 499.5q0 354 -163 541z" />
<glyph unicode="&#xd9;" horiz-adv-x="1431" d="M78 1366v27h452v-27h-147v-772q0 -112 9 -195.5t34 -158.5t67 -122t108.5 -74.5t158.5 -27.5q114 0 195.5 37.5t130 111t70.5 172.5t22 230v451q0 183 -44 265.5t-145 82.5v27h406v-27q-99 0 -144 -82t-45 -266v-453q0 -579 -446 -579q-127 0 -220.5 27.5t-155 78 t-98.5 132.5t-52 180t-15 231v731h-141zM553 1782q0 24 17 39.5t40 15.5q37 0 66 -39l213 -266l-29 -8l-266 194q-41 27 -41 64z" />
<glyph unicode="&#xda;" horiz-adv-x="1431" d="M78 1366v27h452v-27h-147v-772q0 -112 9 -195.5t34 -158.5t67 -122t108.5 -74.5t158.5 -27.5q114 0 195.5 37.5t130 111t70.5 172.5t22 230v451q0 183 -44 265.5t-145 82.5v27h406v-27q-99 0 -144 -82t-45 -266v-453q0 -579 -446 -579q-127 0 -220.5 27.5t-155 78 t-98.5 132.5t-52 180t-15 231v731h-141zM561 1532l215 266q29 39 64 39q24 0 40.5 -15.5t16.5 -39.5q0 -38 -39 -64l-268 -194z" />
<glyph unicode="&#xdb;" horiz-adv-x="1431" d="M78 1366v27h452v-27h-147v-772q0 -112 9 -195.5t34 -158.5t67 -122t108.5 -74.5t158.5 -27.5q114 0 195.5 37.5t130 111t70.5 172.5t22 230v451q0 183 -44 265.5t-145 82.5v27h406v-27q-99 0 -144 -82t-45 -266v-453q0 -579 -446 -579q-127 0 -220.5 27.5t-155 78 t-98.5 132.5t-52 180t-15 231v731h-141zM487 1530l240 307l240 -307l-27 -6l-213 151l-215 -151z" />
<glyph unicode="&#xdc;" horiz-adv-x="1431" d="M78 1366v27h452v-27h-147v-772q0 -112 9 -195.5t34 -158.5t67 -122t108.5 -74.5t158.5 -27.5q114 0 195.5 37.5t130 111t70.5 172.5t22 230v451q0 183 -44 265.5t-145 82.5v27h406v-27q-99 0 -144 -82t-45 -266v-453q0 -579 -446 -579q-127 0 -220.5 27.5t-155 78 t-98.5 132.5t-52 180t-15 231v731h-141zM477 1671q0 37 25.5 63.5t62.5 26.5q36 0 63 -27t27 -63q0 -35 -26.5 -61.5t-63.5 -26.5q-40 0 -64 26.5t-24 61.5zM797 1671q0 37 25.5 63.5t62.5 26.5q36 0 63 -27t27 -63q0 -35 -26.5 -61.5t-63.5 -26.5q-40 0 -64 26.5t-24 61.5z " />
<glyph unicode="&#xdd;" horiz-adv-x="1357" d="M33 1366v27h463v-27h-134l394 -696l221 395q39 69 59 120.5t23 94t-23 64.5t-82 22v27h394v-27q-81 0 -161.5 -66.5t-174.5 -234.5l-250 -444v-592h141v-29h-452v29h147v610l-424 727h-141zM549 1532l215 266q29 39 63 39q24 0 41 -15.5t17 -39.5q0 -38 -39 -64 l-268 -194z" />
<glyph unicode="&#xde;" horiz-adv-x="1181" d="M94 0v29h148v1335h-142v29h453v-29h-147v-260h223q150 0 265.5 -43.5t183 -131t67.5 -206.5q0 -128 -69.5 -222.5t-183 -141t-255.5 -46.5q-92 0 -231 33v-317h141v-29h-453zM406 375q135 -33 231 -33q150 0 241 97.5t91 283.5q0 179 -99.5 265.5t-296.5 86.5h-167v-700z " />
<glyph unicode="&#xdf;" horiz-adv-x="1163" d="M63 0v29h138v829v16h-138v29h138q11 242 119.5 373t300.5 131q121 0 196.5 -54t75.5 -143q0 -30 -8 -58t-29 -61.5t-32.5 -50t-43.5 -57.5q-44 -53 -67 -100t-23 -105q0 -41 29.5 -81.5t74 -73t96.5 -72.5t96.5 -79t74 -93.5t29.5 -114.5q0 -67 -30 -121.5t-79 -88 t-110 -51t-126 -17.5q-131 0 -217 72t-86 184q0 43 19.5 73.5t60.5 30.5q34 0 54 -23.5t20 -58.5q0 -25 -12.5 -62.5t-12.5 -60.5q0 -19 8.5 -39t27 -41t54 -34t82.5 -13q93 0 142 56.5t49 150.5q0 52 -20 96t-51.5 75t-70 59t-76.5 54.5t-69.5 54.5t-51.5 66t-20 83 q0 30 11 60.5t33 62t41.5 55t51.5 59.5t48 55q84 102 84 209q0 79 -57.5 123.5t-139.5 44.5q-85 0 -143.5 -34t-91 -101t-46.5 -154t-14 -206v-906q-184 23 -289 23z" />
<glyph unicode="&#xe0;" horiz-adv-x="956" d="M63 213q0 28 6.5 53.5t16 45.5t28.5 40t34 34t42.5 30t45.5 25.5t51 23t50.5 20t53 19.5t49.5 18q109 41 163 79t54 99q0 75 -46 132t-146 57q-106 -3 -152 -72q-10 -14 -16 -34t-7 -30t-2 -41.5t-1 -33.5q0 -47 -16 -72.5t-58 -25.5q-36 0 -56 24t-20 60q0 111 94.5 181 t233.5 70q161 0 251.5 -95.5t90.5 -293.5l2 -348q0 -92 12.5 -122.5t44.5 -30.5q29 0 62 43l22 -19q-21 -24 -28.5 -32t-32.5 -19.5t-58 -11.5q-174 0 -174 209v71q-42 -127 -129.5 -203.5t-195.5 -76.5q-118 0 -193.5 58.5t-75.5 168.5zM213 213q0 -90 40 -139t116 -49 q65 0 132 54t111.5 145t44.5 188v204q-18 -25 -53 -48t-64.5 -36.5t-84.5 -35.5q-40 -17 -68.5 -31.5t-64 -40t-57 -53t-37 -69t-15.5 -89.5zM291 1292q0 24 17 40t40 16q37 0 66 -39l213 -267l-29 -8l-266 195q-41 27 -41 63z" />
<glyph unicode="&#xe1;" horiz-adv-x="956" d="M63 213q0 28 6.5 53.5t16 45.5t28.5 40t34 34t42.5 30t45.5 25.5t51 23t50.5 20t53 19.5t49.5 18q109 41 163 79t54 99q0 75 -46 132t-146 57q-106 -3 -152 -72q-10 -14 -16 -34t-7 -30t-2 -41.5t-1 -33.5q0 -47 -16 -72.5t-58 -25.5q-36 0 -56 24t-20 60q0 111 94.5 181 t233.5 70q161 0 251.5 -95.5t90.5 -293.5l2 -348q0 -92 12.5 -122.5t44.5 -30.5q29 0 62 43l22 -19q-21 -24 -28.5 -32t-32.5 -19.5t-58 -11.5q-174 0 -174 209v71q-42 -127 -129.5 -203.5t-195.5 -76.5q-118 0 -193.5 58.5t-75.5 168.5zM213 213q0 -90 40 -139t116 -49 q65 0 132 54t111.5 145t44.5 188v204q-18 -25 -53 -48t-64.5 -36.5t-84.5 -35.5q-40 -17 -68.5 -31.5t-64 -40t-57 -53t-37 -69t-15.5 -89.5zM299 1042l215 267q29 39 64 39q24 0 40.5 -16t16.5 -40q0 -37 -39 -63l-268 -195z" />
<glyph unicode="&#xe2;" horiz-adv-x="956" d="M63 213q0 28 6.5 53.5t16 45.5t28.5 40t34 34t42.5 30t45.5 25.5t51 23t50.5 20t53 19.5t49.5 18q109 41 163 79t54 99q0 75 -46 132t-146 57q-106 -3 -152 -72q-10 -14 -16 -34t-7 -30t-2 -41.5t-1 -33.5q0 -47 -16 -72.5t-58 -25.5q-36 0 -56 24t-20 60q0 111 94.5 181 t233.5 70q161 0 251.5 -95.5t90.5 -293.5l2 -348q0 -92 12.5 -122.5t44.5 -30.5q29 0 62 43l22 -19q-21 -24 -28.5 -32t-32.5 -19.5t-58 -11.5q-174 0 -174 209v71q-42 -127 -129.5 -203.5t-195.5 -76.5q-118 0 -193.5 58.5t-75.5 168.5zM213 213q0 -90 40 -139t116 -49 q65 0 132 54t111.5 145t44.5 188v204q-18 -25 -53 -48t-64.5 -36.5t-84.5 -35.5q-40 -17 -68.5 -31.5t-64 -40t-57 -53t-37 -69t-15.5 -89.5zM225 1040l240 308l240 -308l-27 -6l-213 152l-215 -152z" />
<glyph unicode="&#xe3;" horiz-adv-x="956" d="M63 213q0 28 6.5 53.5t16 45.5t28.5 40t34 34t42.5 30t45.5 25.5t51 23t50.5 20t53 19.5t49.5 18q109 41 163 79t54 99q0 75 -46 132t-146 57q-106 -3 -152 -72q-10 -14 -16 -34t-7 -30t-2 -41.5t-1 -33.5q0 -47 -16 -72.5t-58 -25.5q-36 0 -56 24t-20 60q0 111 94.5 181 t233.5 70q161 0 251.5 -95.5t90.5 -293.5l2 -348q0 -92 12.5 -122.5t44.5 -30.5q29 0 62 43l22 -19q-21 -24 -28.5 -32t-32.5 -19.5t-58 -11.5q-174 0 -174 209v71q-42 -127 -129.5 -203.5t-195.5 -76.5q-118 0 -193.5 58.5t-75.5 168.5zM180 1061q0 88 41.5 136t124.5 48 q45 0 146 -33q97 -34 141 -34q36 0 61 22.5t31 61.5h23q0 -88 -42 -138.5t-126 -50.5q-52 0 -148 35q-107 35 -131 35q-40 0 -66 -21.5t-30 -60.5h-25zM213 213q0 -90 40 -139t116 -49q65 0 132 54t111.5 145t44.5 188v204q-18 -25 -53 -48t-64.5 -36.5t-84.5 -35.5 q-40 -17 -68.5 -31.5t-64 -40t-57 -53t-37 -69t-15.5 -89.5z" />
<glyph unicode="&#xe4;" horiz-adv-x="956" d="M63 213q0 28 6.5 53.5t16 45.5t28.5 40t34 34t42.5 30t45.5 25.5t51 23t50.5 20t53 19.5t49.5 18q109 41 163 79t54 99q0 75 -46 132t-146 57q-106 -3 -152 -72q-10 -14 -16 -34t-7 -30t-2 -41.5t-1 -33.5q0 -47 -16 -72.5t-58 -25.5q-36 0 -56 24t-20 60q0 111 94.5 181 t233.5 70q161 0 251.5 -95.5t90.5 -293.5l2 -348q0 -92 12.5 -122.5t44.5 -30.5q29 0 62 43l22 -19q-21 -24 -28.5 -32t-32.5 -19.5t-58 -11.5q-174 0 -174 209v71q-42 -127 -129.5 -203.5t-195.5 -76.5q-118 0 -193.5 58.5t-75.5 168.5zM213 213q0 -90 40 -139t116 -49 q65 0 132 54t111.5 145t44.5 188v204q-18 -25 -53 -48t-64.5 -36.5t-84.5 -35.5q-40 -17 -68.5 -31.5t-64 -40t-57 -53t-37 -69t-15.5 -89.5zM217 1182q0 37 25.5 63.5t62.5 26.5q36 0 63 -27t27 -63q0 -35 -26.5 -61.5t-63.5 -26.5q-40 0 -64 26.5t-24 61.5zM537 1182 q0 37 25.5 63.5t62.5 26.5q36 0 63 -27t27 -63q0 -35 -26.5 -61.5t-63.5 -26.5q-40 0 -64 26.5t-24 61.5z" />
<glyph unicode="&#xe5;" horiz-adv-x="956" d="M63 213q0 28 6.5 53.5t16 45.5t28.5 40t34 34t42.5 30t45.5 25.5t51 23t50.5 20t53 19.5t49.5 18q109 41 163 79t54 99q0 75 -46 132t-146 57q-106 -3 -152 -72q-10 -14 -16 -34t-7 -30t-2 -41.5t-1 -33.5q0 -47 -16 -72.5t-58 -25.5q-36 0 -56 24t-20 60q0 111 94.5 181 t233.5 70q161 0 251.5 -95.5t90.5 -293.5l2 -348q0 -92 12.5 -122.5t44.5 -30.5q29 0 62 43l22 -19q-21 -24 -28.5 -32t-32.5 -19.5t-58 -11.5q-174 0 -174 209v71q-42 -127 -129.5 -203.5t-195.5 -76.5q-118 0 -193.5 58.5t-75.5 168.5zM213 213q0 -90 40 -139t116 -49 q65 0 132 54t111.5 145t44.5 188v204q-18 -25 -53 -48t-64.5 -36.5t-84.5 -35.5q-40 -17 -68.5 -31.5t-64 -40t-57 -53t-37 -69t-15.5 -89.5zM287 1180q0 63 48.5 102t127.5 39q78 0 127 -39t49 -102t-49 -101.5t-127 -38.5q-79 0 -127.5 38.5t-48.5 101.5zM387 1180 q0 -55 21 -87t55 -32t54 32t20 87t-20 87.5t-54 32.5t-55 -32.5t-21 -87.5z" />
<glyph unicode="&#xe6;" horiz-adv-x="1523" d="M63 213q0 28 6.5 53.5t16 45.5t28.5 40t34 34t42.5 30t45.5 25.5t51 23t50.5 20t53 19.5t49.5 18q109 41 163 79t54 99q0 34 -9.5 65.5t-30.5 60t-60.5 46t-93.5 17.5q-53 0 -91.5 -12t-57.5 -30.5t-27 -36t-8 -32.5q0 -20 16.5 -39t33.5 -42.5t17 -53.5q0 -36 -25 -60 t-65 -24q-45 0 -73.5 36t-28.5 91q0 100 89.5 164.5t223.5 64.5q212 0 291 -157q60 75 143.5 117.5t179.5 42.5q160 0 261.5 -103t101.5 -242q0 -17 -4 -53h-623q-2 -23 -2 -69q0 -203 73.5 -320t217.5 -117q47 -1 90.5 11t85.5 39.5t76.5 78.5t56.5 121l27 -8 q-91 -274 -342 -270q-162 0 -276.5 90t-151.5 241q-38 -153 -130 -242t-210 -89t-193.5 58.5t-75.5 168.5zM213 213q0 -90 40 -139t116 -49q96 0 186 111t102 261q-2 18 -2 54q0 31 2 47v118q-18 -25 -53 -48t-64.5 -36.5t-84.5 -35.5q-40 -17 -68.5 -31.5t-64 -40t-57 -53 t-37 -69t-15.5 -89.5zM819 549h471q2 25 2 67q0 116 -57 194.5t-156 78.5q-108 0 -176.5 -88t-83.5 -252z" />
<glyph unicode="&#xe7;" horiz-adv-x="935" d="M70 451q0 201 131.5 332.5t326.5 131.5q138 0 234 -74.5t96 -181.5q0 -41 -20.5 -66.5t-57.5 -25.5q-72 0 -75 99v21.5v23.5t-0.5 21.5t-2.5 23.5t-4.5 20t-7 21t-10.5 18q-47 72 -152 72q-137 0 -218 -121t-81 -315q0 -196 83 -316.5t216 -120.5q66 -1 123 20t109.5 79 t81.5 151l26 -8q-78 -238 -276 -266l-74 -82q90 -6 143.5 -50t53.5 -112q0 -71 -58.5 -108t-148.5 -37q-64 0 -119 20l-4 27q52 -19 104 -19q58 0 88.5 31.5t30.5 81.5q0 61 -50.5 94t-121.5 33l115 117h-29q-192 0 -322 132t-130 333z" />
<glyph unicode="&#xe8;" horiz-adv-x="937" d="M70 451q0 128 56 235.5t154 169.5t216 62q160 0 261 -103t101 -242q0 -17 -4 -53h-623q-2 -23 -2 -69q0 -203 73.5 -320t217.5 -117q47 -1 90.5 11t85.5 39.5t76.5 78.5t56.5 121l27 -8q-91 -274 -342 -270q-197 0 -320.5 130.5t-123.5 334.5zM233 549h472q2 25 2 67 q0 116 -57 194.5t-156 78.5q-108 0 -177 -88t-84 -252zM311 1290q0 24 17.5 40t40.5 16q36 0 65 -39l213 -267l-29 -8l-266 195q-41 27 -41 63z" />
<glyph unicode="&#xe9;" horiz-adv-x="937" d="M70 451q0 128 56 235.5t154 169.5t216 62q160 0 261 -103t101 -242q0 -17 -4 -53h-623q-2 -23 -2 -69q0 -203 73.5 -320t217.5 -117q47 -1 90.5 11t85.5 39.5t76.5 78.5t56.5 121l27 -8q-91 -274 -342 -270q-197 0 -320.5 130.5t-123.5 334.5zM233 549h472q2 25 2 67 q0 116 -57 194.5t-156 78.5q-108 0 -177 -88t-84 -252zM319 1040l216 267q29 39 63 39q24 0 40.5 -16t16.5 -40q0 -37 -39 -63l-268 -195z" />
<glyph unicode="&#xea;" horiz-adv-x="937" d="M70 451q0 128 56 235.5t154 169.5t216 62q160 0 261 -103t101 -242q0 -17 -4 -53h-623q-2 -23 -2 -69q0 -203 73.5 -320t217.5 -117q47 -1 90.5 11t85.5 39.5t76.5 78.5t56.5 121l27 -8q-91 -274 -342 -270q-197 0 -320.5 130.5t-123.5 334.5zM233 549h472q2 25 2 67 q0 116 -57 194.5t-156 78.5q-108 0 -177 -88t-84 -252zM246 1038l239 308l240 -308l-27 -6l-213 152l-215 -152z" />
<glyph unicode="&#xeb;" horiz-adv-x="937" d="M70 451q0 128 56 235.5t154 169.5t216 62q160 0 261 -103t101 -242q0 -17 -4 -53h-623q-2 -23 -2 -69q0 -203 73.5 -320t217.5 -117q47 -1 90.5 11t85.5 39.5t76.5 78.5t56.5 121l27 -8q-91 -274 -342 -270q-197 0 -320.5 130.5t-123.5 334.5zM233 549h472q2 25 2 67 q0 116 -57 194.5t-156 78.5q-108 0 -177 -88t-84 -252zM238 1180q0 37 25.5 63.5t62.5 26.5q36 0 63 -27t27 -63q0 -35 -26.5 -61.5t-63.5 -26.5q-40 0 -64 26.5t-24 61.5zM557 1180q0 37 25.5 63.5t62.5 26.5q36 0 63 -27t27 -63q0 -35 -26.5 -61.5t-63.5 -26.5 q-40 0 -64 26.5t-24 61.5z" />
<glyph unicode="&#xec;" horiz-adv-x="524" d="M49 0v29h137v843h-137v29q105 0 289 23v-895h137v-29h-426zM90 1290q0 24 17 40t40 16q37 0 66 -39l213 -267l-29 -8l-266 195q-41 27 -41 63z" />
<glyph unicode="&#xed;" horiz-adv-x="524" d="M49 0v29h137v843h-137v29q105 0 289 23v-895h137v-29h-426zM98 1040l215 267q29 39 64 39q24 0 40.5 -16t16.5 -40q0 -37 -39 -63l-268 -195z" />
<glyph unicode="&#xee;" horiz-adv-x="524" d="M23 1038l239 308l240 -308l-27 -6l-213 152l-215 -152zM49 0v29h137v843h-137v29q105 0 289 23v-895h137v-29h-426z" />
<glyph unicode="&#xef;" horiz-adv-x="524" d="M14 1180q0 37 25.5 63.5t62.5 26.5q36 0 63.5 -27t27.5 -63q0 -35 -27 -61.5t-64 -26.5q-40 0 -64 26.5t-24 61.5zM49 0v29h137v843h-137v29q105 0 289 23v-895h137v-29h-426zM334 1180q0 37 25.5 63.5t62.5 26.5q36 0 63 -27t27 -63q0 -35 -26.5 -61.5t-63.5 -26.5 q-40 0 -64 26.5t-24 61.5z" />
<glyph unicode="&#xf0;" horiz-adv-x="1007" d="M70 455q0 207 116 335t291 128q145 0 244 -99q-86 220 -223 363l-281 -150l-14 27l272 145q-59 58 -129 105q-36 25 -121 65l23 17q57 -19 131 -54q92 -45 166 -96l280 150l15 -27l-269 -143q179 -134 274 -323.5t95 -408.5q0 -228 -116 -365.5t-316 -137.5 q-203 0 -320.5 128.5t-117.5 340.5zM227 455q0 -121 31.5 -220t96 -160t151.5 -61q70 0 125 37t88 100t50 140t17 162q0 117 -29.5 211t-94.5 153.5t-158 59.5q-87 0 -150.5 -56t-95 -151t-31.5 -215z" />
<glyph unicode="&#xf1;" horiz-adv-x="1169" d="M49 0v29h137v843h-137v29q105 0 289 23v-334q14 54 41 107.5t68 104t100 82t127 31.5q307 0 307 -372v-514h137v-29h-424v29h135v534q0 166 -42 242.5t-134 77.5q-83 0 -156.5 -69.5t-115.5 -177t-43 -218.5v-389h135v-29h-424zM301 1059q0 88 41.5 136t124.5 48 q44 0 145 -33q97 -34 142 -34q36 0 61 22.5t31 61.5h22q0 -88 -42 -138.5t-126 -50.5q-51 0 -147 35q-107 35 -131 35q-40 0 -66 -21.5t-30 -60.5h-25z" />
<glyph unicode="&#xf2;" horiz-adv-x="1026" d="M70 455q0 195 128 327.5t314 132.5q188 0 317 -132.5t129 -327.5q0 -197 -129.5 -333t-316.5 -136q-186 0 -314 136t-128 333zM229 455q0 -198 78 -319.5t205 -121.5q129 0 208 121.5t79 319.5q0 195 -79 313.5t-208 118.5q-128 0 -205.5 -118.5t-77.5 -313.5zM342 1290 q0 24 17 40t40 16q37 0 66 -39l213 -267l-29 -8l-266 195q-41 27 -41 63z" />
<glyph unicode="&#xf3;" horiz-adv-x="1026" d="M70 455q0 195 128 327.5t314 132.5q188 0 317 -132.5t129 -327.5q0 -197 -129.5 -333t-316.5 -136q-186 0 -314 136t-128 333zM229 455q0 -198 78 -319.5t205 -121.5q129 0 208 121.5t79 319.5q0 195 -79 313.5t-208 118.5q-128 0 -205.5 -118.5t-77.5 -313.5zM350 1040 l215 267q29 39 64 39q24 0 40.5 -16t16.5 -40q0 -37 -39 -63l-268 -195z" />
<glyph unicode="&#xf4;" horiz-adv-x="1026" d="M70 455q0 195 128 327.5t314 132.5q188 0 317 -132.5t129 -327.5q0 -197 -129.5 -333t-316.5 -136q-186 0 -314 136t-128 333zM229 455q0 -198 78 -319.5t205 -121.5q129 0 208 121.5t79 319.5q0 195 -79 313.5t-208 118.5q-128 0 -205.5 -118.5t-77.5 -313.5zM276 1038 l240 308l240 -308l-27 -6l-213 152l-215 -152z" />
<glyph unicode="&#xf5;" horiz-adv-x="1026" d="M70 455q0 195 128 327.5t314 132.5q188 0 317 -132.5t129 -327.5q0 -197 -129.5 -333t-316.5 -136q-186 0 -314 136t-128 333zM229 455q0 -198 78 -319.5t205 -121.5q129 0 208 121.5t79 319.5q0 195 -79 313.5t-208 118.5q-128 0 -205.5 -118.5t-77.5 -313.5zM231 1059 q0 88 41.5 136t124.5 48q45 0 146 -33q97 -34 141 -34q36 0 61 22.5t31 61.5h23q0 -88 -42 -138.5t-126 -50.5q-52 0 -148 35q-107 35 -131 35q-40 0 -66 -21.5t-30 -60.5h-25z" />
<glyph unicode="&#xf6;" horiz-adv-x="1026" d="M70 455q0 195 128 327.5t314 132.5q188 0 317 -132.5t129 -327.5q0 -197 -129.5 -333t-316.5 -136q-186 0 -314 136t-128 333zM229 455q0 -198 78 -319.5t205 -121.5q129 0 208 121.5t79 319.5q0 195 -79 313.5t-208 118.5q-128 0 -205.5 -118.5t-77.5 -313.5zM266 1180 q0 37 25.5 63.5t62.5 26.5q36 0 63 -27t27 -63q0 -35 -26.5 -61.5t-63.5 -26.5q-40 0 -64 26.5t-24 61.5zM586 1180q0 37 25.5 63.5t62.5 26.5q36 0 63 -27t27 -63q0 -35 -26.5 -61.5t-63.5 -26.5q-40 0 -64 26.5t-24 61.5z" />
<glyph unicode="&#xf7;" horiz-adv-x="1122" d="M113 672v28h899v-28h-899zM459 362q0 46 32.5 79.5t77.5 33.5q47 0 81 -33.5t34 -79.5q0 -47 -34 -80.5t-81 -33.5q-46 0 -78 33.5t-32 80.5zM459 1004q0 46 32 79t78 33q47 0 81 -33t34 -79q0 -47 -34 -81t-81 -34q-46 0 -78 34t-32 81z" />
<glyph unicode="&#xf8;" horiz-adv-x="1026" d="M70 455q0 195 128 327.5t314 132.5q123 0 223 -59l74 127l25 -14l-74 -127q92 -62 145 -164t53 -223q0 -197 -129.5 -333t-316.5 -136q-120 0 -217 57l-74 -127l-24 14l75 129q-94 62 -148 167t-54 229zM229 455q0 -204 82 -326l389 666q-76 92 -188 92 q-128 0 -205.5 -118.5t-77.5 -313.5zM330 104q74 -90 182 -90q129 0 208 121.5t79 319.5q0 196 -80 315z" />
<glyph unicode="&#xf9;" horiz-adv-x="1112" d="M49 872v29q105 0 289 23v-586q0 -176 36.5 -247.5t131.5 -72.5q67 0 126 55.5t97.5 141t61 186t22.5 193.5v278h-137v29q101 0 289 23v-731q0 -102 11.5 -135t45.5 -33q28 0 61 43l23 -19q-21 -24 -28.5 -32t-32.5 -19.5t-58 -11.5q-174 0 -174 207v182 q-10 -45 -24 -88.5t-41.5 -100.5t-62 -99t-87.5 -71.5t-115 -29.5q-141 0 -219 88.5t-78 263.5v534h-137zM412 1290q0 24 17 40t40 16q37 0 66 -39l213 -267l-29 -8l-266 195q-41 27 -41 63z" />
<glyph unicode="&#xfa;" horiz-adv-x="1112" d="M49 872v29q105 0 289 23v-586q0 -176 36.5 -247.5t131.5 -72.5q67 0 126 55.5t97.5 141t61 186t22.5 193.5v278h-137v29q101 0 289 23v-731q0 -102 11.5 -135t45.5 -33q28 0 61 43l23 -19q-21 -24 -28.5 -32t-32.5 -19.5t-58 -11.5q-174 0 -174 207v182 q-10 -45 -24 -88.5t-41.5 -100.5t-62 -99t-87.5 -71.5t-115 -29.5q-141 0 -219 88.5t-78 263.5v534h-137zM420 1040l215 267q29 39 63 39q24 0 41 -16t17 -40q0 -37 -39 -63l-268 -195z" />
<glyph unicode="&#xfb;" horiz-adv-x="1112" d="M49 872v29q105 0 289 23v-586q0 -176 36.5 -247.5t131.5 -72.5q67 0 126 55.5t97.5 141t61 186t22.5 193.5v278h-137v29q101 0 289 23v-731q0 -102 11.5 -135t45.5 -33q28 0 61 43l23 -19q-21 -24 -28.5 -32t-32.5 -19.5t-58 -11.5q-174 0 -174 207v182 q-10 -45 -24 -88.5t-41.5 -100.5t-62 -99t-87.5 -71.5t-115 -29.5q-141 0 -219 88.5t-78 263.5v534h-137zM346 1038l240 308l239 -308l-26 -6l-213 152l-215 -152z" />
<glyph unicode="&#xfc;" horiz-adv-x="1112" d="M49 872v29q105 0 289 23v-586q0 -176 36.5 -247.5t131.5 -72.5q67 0 126 55.5t97.5 141t61 186t22.5 193.5v278h-137v29q101 0 289 23v-731q0 -102 11.5 -135t45.5 -33q28 0 61 43l23 -19q-21 -24 -28.5 -32t-32.5 -19.5t-58 -11.5q-174 0 -174 207v182 q-10 -45 -24 -88.5t-41.5 -100.5t-62 -99t-87.5 -71.5t-115 -29.5q-141 0 -219 88.5t-78 263.5v534h-137zM336 1180q0 37 25.5 63.5t62.5 26.5q36 0 63 -27t27 -63q0 -35 -26.5 -61.5t-63.5 -26.5q-40 0 -64 26.5t-24 61.5zM655 1180q0 37 25.5 63.5t62.5 26.5 q36 0 63.5 -27t27.5 -63q0 -35 -27 -61.5t-64 -26.5q-40 0 -64 26.5t-24 61.5z" />
<glyph unicode="&#xfd;" horiz-adv-x="1064" d="M-6 -397q0 36 24 57t60 21q44 0 108 -31t107 -27q44 3 78.5 32t64.5 101l105 244h-56l-327 874h-138v27h451v-27h-137l264 -731l184 449q50 118 58 177t-21.5 82t-107.5 23v27h374v-27q-70 0 -134 -59.5t-132 -222.5l-356 -846q-31 -72 -70 -121t-82.5 -72.5t-81.5 -32.5 t-82 -9q-67 0 -110 24t-43 68zM455 1040l215 267q29 39 63 39q24 0 41 -16t17 -40q0 -37 -39 -63l-269 -195z" />
<glyph unicode="&#xfe;" horiz-adv-x="1136" d="M59 1364v29q113 0 289 22v-715q29 86 111.5 150t199.5 65q180 0 295 -130.5t115 -321.5q0 -203 -117 -341t-297 -138q-219 0 -303 192l-2 -618h137v-29h-426v29h138l-2 1806h-138zM354 453q0 -164 23 -252q20 -73 88 -127t162 -54q74 0 129 35t87.5 98t48 141t15.5 171 q0 178 -72 296t-206 118q-56 -1 -104.5 -23t-80.5 -57t-53 -74t-29 -78t-8 -194z" />
<glyph unicode="&#xff;" horiz-adv-x="1064" d="M-6 -397q0 36 24 57t60 21q44 0 108 -31t107 -27q44 3 78.5 32t64.5 101l105 244h-56l-327 874h-138v27h451v-27h-137l264 -731l184 449q50 118 58 177t-21.5 82t-107.5 23v27h374v-27q-70 0 -134 -59.5t-132 -222.5l-356 -846q-31 -72 -70 -121t-82.5 -72.5t-81.5 -32.5 t-82 -9q-67 0 -110 24t-43 68zM373 1180q0 37 25.5 63.5t62.5 26.5q36 0 63 -27t27 -63q0 -35 -26.5 -61.5t-63.5 -26.5q-40 0 -64 26.5t-24 61.5zM692 1180q0 37 25.5 63.5t62.5 26.5q36 0 63 -27t27 -63q0 -35 -26.5 -61.5t-63.5 -26.5q-40 0 -64 26.5t-24 61.5z" />
<glyph unicode="&#x152;" horiz-adv-x="2310" d="M100 696q0 200 97.5 363t266 255.5t372.5 92.5q167 0 312 -65.5t245 -184.5v209h-131v29h141v-2h792l29 -414h-29q-18 208 -86 296.5t-229 88.5h-324v-619h220q132 0 189.5 49.5t57.5 168.5h27v-463h-27q0 121 -58 169t-189 48h-220v-688h324q161 0 229 89t86 298h29 l-29 -416h-933v29h131v211q-99 -123 -244 -188.5t-313 -65.5q-204 0 -371.5 89.5t-266 252.5t-98.5 368zM281 696q0 -143 38 -267.5t108 -216.5t175.5 -145t233.5 -53q170 0 298 92.5t192.5 246t64.5 343.5q0 189 -65 342.5t-193 246.5t-297 93q-105 0 -194.5 -35 t-155 -97.5t-112.5 -147.5t-70 -187t-23 -215z" />
<glyph unicode="&#x153;" horiz-adv-x="1669" d="M70 455q0 195 128 327.5t314 132.5q114 0 210 -51.5t157 -140.5q58 91 149.5 143t198.5 52q160 0 261 -103t101 -242q0 -17 -4 -53h-622q-2 -23 -2 -69q0 -203 73 -320t217 -117q47 -1 90.5 11t85.5 39.5t77 78.5t57 121l26 -8q-91 -274 -342 -270q-120 0 -216 50.5 t-155 141.5q-61 -90 -155.5 -141t-206.5 -51q-186 0 -314 136t-128 333zM229 455q0 -198 78 -319.5t205 -121.5q129 0 208 121.5t79 319.5q0 195 -79 313.5t-208 118.5q-128 0 -205.5 -118.5t-77.5 -313.5zM965 549h471q2 25 2 67q0 116 -57 194.5t-156 78.5 q-108 0 -176.5 -88t-83.5 -252z" />
<glyph unicode="&#x178;" horiz-adv-x="1357" d="M33 1366v27h463v-27h-134l394 -696l221 395q39 69 59 120.5t23 94t-23 64.5t-82 22v27h394v-27q-81 0 -161.5 -66.5t-174.5 -234.5l-250 -444v-592h141v-29h-452v29h147v610l-424 727h-141zM465 1671q0 37 25.5 63.5t62.5 26.5q36 0 63 -27t27 -63q0 -35 -26.5 -61.5 t-63.5 -26.5q-40 0 -64 26.5t-24 61.5zM784 1671q0 37 25.5 63.5t62.5 26.5q36 0 63.5 -27t27.5 -63q0 -35 -27 -61.5t-64 -26.5q-40 0 -64 26.5t-24 61.5z" />
<glyph unicode="&#x2c6;" horiz-adv-x="688" d="M106 1038l240 308l240 -308l-27 -6l-213 152l-215 -152z" />
<glyph unicode="&#x2dc;" horiz-adv-x="794" d="M115 1059q0 88 41.5 136t124.5 48q44 0 145 -33q97 -34 141 -34q36 0 61 22.5t31 61.5h23q0 -88 -42 -138.5t-126 -50.5q-51 0 -147 35q-107 35 -131 35q-40 0 -66.5 -21.5t-30.5 -60.5h-24z" />
<glyph unicode="&#x2000;" horiz-adv-x="918" />
<glyph unicode="&#x2001;" horiz-adv-x="1837" />
<glyph unicode="&#x2002;" horiz-adv-x="918" />
<glyph unicode="&#x2003;" horiz-adv-x="1837" />
<glyph unicode="&#x2004;" horiz-adv-x="612" />
<glyph unicode="&#x2005;" horiz-adv-x="459" />
<glyph unicode="&#x2006;" horiz-adv-x="306" />
<glyph unicode="&#x2007;" horiz-adv-x="306" />
<glyph unicode="&#x2008;" horiz-adv-x="229" />
<glyph unicode="&#x2009;" horiz-adv-x="367" />
<glyph unicode="&#x200a;" horiz-adv-x="102" />
<glyph unicode="&#x2010;" horiz-adv-x="831" d="M113 434v29h606v-29h-606z" />
<glyph unicode="&#x2011;" horiz-adv-x="831" d="M113 434v29h606v-29h-606z" />
<glyph unicode="&#x2012;" horiz-adv-x="831" d="M113 434v29h606v-29h-606z" />
<glyph unicode="&#x2013;" horiz-adv-x="1153" d="M113 434v29h927v-29h-927z" />
<glyph unicode="&#x2014;" horiz-adv-x="1730" d="M113 434v29h1507v-29h-1507z" />
<glyph unicode="&#x2018;" horiz-adv-x="417" d="M127 1110q0 78 53.5 165.5t126.5 145.5l17 -16q-91 -97 -91 -211q0 -57 35 -89.5t82 -29.5q0 -33 -30 -64.5t-76 -31.5q-56 0 -86.5 37t-30.5 94z" />
<glyph unicode="&#x2019;" horiz-adv-x="417" d="M82 1341q0 33 30 66t76 33q57 0 88 -37.5t31 -93.5q0 -77 -54.5 -166.5t-127.5 -147.5l-16 17q90 96 90 211q0 57 -35 89t-82 29z" />
<glyph unicode="&#x201a;" horiz-adv-x="423" d="M82 72q0 33 30 65.5t76 32.5q57 0 88 -37.5t31 -93.5q0 -79 -54.5 -166.5t-127.5 -146.5l-16 16q90 96 90 211q0 57 -35 89.5t-82 29.5z" />
<glyph unicode="&#x201c;" horiz-adv-x="720" d="M127 1110q0 78 53.5 165.5t126.5 145.5l17 -16q-91 -97 -91 -211q0 -57 35 -89.5t82 -29.5q0 -33 -30 -64.5t-76 -31.5q-56 0 -86.5 37t-30.5 94zM412 1110q0 78 53.5 165.5t126.5 145.5l16 -16q-90 -96 -90 -211q0 -57 35 -89.5t82 -29.5q0 -33 -30.5 -64.5t-76.5 -31.5 q-56 0 -86 37t-30 94z" />
<glyph unicode="&#x201d;" horiz-adv-x="720" d="M82 1341q0 33 30 66t76 33q57 0 88 -37.5t31 -93.5q0 -77 -54.5 -166.5t-127.5 -147.5l-16 17q90 96 90 211q0 57 -35 89t-82 29zM367 1341q0 33 30 66t76 33q57 0 88 -37.5t31 -93.5q0 -77 -54.5 -166.5t-127.5 -147.5l-17 17q90 96 90 211q0 57 -34.5 89t-81.5 29z" />
<glyph unicode="&#x201e;" horiz-adv-x="720" d="M82 72q0 33 30 65.5t76 32.5q57 0 88 -37.5t31 -93.5q0 -79 -54.5 -166.5t-127.5 -146.5l-16 16q90 96 90 211q0 57 -35 89.5t-82 29.5zM367 72q0 33 30 65.5t76 32.5q57 0 88 -37.5t31 -93.5q0 -79 -54.5 -166.5t-127.5 -146.5l-17 16q90 96 90 211q0 57 -34.5 89.5 t-81.5 29.5z" />
<glyph unicode="&#x2022;" horiz-adv-x="610" d="M66 514q0 99 69 169.5t168 70.5q101 0 173.5 -71t72.5 -169q0 -102 -72 -174t-174 -72q-100 0 -168.5 71.5t-68.5 174.5z" />
<glyph unicode="&#x2026;" horiz-adv-x="1171" d="M94 96q0 46 32.5 79.5t78.5 33.5q47 0 80.5 -33.5t33.5 -79.5q0 -47 -33.5 -80.5t-80.5 -33.5q-46 0 -78.5 33.5t-32.5 80.5zM483 96q0 46 32.5 79.5t78.5 33.5q47 0 81 -33.5t34 -79.5q0 -47 -34 -80.5t-81 -33.5q-46 0 -78.5 33.5t-32.5 80.5zM872 96q0 46 32.5 79.5 t78.5 33.5q47 0 81 -33.5t34 -79.5q0 -47 -34 -80.5t-81 -33.5q-46 0 -78.5 33.5t-32.5 80.5z" />
<glyph unicode="&#x202f;" horiz-adv-x="367" />
<glyph unicode="&#x2039;" horiz-adv-x="450" d="M61 455l328 327l21 -20l-310 -307l308 -308l-21 -20z" />
<glyph unicode="&#x203a;" horiz-adv-x="450" d="M41 762l20 20l328 -327l-326 -328l-20 20l307 308z" />
<glyph unicode="&#x205f;" horiz-adv-x="459" />
<glyph unicode="&#x20ac;" horiz-adv-x="1249" d="M47 557l8 29h135q-6 56 -6 110q0 37 4 107h-141l8 28h138q14 119 53.5 221t102.5 182.5t157.5 126.5t208.5 46q153 0 254 -109q57 -59 65 -63q4 -2 10 -2q21 0 25 36.5t2 131.5v8h29l16 -461h-29q-32 200 -127.5 315t-244.5 115q-73 0 -132 -30t-97.5 -80t-66 -122 t-41.5 -148.5t-20 -166.5h547l-8 -28h-541q-2 -35 -2 -107q0 -73 2 -110h488l-8 -29h-478q8 -115 30 -208.5t62.5 -171t106.5 -120.5t154 -43q149 0 244.5 115t127.5 315h29l-16 -460h-29q2 133 -7 158q-7 18 -20 18q-12 0 -52 -43l-23 -23q-100 -108 -254 -108 q-113 0 -206.5 46.5t-156 127t-101.5 181t-54 216.5h-146z" />
<glyph unicode="&#x2122;" horiz-adv-x="909" d="M61 1278l9 115h284l6 -117h-14q-3 55 -19.5 76.5t-56.5 21.5h-34v-323h36v-19h-122v19h36v323h-32q-39 1 -56 -20.5t-20 -75.5h-17zM369 1032v12l4 7q23 0 36 18.5t21 60.5l43 263h8l131 -295l136 295h8l55 -342h37v-19h-123v19h35l-39 247l-127 -276l-121 276l-27 -168 q-7 -47 0 -64t33 -15v-19h-110z" />
<glyph unicode="&#x25fc;" horiz-adv-x="901" d="M0 0v901h901v-901h-901z" />
</font>
</defs>
</svg>
