<?xml version="1.0" encoding="utf-8"?>
<!-- Generator: Adobe Illustrator 23.1.0, SVG Export Plug-In . SVG Version: 6.00 Build 0)  -->
<svg version="1.1" id="Layer_1" xmlns="http://www.w3.org/2000/svg" xmlns:xlink="http://www.w3.org/1999/xlink" x="0px" y="0px"
	 viewBox="0 0 691.33 199.6" style="enable-background:new 0 0 691.33 199.6;" xml:space="preserve">
<style type="text/css">
	.st0{fill:#7A9EA4;}
	.st1{fill:#FFFFFF;}
</style>
<g>
	<g>
		<path class="st1" d="M31.71,77.03V3.97H11.27c4.28,0.95,6.3,2.73,6.3,9.62v57.62c0,12-0.59,14.73-6.3,15.92H38
			C33.49,86.3,31.71,84.28,31.71,77.03z"/>
		<path class="st1" d="M47.27,3.97c13.66,0.71,15.92,11.52,15.92,18.06v10.45c0,5.82-3.21,16.51-15.56,17.23
			c25.9-0.48,29.94-15.56,29.94-22.81C77.56,20.48,74.83,4.44,47.27,3.97z"/>
		<path class="st1" d="M150.51,20.84v6.77c0,4.04-0.36,12.59-9.27,16.04c20.55-2.02,23.64-14.02,23.64-19.72
			c0-5.82-2.38-18.18-27.56-19.72C149.92,5.87,150.51,15.25,150.51,20.84z"/>
		<path class="st1" d="M168.69,82.62c-3.92,0-4.87-4.75-5.94-12.24c-1.19-8.2-3.68-21.62-22.69-23.52
			c6.65,3.56,6.89,11.05,8.32,19.01c1.19,13.31,4.16,21.98,14.49,21.98c7.01,0,11.88-4.16,11.17-12
			C173.91,80.83,171.06,82.62,168.69,82.62z"/>
		<path class="st1" d="M119.15,77.51V3.97H98.71c4.16,0.95,6.18,2.73,6.18,9.62v58.09c0,11.64-0.48,14.26-6.18,15.44h26.73
			C121.17,86.42,119.15,84.4,119.15,77.51z"/>
		<path class="st1" d="M242.11,55.17V36.52c-0.95,7.37-3.56,8.91-13.66,9.15C238.54,46.14,241.16,47.81,242.11,55.17z"/>
		<path class="st1" d="M199.93,12.64V71.8c0,9.98-0.12,14.14-6.3,15.33h20.55V3.97h-20.55C197.91,4.92,199.93,6.58,199.93,12.64z"/>
		<path class="st1" d="M238.54,87.13h18.41V66.7C255.06,81.66,251.37,86.77,238.54,87.13z"/>
		<path class="st1" d="M256.84,24.52V3.97h-18.3C251.37,4.32,255.06,9.43,256.84,24.52z"/>
		<path class="st1" d="M336.91,81.78c2.49-0.95,5.35-1.07,10.57,4.87V63.37C346.89,70.02,342.97,78.81,336.91,81.78z"/>
		<path class="st1" d="M336.2,9.55c6.65,2.61,10.69,11.88,11.29,18.65V4.92C344.04,11.81,340.12,10.62,336.2,9.55z"/>
		<path class="st1" d="M321.94,3.25c-27.21,0-44.19,17.58-44.19,42.29c0,21.27,17.46,42.29,44.08,42.29
			c-16.99,0-28.28-16.87-28.28-30.65v-23.4C293.55,16.09,304.72,3.37,321.94,3.25z"/>
		<path class="st1" d="M397.03,3.97H370.3c4.51,0.95,6.18,2.85,6.18,9.98v58.09c0,11.17-0.48,13.9-6.18,15.09h26.73
			c-4.4-0.83-6.3-2.85-6.3-9.86V19.06C390.73,7.77,391.56,5.27,397.03,3.97z"/>
		<path class="st1" d="M458.69,3.25c-23.64,0.12-40.51,16.75-40.51,42.41c0,25.42,18.53,42.18,40.51,42.29
			c-13.31-0.12-24.35-12-24.35-31.84V34.98C434.33,15.25,443.72,3.37,458.69,3.25z"/>
		<path class="st1" d="M462.61,3.25c13.31,0.12,24.47,11.88,24.47,31.72v21.15c0,19.84-9.74,31.72-24.71,31.84
			c23.52-0.12,40.99-16.87,40.99-42.53C503.36,20.01,484.35,3.37,462.61,3.25z"/>
		<path class="st1" d="M593.65,21.43c0.24-12.12,3.33-15.56,10.34-17.46h-20.67C590.32,5.87,593.17,9.31,593.65,21.43z"/>
		<path class="st1" d="M676.22,28.2V4.92c-4.04,6.77-8.91,5.94-13.66,4.63C671.59,12.64,675.74,22.62,676.22,28.2z"/>
		<path class="st1" d="M650.32,37.71c-6.18-1.9-12.59-6.42-16.63-15.68c-2.14-11.05,4.63-18.18,14.85-18.65
			c-16.39,0.12-26.26,9.5-26.49,23.17c-0.12,15.21,13.19,20.91,28.39,27.09c15.33,6.89,18.77,12.24,18.65,19.96
			c0,5.82-5.46,13.66-16.51,14.26c15.8-0.36,25.78-9.39,27.33-19.6C681.92,50.06,663.39,43.29,650.32,37.71z"/>
		<path class="st1" d="M622.76,63.37v22.57c4.04-6.89,9.15-5.58,14.14-4.51C628.22,79.53,623.35,69.43,622.76,63.37z"/>
		<path class="st1" d="M568.78,84.59c-14.1,0-22.33-7.72-23.47-21.85c-0.01-0.35-0.02-0.69-0.02-1.04V13.95
			c0-7.13,2.02-9.03,6.3-9.98h-26.73c4.28,0.95,6.3,2.85,6.3,9.98v37.66c0,16.91,7.79,30.51,22.05,34.58
			c3.41,1.43,7.24,2.15,11.33,2.15c19.84,0,29.95-12.1,29.82-30.07h-0.15C594.2,74.61,584.75,84.59,568.78,84.59z"/>
	</g>
	<path class="st1" d="M643.95,135.3H47.38c-0.53,0-0.97-0.43-0.97-0.97s0.43-0.97,0.97-0.97h596.57c0.53,0,0.97,0.43,0.97,0.97
		S644.48,135.3,643.95,135.3z"/>
	<g>
		<g>
			<path class="st1" d="M148.34,190.33l-0.08,2.01c-1.18,1.29-2.67,2.28-4.46,2.97c-1.79,0.69-3.71,1.04-5.77,1.04
				c-1.93,0-3.76-0.32-5.5-0.95c-1.74-0.63-3.25-1.53-4.55-2.7c-1.3-1.17-2.33-2.58-3.11-4.22c-0.77-1.65-1.16-3.5-1.16-5.56
				c0-2.03,0.39-3.88,1.16-5.54c0.77-1.66,1.81-3.07,3.11-4.24c1.3-1.17,2.82-2.07,4.55-2.7c1.74-0.63,3.57-0.95,5.5-0.95
				c0.95,0,1.9,0.08,2.85,0.23c0.95,0.15,1.87,0.39,2.76,0.69s1.72,0.7,2.49,1.18c0.77,0.48,1.45,1.02,2.04,1.64l0.15,3.16
				l-0.23,0.04c-0.9-1.95-2.22-3.41-3.95-4.36c-1.74-0.95-3.77-1.43-6.11-1.43c-1.49,0-2.89,0.29-4.2,0.87
				c-1.31,0.58-2.46,1.39-3.45,2.45c-0.99,1.05-1.77,2.34-2.35,3.86c-0.58,1.52-0.87,3.22-0.87,5.09c0,1.88,0.29,3.57,0.87,5.07
				c0.58,1.5,1.36,2.79,2.35,3.86c0.99,1.07,2.14,1.89,3.45,2.47c1.31,0.58,2.71,0.87,4.2,0.87c2.42,0,4.4-0.4,5.96-1.2
				c1.56-0.8,2.94-2.04,4.15-3.74L148.34,190.33z"/>
			<path class="st1" d="M186.65,192.57c-0.05,0.1-0.15,0.3-0.29,0.6c-0.14,0.3-0.3,0.6-0.46,0.93c-0.17,0.32-0.32,0.62-0.44,0.91
				c-0.13,0.28-0.19,0.48-0.19,0.58H171.1c-0.15,0-0.35,0-0.6,0c-0.24,0-0.5,0.01-0.77,0.02c-0.27,0.01-0.52,0.03-0.75,0.06
				s-0.42,0.05-0.58,0.08l-0.04-0.15c0.26-0.13,0.51-0.3,0.77-0.52c0.26-0.22,0.4-0.6,0.42-1.14c0.03-0.62,0.04-1.26,0.06-1.93
				c0.01-0.67,0.02-1.42,0.02-2.26c0-0.84-0.01-1.8-0.02-2.89c-0.01-1.09-0.02-2.4-0.02-3.92c0-1.49,0.01-2.79,0.02-3.9
				c0.01-1.1,0.02-2.08,0.02-2.93c0-0.85-0.01-1.61-0.02-2.28c-0.01-0.67-0.03-1.31-0.06-1.93c-0.03-0.54-0.17-0.92-0.42-1.14
				c-0.26-0.22-0.51-0.38-0.77-0.48l0.04-0.19c0.15,0.05,0.35,0.08,0.58,0.1c0.23,0.01,0.48,0.03,0.75,0.06
				c0.27,0.03,0.53,0.04,0.77,0.04c0.24,0,0.44,0,0.6,0h12.85c0,0.13,0.04,0.33,0.12,0.6c0.08,0.27,0.17,0.56,0.27,0.87
				c0.1,0.31,0.21,0.61,0.31,0.91c0.1,0.3,0.18,0.51,0.23,0.64l-0.19,0.19c-0.72-0.62-1.53-1.1-2.43-1.45
				c-0.9-0.35-1.86-0.6-2.87-0.75c-1.02-0.15-2.09-0.23-3.22-0.23c-1.13,0-2.29,0.04-3.47,0.12c-0.03,0.77-0.05,1.52-0.06,2.26
				c-0.01,0.73-0.02,1.52-0.02,2.35c0,0.84,0,1.77,0,2.8c0,1.03,0,2.21,0,3.55c2.16-0.03,3.84-0.06,5.05-0.12
				c1.21-0.05,2.13-0.13,2.76-0.25c0.63-0.12,1.04-0.28,1.23-0.48c0.19-0.21,0.34-0.48,0.44-0.81l0.19,0.04
				c-0.08,0.36-0.13,0.69-0.15,1c-0.03,0.31-0.04,0.66-0.04,1.04c0,0.41,0.01,0.76,0.04,1.04c0.03,0.28,0.08,0.6,0.15,0.96
				l-0.19,0.12c-0.13-0.33-0.29-0.61-0.48-0.83c-0.19-0.22-0.6-0.39-1.23-0.52c-0.63-0.13-1.55-0.21-2.76-0.25
				c-1.21-0.04-2.88-0.06-5.01-0.06v0.04c0,1.49,0,2.82,0,3.97c0,1.16,0,2.2,0,3.12c0,0.93,0.01,1.76,0.02,2.49
				c0.01,0.73,0.03,1.41,0.06,2.03c1.31,0.05,2.63,0.06,3.95,0.04c1.32-0.03,2.58-0.12,3.78-0.27c1.2-0.15,2.31-0.39,3.34-0.71
				c1.03-0.32,1.93-0.76,2.7-1.33L186.65,192.57z"/>
			<path class="st1" d="M222.84,192.57c-0.05,0.1-0.15,0.3-0.29,0.6c-0.14,0.3-0.29,0.6-0.44,0.93c-0.15,0.32-0.3,0.62-0.42,0.91
				c-0.13,0.28-0.19,0.48-0.19,0.58h-13.5c-0.15,0-0.35,0-0.6,0c-0.24,0-0.5,0.01-0.77,0.02c-0.27,0.01-0.52,0.03-0.75,0.06
				c-0.23,0.03-0.42,0.05-0.58,0.08l-0.04-0.15c0.26-0.13,0.51-0.3,0.77-0.52c0.26-0.22,0.4-0.6,0.42-1.14
				c0.03-0.62,0.04-1.26,0.06-1.93c0.01-0.67,0.02-1.42,0.02-2.26c0-0.84-0.01-1.8-0.02-2.89c-0.01-1.09-0.02-2.4-0.02-3.92
				c0-1.49,0.01-2.79,0.02-3.9c0.01-1.1,0.02-2.08,0.02-2.93c0-0.85-0.01-1.61-0.02-2.28c-0.01-0.67-0.03-1.31-0.06-1.93
				c-0.03-0.54-0.17-0.92-0.42-1.14c-0.26-0.22-0.51-0.38-0.77-0.48l0.04-0.19c0.15,0.05,0.35,0.08,0.6,0.1
				c0.24,0.01,0.5,0.03,0.77,0.06c0.27,0.03,0.53,0.04,0.77,0.04c0.24,0,0.44,0,0.6,0c0.15,0,0.35,0,0.6,0
				c0.24,0,0.5-0.01,0.77-0.04c0.27-0.03,0.53-0.05,0.77-0.06c0.24-0.01,0.43-0.04,0.56-0.1l0.04,0.19
				c-0.26,0.1-0.51,0.26-0.77,0.48c-0.26,0.22-0.4,0.6-0.42,1.14c-0.03,0.62-0.05,1.26-0.06,1.93c-0.01,0.67-0.02,1.43-0.02,2.28
				c0,0.85,0,1.83,0,2.93c0,1.11,0,2.41,0,3.9c0,1.52,0,2.86,0,4.03c0,1.17,0,2.23,0,3.16s0.01,1.77,0.02,2.51
				c0.01,0.73,0.03,1.41,0.06,2.03c1.31,0.05,2.59,0.06,3.84,0.04c1.25-0.03,2.43-0.12,3.55-0.27c1.12-0.15,2.15-0.39,3.11-0.71
				c0.95-0.32,1.81-0.76,2.58-1.33L222.84,192.57z"/>
			<path class="st1" d="M259.06,192.57c-0.05,0.1-0.15,0.3-0.29,0.6c-0.14,0.3-0.3,0.6-0.46,0.93c-0.17,0.32-0.32,0.62-0.44,0.91
				c-0.13,0.28-0.19,0.48-0.19,0.58h-14.16c-0.15,0-0.35,0-0.6,0c-0.24,0-0.5,0.01-0.77,0.02c-0.27,0.01-0.52,0.03-0.75,0.06
				c-0.23,0.03-0.42,0.05-0.58,0.08l-0.04-0.15c0.26-0.13,0.51-0.3,0.77-0.52c0.26-0.22,0.4-0.6,0.42-1.14
				c0.03-0.62,0.04-1.26,0.06-1.93c0.01-0.67,0.02-1.42,0.02-2.26c0-0.84-0.01-1.8-0.02-2.89c-0.01-1.09-0.02-2.4-0.02-3.92
				c0-1.49,0.01-2.79,0.02-3.9c0.01-1.1,0.02-2.08,0.02-2.93c0-0.85-0.01-1.61-0.02-2.28c-0.01-0.67-0.03-1.31-0.06-1.93
				c-0.03-0.54-0.17-0.92-0.42-1.14c-0.26-0.22-0.51-0.38-0.77-0.48l0.04-0.19c0.15,0.05,0.35,0.08,0.58,0.1
				c0.23,0.01,0.48,0.03,0.75,0.06c0.27,0.03,0.53,0.04,0.77,0.04c0.24,0,0.44,0,0.6,0h12.85c0,0.13,0.04,0.33,0.12,0.6
				c0.08,0.27,0.17,0.56,0.27,0.87c0.1,0.31,0.21,0.61,0.31,0.91c0.1,0.3,0.18,0.51,0.23,0.64l-0.19,0.19
				c-0.72-0.62-1.53-1.1-2.43-1.45c-0.9-0.35-1.86-0.6-2.87-0.75c-1.02-0.15-2.09-0.23-3.22-0.23c-1.13,0-2.29,0.04-3.47,0.12
				c-0.03,0.77-0.05,1.52-0.06,2.26c-0.01,0.73-0.02,1.52-0.02,2.35c0,0.84,0,1.77,0,2.8c0,1.03,0,2.21,0,3.55
				c2.16-0.03,3.84-0.06,5.05-0.12c1.21-0.05,2.13-0.13,2.76-0.25c0.63-0.12,1.04-0.28,1.23-0.48c0.19-0.21,0.34-0.48,0.44-0.81
				l0.19,0.04c-0.08,0.36-0.13,0.69-0.15,1c-0.03,0.31-0.04,0.66-0.04,1.04c0,0.41,0.01,0.76,0.04,1.04
				c0.03,0.28,0.08,0.6,0.15,0.96l-0.19,0.12c-0.13-0.33-0.29-0.61-0.48-0.83c-0.19-0.22-0.6-0.39-1.23-0.52
				c-0.63-0.13-1.55-0.21-2.76-0.25c-1.21-0.04-2.88-0.06-5.01-0.06v0.04c0,1.49,0,2.82,0,3.97c0,1.16,0,2.2,0,3.12
				c0,0.93,0.01,1.76,0.02,2.49c0.01,0.73,0.03,1.41,0.06,2.03c1.31,0.05,2.63,0.06,3.95,0.04c1.32-0.03,2.58-0.12,3.78-0.27
				c1.2-0.15,2.31-0.39,3.34-0.71c1.03-0.32,1.93-0.76,2.7-1.33L259.06,192.57z"/>
			<path class="st1" d="M295.55,188.71c0,1.29-0.36,2.38-1.08,3.28c-0.72,0.9-1.64,1.63-2.76,2.18c-1.12,0.55-2.35,0.95-3.68,1.2
				c-1.34,0.24-2.62,0.37-3.86,0.37c-0.49,0-1.05,0-1.68,0c-0.63,0-1.25-0.01-1.87-0.02c-0.62-0.01-1.19-0.03-1.72-0.06
				c-0.53-0.03-0.95-0.05-1.25-0.08v-0.15c0.31-0.05,0.57-0.18,0.79-0.39c0.22-0.21,0.34-0.58,0.37-1.12
				c0.03-0.62,0.04-1.26,0.06-1.93c0.01-0.67,0.02-1.42,0.02-2.26c0-0.84,0-1.8,0-2.89c0-1.09,0-2.4,0-3.92c0-1.49,0-2.79,0-3.9
				c0-1.1,0-2.08,0-2.93c0-0.85-0.01-1.61-0.02-2.28c-0.01-0.67-0.03-1.31-0.06-1.93c-0.03-0.54-0.15-0.91-0.37-1.12
				c-0.22-0.21-0.48-0.32-0.79-0.35v-0.15c0.15-0.03,0.44-0.05,0.85-0.08c0.41-0.03,0.85-0.05,1.31-0.06
				c0.46-0.01,0.91-0.02,1.33-0.02c0.42,0,0.71,0,0.87,0c3.37,0,5.92,0.54,7.66,1.62c1.74,1.08,2.6,2.53,2.6,4.36
				c0,1.08-0.24,1.99-0.73,2.72c-0.49,0.73-1.08,1.33-1.77,1.77c-0.69,0.45-1.43,0.78-2.2,0.98c-0.77,0.21-1.44,0.32-2.01,0.35
				c1.29,0,2.53,0.12,3.72,0.35c1.2,0.23,2.26,0.62,3.18,1.16c0.93,0.54,1.67,1.24,2.24,2.1
				C295.27,186.39,295.55,187.45,295.55,188.71z M289.19,176.1c0-1.18-0.24-2.1-0.73-2.76c-0.49-0.66-1.1-1.15-1.83-1.49
				c-0.73-0.33-1.52-0.54-2.35-0.62c-0.84-0.08-1.6-0.12-2.3-0.12c-0.05,1.16-0.08,2.56-0.08,4.2c0,1.65,0,3.74,0,6.29
				c0.8,0.05,1.63,0.01,2.49-0.12c0.86-0.13,1.65-0.39,2.37-0.79c0.72-0.4,1.3-0.96,1.76-1.7
				C288.96,178.28,289.19,177.3,289.19,176.1z M292.39,188.71c0-2.31-0.87-3.99-2.62-5.01c-1.75-1.03-4.37-1.35-7.87-0.96v0.62
				c0,1.52,0,2.84,0,3.97c0,1.13,0,2.15,0,3.05c0,0.9,0.01,1.7,0.02,2.41c0.01,0.71,0.03,1.37,0.06,1.99
				c1.36,0.08,2.67,0.04,3.92-0.12c1.25-0.15,2.35-0.47,3.32-0.95c0.96-0.47,1.74-1.12,2.31-1.93
				C292.1,190.97,292.39,189.94,292.39,188.71z"/>
			<path class="st1" d="M333.74,195.31c-0.36,0.28-0.75,0.46-1.18,0.52c-0.42,0.06-0.86,0.1-1.29,0.1c-0.98,0-1.8-0.28-2.47-0.83
				c-0.67-0.55-1.25-1.25-1.74-2.08c-0.49-0.84-0.91-1.75-1.27-2.74c-0.36-0.99-0.73-1.93-1.12-2.84c-0.39-0.9-0.82-1.69-1.29-2.37
				c-0.48-0.68-1.06-1.12-1.76-1.33c-0.18-0.03-0.35-0.04-0.52-0.04c-0.17,0-0.34,0-0.52,0c-0.21,0-0.39,0-0.56,0
				c-0.17,0-0.35,0.01-0.56,0.04c0,1.31,0,2.48,0,3.49c0,1.02,0.01,1.92,0.02,2.7c0.01,0.79,0.02,1.5,0.04,2.14
				c0.01,0.64,0.03,1.26,0.06,1.85c0.03,0.54,0.15,0.92,0.39,1.14c0.23,0.22,0.49,0.39,0.77,0.52l-0.04,0.15
				c-0.13-0.03-0.32-0.05-0.56-0.08c-0.24-0.03-0.5-0.05-0.77-0.06c-0.27-0.01-0.53-0.02-0.77-0.02c-0.24,0-0.44,0-0.6,0
				c-0.15,0-0.35,0-0.6,0c-0.24,0-0.5,0.01-0.77,0.02c-0.27,0.01-0.53,0.03-0.79,0.06c-0.26,0.03-0.45,0.05-0.58,0.08l-0.08-0.15
				c0.28-0.13,0.55-0.3,0.81-0.52c0.26-0.22,0.4-0.6,0.42-1.14c0.03-0.62,0.04-1.26,0.06-1.93c0.01-0.67,0.02-1.42,0.02-2.26
				c0-0.84,0-1.8,0-2.89c0-1.09,0-2.4,0-3.92c0-1.49,0-2.79,0-3.9c0-1.1,0-2.08,0-2.93c0-0.85-0.01-1.61-0.02-2.28
				c-0.01-0.67-0.03-1.31-0.06-1.93c-0.03-0.54-0.15-0.91-0.39-1.12c-0.23-0.21-0.49-0.32-0.77-0.35v-0.15
				c0.13-0.03,0.45-0.05,0.96-0.08c0.51-0.03,1.07-0.05,1.68-0.06c0.6-0.01,1.18-0.02,1.72-0.02s0.89,0,1.04,0
				c1.75,0,3.26,0.17,4.53,0.52c1.27,0.35,2.32,0.81,3.14,1.39s1.43,1.25,1.81,2.03c0.39,0.77,0.58,1.59,0.58,2.47
				c0,1.05-0.21,1.97-0.62,2.76c-0.41,0.78-0.96,1.47-1.66,2.04c-0.69,0.58-1.51,1.04-2.45,1.39c-0.94,0.35-1.94,0.6-2.99,0.75
				c0.8,0.23,1.53,0.7,2.2,1.41c0.67,0.71,1.31,1.52,1.91,2.45c0.6,0.93,1.18,1.88,1.74,2.87c0.55,0.99,1.09,1.88,1.62,2.66
				c0.53,0.78,1.05,1.4,1.56,1.85c0.51,0.45,1.05,0.59,1.62,0.41L333.74,195.31z M327.57,176.52c0-1.24-0.26-2.21-0.77-2.93
				c-0.51-0.72-1.17-1.26-1.97-1.62c-0.8-0.36-1.66-0.59-2.58-0.69c-0.93-0.1-1.81-0.15-2.66-0.15c-0.05,1.16-0.08,2.71-0.1,4.67
				c-0.01,1.95-0.02,4.2-0.02,6.75c0.85,0.08,1.74,0.06,2.68-0.04c0.94-0.1,1.81-0.37,2.62-0.81c0.81-0.44,1.48-1.07,2.01-1.89
				C327.31,178.98,327.57,177.88,327.57,176.52z"/>
			<path class="st1" d="M375.17,195.73c-0.18-0.03-0.4-0.05-0.67-0.08s-0.55-0.05-0.83-0.06c-0.28-0.01-0.56-0.02-0.83-0.02
				c-0.27,0-0.51,0-0.71,0c-0.18,0-0.42,0-0.73,0c-0.31,0-0.63,0.01-0.96,0.02c-0.33,0.01-0.65,0.03-0.95,0.06
				c-0.3,0.03-0.52,0.05-0.68,0.08l-0.04-0.15c0.13-0.08,0.28-0.15,0.44-0.23c0.17-0.08,0.31-0.17,0.42-0.29
				c0.12-0.12,0.19-0.26,0.23-0.44c0.04-0.18,0.01-0.41-0.1-0.69c-0.36-0.87-0.76-1.79-1.2-2.74c-0.44-0.95-1.02-2.16-1.74-3.63
				H354.3c-0.67,1.47-1.21,2.67-1.62,3.61c-0.41,0.94-0.8,1.86-1.16,2.76c-0.13,0.28-0.17,0.51-0.12,0.69
				c0.05,0.18,0.14,0.33,0.27,0.44c0.13,0.12,0.28,0.21,0.44,0.29c0.17,0.08,0.31,0.15,0.44,0.23l-0.04,0.15
				c-0.31-0.05-0.66-0.09-1.04-0.12c-0.39-0.03-0.77-0.04-1.16-0.04c-0.36,0-0.73,0.01-1.12,0.04c-0.39,0.03-0.76,0.06-1.12,0.12
				l-0.08-0.15c0.41-0.13,0.79-0.35,1.14-0.66c0.35-0.31,0.66-0.76,0.95-1.35c0.33-0.62,0.66-1.23,0.96-1.83
				c0.31-0.6,0.66-1.29,1.04-2.06s0.82-1.66,1.31-2.68c0.49-1.02,1.08-2.26,1.77-3.72c1.41-2.96,2.66-5.61,3.72-7.95
				c1.07-2.34,1.87-4.13,2.41-5.36h0.54c0.26,0.62,0.59,1.38,1,2.28c0.41,0.9,0.88,1.92,1.41,3.07c0.53,1.14,1.1,2.39,1.74,3.74
				c0.63,1.35,1.29,2.76,1.99,4.22c0.69,1.47,1.29,2.69,1.77,3.68c0.49,0.99,0.91,1.85,1.27,2.58s0.68,1.39,0.96,1.97
				c0.28,0.58,0.59,1.18,0.93,1.79c0.28,0.57,0.64,1.05,1.06,1.47c0.42,0.41,0.83,0.68,1.22,0.81L375.17,195.73z M366.34,186.51
				c-0.44-0.95-0.94-2.03-1.5-3.24c-0.67-1.44-1.22-2.62-1.64-3.53c-0.43-0.91-0.79-1.7-1.08-2.35c-0.3-0.66-0.56-1.24-0.79-1.76
				c-0.23-0.51-0.5-1.09-0.81-1.74c-0.31,0.64-0.59,1.27-0.85,1.87c-0.26,0.6-0.55,1.26-0.87,1.97c-0.32,0.71-0.69,1.5-1.1,2.39
				c-0.41,0.89-0.9,1.94-1.47,3.14c-0.28,0.62-0.55,1.19-0.81,1.72c-0.26,0.53-0.49,1.04-0.69,1.52H366.34z"/>
			<path class="st1" d="M411.71,173.47c-1.31-0.95-2.75-1.57-4.3-1.87c-1.56-0.3-3.26-0.43-5.11-0.41v11.73c0,1.52,0,2.82,0,3.92
				c0,1.09,0,2.06,0,2.89c0,0.84,0.01,1.59,0.02,2.26c0.01,0.67,0.03,1.31,0.06,1.93c0.03,0.54,0.17,0.92,0.43,1.14
				c0.26,0.22,0.53,0.39,0.81,0.52l-0.08,0.15c-0.13-0.03-0.32-0.05-0.56-0.08c-0.24-0.03-0.5-0.05-0.77-0.06
				c-0.27-0.01-0.53-0.02-0.77-0.02s-0.44,0-0.6,0c-0.15,0-0.36,0-0.62,0c-0.26,0-0.52,0.01-0.79,0.02
				c-0.27,0.01-0.53,0.03-0.77,0.06c-0.24,0.03-0.43,0.05-0.56,0.08l-0.04-0.15c0.28-0.13,0.55-0.3,0.79-0.52
				c0.24-0.22,0.39-0.6,0.44-1.14c0.03-0.62,0.04-1.26,0.04-1.93c0-0.67,0-1.42,0-2.26c0-0.84,0-1.8,0-2.89c0-1.09,0-2.4,0-3.92
				V171.2c-1.83-0.03-3.52,0.12-5.09,0.44c-1.57,0.32-3.01,0.93-4.32,1.83l-0.19-0.15c0.05-0.13,0.13-0.34,0.23-0.64
				c0.1-0.3,0.21-0.61,0.31-0.95c0.1-0.33,0.19-0.64,0.27-0.93c0.08-0.28,0.12-0.46,0.12-0.54h20.33c0,0.08,0.04,0.26,0.13,0.54
				c0.09,0.28,0.18,0.59,0.27,0.91c0.09,0.32,0.19,0.63,0.29,0.93c0.1,0.3,0.18,0.51,0.23,0.64L411.71,173.47z"/>
			<path class="st1" d="M435.7,195.73c-0.13-0.03-0.32-0.05-0.56-0.08c-0.24-0.03-0.5-0.05-0.77-0.06
				c-0.27-0.01-0.53-0.02-0.77-0.02c-0.24,0-0.44,0-0.6,0c-0.15,0-0.35,0-0.6,0s-0.5,0.01-0.77,0.02c-0.27,0.01-0.53,0.03-0.77,0.06
				c-0.24,0.03-0.44,0.05-0.6,0.08l-0.04-0.15c0.26-0.13,0.51-0.3,0.77-0.52c0.26-0.22,0.4-0.6,0.42-1.14
				c0.03-0.62,0.05-1.26,0.06-1.93c0.01-0.67,0.02-1.42,0.02-2.26c0-0.84-0.01-1.8-0.02-2.89c-0.01-1.09-0.02-2.4-0.02-3.92
				c0-1.49,0.01-2.79,0.02-3.9c0.01-1.1,0.02-2.08,0.02-2.93c0-0.85-0.01-1.61-0.02-2.28c-0.01-0.67-0.03-1.31-0.06-1.93
				c-0.03-0.54-0.17-0.92-0.42-1.14c-0.26-0.22-0.51-0.38-0.77-0.48l0.04-0.19c0.15,0.05,0.35,0.08,0.6,0.1
				c0.24,0.01,0.5,0.03,0.77,0.06c0.27,0.03,0.53,0.04,0.77,0.04s0.44,0,0.6,0c0.15,0,0.35,0,0.6,0c0.24,0,0.5-0.01,0.77-0.04
				c0.27-0.03,0.53-0.05,0.77-0.06c0.24-0.01,0.43-0.04,0.56-0.1l0.04,0.19c-0.26,0.1-0.52,0.26-0.77,0.48
				c-0.26,0.22-0.4,0.6-0.42,1.14c-0.03,0.62-0.05,1.26-0.06,1.93c-0.01,0.67-0.02,1.43-0.02,2.28c0,0.85,0,1.83,0,2.93
				c0,1.11,0,2.41,0,3.9c0,1.52,0,2.82,0,3.92c0,1.09,0,2.06,0,2.89c0,0.84,0.01,1.59,0.02,2.26c0.01,0.67,0.03,1.31,0.06,1.93
				c0.03,0.54,0.17,0.92,0.42,1.14c0.26,0.22,0.51,0.39,0.77,0.52L435.7,195.73z"/>
			<path class="st1" d="M484.31,182.92c0,2.06-0.37,3.91-1.12,5.56c-0.75,1.65-1.75,3.05-3.01,4.22c-1.26,1.17-2.73,2.07-4.42,2.7
				c-1.68,0.63-3.45,0.95-5.3,0.95c-1.88,0-3.65-0.32-5.32-0.95c-1.67-0.63-3.14-1.53-4.42-2.7c-1.27-1.17-2.28-2.58-3.03-4.22
				c-0.75-1.65-1.12-3.5-1.12-5.56c0-2.03,0.37-3.88,1.12-5.54c0.75-1.66,1.76-3.07,3.03-4.24c1.27-1.17,2.75-2.07,4.42-2.7
				c1.67-0.63,3.45-0.95,5.32-0.95c1.85,0,3.62,0.32,5.3,0.95c1.68,0.63,3.16,1.53,4.42,2.7c1.26,1.17,2.26,2.58,3.01,4.24
				C483.93,179.05,484.31,180.89,484.31,182.92z M481.03,182.92c0-1.9-0.28-3.61-0.85-5.13c-0.57-1.52-1.33-2.8-2.29-3.86
				c-0.96-1.05-2.08-1.86-3.36-2.43c-1.27-0.57-2.63-0.85-4.07-0.85c-1.44,0-2.8,0.28-4.09,0.85c-1.29,0.57-2.42,1.38-3.39,2.43
				c-0.98,1.05-1.75,2.34-2.31,3.86c-0.57,1.52-0.85,3.23-0.85,5.13c0,1.9,0.28,3.61,0.85,5.13c0.57,1.52,1.34,2.8,2.31,3.86
				c0.98,1.05,2.11,1.86,3.39,2.43c1.29,0.57,2.65,0.85,4.09,0.85c1.44,0,2.8-0.28,4.07-0.85c1.27-0.57,2.39-1.38,3.36-2.43
				c0.96-1.05,1.73-2.34,2.29-3.86C480.74,186.54,481.03,184.83,481.03,182.92z"/>
			<path class="st1" d="M530.37,170.27c-0.26,0.1-0.51,0.26-0.75,0.48c-0.24,0.22-0.38,0.6-0.4,1.14c-0.03,0.62-0.05,1.26-0.08,1.93
				c-0.03,0.67-0.05,1.43-0.08,2.28c-0.03,0.85-0.05,1.83-0.08,2.93c-0.03,1.11-0.04,2.41-0.04,3.9c0,3.04,0,5.72,0,8.04
				c0,2.33,0.03,4.12,0.08,5.38h-0.69c-2.08-2.34-3.83-4.31-5.23-5.92c-1.4-1.61-2.53-2.9-3.38-3.88c-1.03-1.16-1.83-2.07-2.39-2.74
				c-0.59-0.67-1.35-1.52-2.28-2.55c-0.8-0.9-1.81-2.03-3.03-3.39c-1.22-1.36-2.69-3.05-4.42-5.05c0,0.64,0,1.25,0,1.83
				c0,0.58,0.01,1.24,0.02,1.99c0.01,0.75,0.03,1.61,0.04,2.6c0.01,0.99,0.02,2.22,0.02,3.68c0,1.52,0.01,2.82,0.04,3.92
				c0.03,1.09,0.06,2.06,0.1,2.89c0.04,0.84,0.07,1.59,0.1,2.26c0.03,0.67,0.05,1.31,0.08,1.93c0.03,0.54,0.17,0.92,0.42,1.14
				c0.26,0.22,0.51,0.39,0.77,0.52l-0.04,0.15c-0.26-0.05-0.57-0.09-0.95-0.12c-0.37-0.03-0.7-0.04-0.98-0.04
				c-0.31,0-0.64,0.01-0.98,0.04c-0.35,0.03-0.66,0.06-0.95,0.12l-0.04-0.15c0.28-0.13,0.54-0.3,0.77-0.52
				c0.23-0.22,0.37-0.6,0.43-1.14c0.02-0.62,0.05-1.26,0.08-1.93c0.03-0.67,0.05-1.42,0.08-2.26c0.03-0.84,0.04-1.8,0.06-2.89
				c0.01-1.09,0.02-2.4,0.02-3.92c0-1.49,0-2.78,0-3.86c0-1.08,0-2.03,0-2.85c0-0.82-0.01-1.56-0.02-2.2
				c-0.01-0.64-0.03-1.27-0.06-1.89c-0.03-0.57-0.19-0.99-0.5-1.27c-0.31-0.28-0.61-0.47-0.89-0.58l0.04-0.19
				c0.28,0.08,0.62,0.13,1.02,0.15c0.4,0.03,0.75,0.04,1.06,0.04h2.01c1.54,1.77,2.93,3.37,4.15,4.78c1.22,1.41,2.27,2.61,3.14,3.59
				c1.03,1.16,1.92,2.16,2.66,3.01c0.75,0.87,1.58,1.83,2.51,2.85c0.8,0.9,1.73,1.94,2.8,3.11c1.07,1.17,2.22,2.44,3.45,3.8
				c-0.03-0.54-0.05-1.07-0.06-1.58c-0.01-0.51-0.03-1.09-0.04-1.72c-0.01-0.63-0.03-1.36-0.04-2.18c-0.01-0.82-0.02-1.83-0.02-3.01
				c0-1.49-0.01-2.79-0.04-3.9c-0.03-1.1-0.05-2.08-0.08-2.93c-0.03-0.85-0.06-1.61-0.1-2.28c-0.04-0.67-0.07-1.31-0.1-1.93
				c-0.05-0.54-0.2-0.92-0.44-1.14c-0.24-0.22-0.5-0.38-0.75-0.48l0.04-0.19c0.28,0.08,0.6,0.13,0.96,0.15
				c0.36,0.03,0.69,0.04,1,0.04c0.28,0,0.6-0.01,0.96-0.04c0.36-0.03,0.68-0.08,0.96-0.15L530.37,170.27z"/>
			<path class="st1" d="M567.59,188.86c0,1.16-0.24,2.2-0.71,3.12c-0.48,0.93-1.12,1.71-1.93,2.35c-0.81,0.64-1.74,1.14-2.8,1.48
				c-1.05,0.35-2.16,0.52-3.32,0.52c-0.69,0-1.39-0.06-2.08-0.19c-0.69-0.13-1.36-0.31-2.01-0.54s-1.24-0.5-1.79-0.81
				c-0.55-0.31-1.02-0.64-1.41-1l-0.66-3.74l0.31-0.15c0.46,0.9,0.99,1.68,1.58,2.35c0.59,0.67,1.23,1.22,1.91,1.66
				c0.68,0.44,1.39,0.76,2.12,0.98s1.45,0.33,2.14,0.33c0.87,0,1.68-0.14,2.41-0.41c0.73-0.27,1.36-0.65,1.87-1.14
				c0.51-0.49,0.92-1.07,1.22-1.74c0.3-0.67,0.44-1.41,0.44-2.24c0-1.21-0.33-2.2-0.98-2.99c-0.66-0.78-1.49-1.45-2.49-2.01
				c-1-0.55-2.08-1.05-3.22-1.5c-1.14-0.45-2.22-0.96-3.22-1.54s-1.83-1.27-2.49-2.08c-0.66-0.81-0.98-1.86-0.98-3.14
				c0-1.13,0.21-2.13,0.62-3.01c0.41-0.87,0.97-1.6,1.68-2.18c0.71-0.58,1.54-1.02,2.49-1.31c0.95-0.29,1.97-0.44,3.05-0.44
				c1.47,0,2.71,0.17,3.74,0.52c1.03,0.35,1.89,0.84,2.58,1.48l0.35,3.2l-0.15,0.19c-0.8-1.59-1.78-2.7-2.95-3.32
				c-1.17-0.62-2.44-0.93-3.8-0.93c-0.72,0-1.4,0.1-2.03,0.31c-0.63,0.21-1.18,0.5-1.64,0.87c-0.46,0.37-0.82,0.84-1.08,1.39
				c-0.26,0.55-0.39,1.18-0.39,1.87c0,1.13,0.33,2.03,1,2.7c0.67,0.67,1.51,1.25,2.53,1.76c1.02,0.5,2.11,0.97,3.28,1.41
				s2.26,0.98,3.28,1.62c1.02,0.64,1.86,1.46,2.53,2.45C567.26,186.02,567.59,187.3,567.59,188.86z"/>
		</g>
	</g>
</g>
</svg>
