<?xml version="1.0" encoding="utf-8"?>
<!-- Generator: Adobe Illustrator 27.5.0, SVG Export Plug-In . SVG Version: 6.00 Build 0)  -->
<svg version="1.1" id="Layer_1" xmlns="http://www.w3.org/2000/svg" xmlns:xlink="http://www.w3.org/1999/xlink" x="0px" y="0px"
	 viewBox="0 0 342.56 345.84" style="enable-background:new 0 0 342.56 345.84;" xml:space="preserve">
<style type="text/css">
	.st0{fill:#444C4C;}
	.st1{fill:none;}
	.st2{fill:#CDAD72;}
	.st3{fill:#899096;}
	.st4{fill:#FFFFFF;}
</style>
<g>
	<path class="st2" d="M255.53,127.56c0,39.25-33.56,60.22-69.21,60.22h-31.76v54.83c0,21.87,1.8,32.96,18.88,32.96v1.5h-64.12v-1.5
		c17.08,0,18.87-11.09,18.87-32.96V101.79c0-22.17-1.8-32.96-18.87-32.96v-1.5h77.01C221.97,67.33,255.53,88.3,255.53,127.56z
		 M226.46,127.56c0-39.85-23.37-58.73-43.44-58.73h-9.59c-17.08,0-18.88,10.79-18.88,32.96v84.49h28.47
		C203.09,186.28,226.46,167.41,226.46,127.56z"/>
	<g>
		<path class="st2" d="M85.56,321.38c-0.2,0-0.39-0.05-0.57-0.16c-25.41-14.99-46.69-36.38-61.56-61.85
			C8.1,233.12,0,203.09,0,172.53c0-46.08,17.95-89.41,50.53-121.99C83.12,17.95,126.44,0,172.53,0c30.57,0,60.6,8.1,86.85,23.42
			c25.47,14.87,46.86,36.16,61.85,61.56c0.32,0.54,0.14,1.23-0.4,1.55c-0.54,0.32-1.23,0.14-1.55-0.4
			c-14.79-25.07-35.9-46.08-61.04-60.76c-25.9-15.12-55.54-23.11-85.7-23.11c-45.48,0-88.23,17.71-120.39,49.87
			C19.98,84.29,2.27,127.05,2.27,172.53c0,30.16,7.99,59.8,23.11,85.7c14.67,25.14,35.68,46.25,60.76,61.04
			c0.54,0.32,0.72,1.01,0.4,1.55C86.32,321.18,85.95,321.38,85.56,321.38z"/>
	</g>
	<g>
		<g>
			<path class="st3" d="M152.64,341.21l-0.07,0.29c-1.26,0.6-2.64,1.02-4.85,0.65c-4.14-0.7-7.13-3.83-6.51-8.2
				c0.61-4.39,4.37-6.68,8.52-6.11c1.26,0.19,2.76,0.85,3.84,1.39c0.95,0.47,1.36,0.63,1.67-0.71l0.1,0.02l-1.15,4.95l-0.1-0.02
				c0.3-1.28-0.52-3.2-1.53-4.16c-0.84-0.73-1.85-1.22-2.85-1.37c-3.05-0.42-5.95,2.38-6.51,6.28c-0.55,3.88,1.43,7.18,4.53,7.82
				C149.6,342.45,151.31,341.96,152.64,341.21z"/>
			<path class="st3" d="M181.18,342.48l-0.97,3.37l-9.76-0.42l0-0.1c1.15,0.05,1.3-0.69,1.36-2.16l0.41-9.46
				c0.06-1.47-0.03-2.22-1.17-2.27l0-0.1l9.12,0.39l0.56,2.81l-0.1,0c-0.53-1.33-1.62-2.75-3.63-2.84l-1.67-0.07
				c-1.15-0.05-1.28,0.69-1.36,2.16l-0.2,4.71l1.47,0.06c1.57,0.07,2.87-1.01,2.92-2.35l0.1,0l-0.22,5.05l-0.1,0
				c0.06-1.35-1.14-2.53-2.71-2.6l-1.47-0.06l-0.2,4.65c-0.04,1.47,0.03,2.22,1.17,2.27l2.29,0.1c2.03,0.09,3.41-1.85,4.05-3.13
				L181.18,342.48z"/>
			<path class="st3" d="M208.83,340.26l-0.39,3.49l-9.67,1.29l-0.01-0.1c1.14-0.15,1.16-0.89,0.97-2.34l-1.25-9.41
				c-0.2-1.46-0.41-2.18-1.55-2.03l-0.01-0.1l4.25-0.57l0.01,0.1c-1.14,0.15-1.14,0.9-0.97,2.36l1.25,9.41
				c0.21,1.46,0.41,2.16,1.55,2.01l2.28-0.3c2.02-0.27,3.03-2.42,3.44-3.79L208.83,340.26z"/>
			<path class="st3" d="M235.49,333.26l0.25,3.49l-9.31,2.97l-0.03-0.1c1.09-0.35,0.98-1.1,0.53-2.5l-2.88-9.02
				c-0.45-1.4-0.79-2.07-1.88-1.72l-0.03-0.1l8.69-2.78l1.5,2.44l-0.1,0.03c-0.96-1.07-2.47-2.02-4.38-1.41l-1.59,0.51
				c-1.09,0.35-0.96,1.09-0.53,2.5l1.44,4.49l1.4-0.45c1.5-0.48,2.34-1.93,1.93-3.22l0.1-0.03l1.54,4.82l-0.1,0.03
				c-0.41-1.29-1.94-1.98-3.44-1.5l-1.4,0.45l1.42,4.43c0.47,1.39,0.79,2.07,1.88,1.72l2.19-0.7c1.94-0.62,2.56-2.91,2.72-4.34
				L235.49,333.26z"/>
			<path class="st3" d="M260.85,321.3c1.19,2.24-0.32,4.21-2.25,5.24l-5.67,3.02l-0.05-0.09c1.01-0.54,0.75-1.25,0.08-2.55
				l-4.45-8.36c-0.71-1.29-1.15-1.9-2.16-1.36l-0.05-0.09l5-2.66c1.72-0.92,4.2-1.12,5.39,1.12c0.98,1.83,0.13,3.45-1.28,4.54
				C257.13,319.19,259.66,319.06,260.85,321.3z M250.13,315.18c-1.01,0.54-0.77,1.25-0.08,2.55l2.17,4.07
				c0.66-0.35,1.44-0.77,1.9-1.01c1.33-0.71,2.05-2.07,0.85-4.31c-1.19-2.24-3.03-2.26-4.06-1.72L250.13,315.18z M259.13,322.22
				c-1.19-2.24-3.19-2.27-4.23-1.72c0,0-2.44,1.3-2.63,1.4l2.24,4.2c0.69,1.3,1.15,1.9,2.16,1.36c0.53-0.28,1.12-0.6,1.51-0.81
				C259.3,326.05,260.32,324.46,259.13,322.22z"/>
			<path class="st3" d="M287.97,306.12l0.06,0.08c0,0-0.88,0.71-1.68,1.35c-0.68,0.54-1.5,0.9-2.33,0.73
				c-2.62-0.46-5.29-3.4-6.98-2.19c0,0-1.22,0.98-1.37,1.1l2.93,3.64c0.94,1.13,1.47,1.64,2.37,0.92l0.06,0.08l-3.35,2.69
				l-0.06-0.08c0.9-0.72,0.52-1.35-0.39-2.51l-5.94-7.4c-0.95-1.15-1.48-1.65-2.38-0.93l-0.06-0.08l4.34-3.48
				c1.52-1.22,3.96-1.86,5.55,0.12c1.32,1.65,0.78,3.45-0.44,4.8c1.92-0.77,3.78,0.79,5.96,1.47
				C285.6,306.84,287.01,306.89,287.97,306.12z M277.1,305.91c0.99-0.8,1.7-2.55,0.11-4.53c-1.59-1.98-3.54-1.6-4.45-0.87l-0.5,0.4
				c-0.9,0.72-0.52,1.35,0.4,2.52l2.95,3.68C276.12,306.69,276.72,306.21,277.1,305.91z"/>
			<path class="st3" d="M309.09,283.67l0.08,0.07l-2.87,3.38l-0.08-0.07c0.63-0.74,0.43-1.09-1.05-1.63
				c-0.55-0.2-2.03-0.72-3.68-1.3l-3.13,3.69c0.44,0.82,0.76,1.41,0.84,1.56c0.9,1.58,2.64,2.84,3.51,1.81l0.08,0.06l-2.77,3.27
				l-0.08-0.07c0.66-1.13,0.6-2.42-0.43-4.32c-0.89-1.66-5.55-10.28-5.55-10.28l0.12-0.14c0,0,10.1,3.57,11.43,3.99
				C306.84,284.14,308.28,284.62,309.09,283.67z M301.39,284.09c-2.83-1-6.11-2.14-6.21-2.18c0.95,1.75,2.26,4.19,3.14,5.8
				L301.39,284.09z"/>
			<path class="st3" d="M314.58,254.8l-0.05,0.09c-1.43-0.15-3.27-0.17-4.28,1.58l-0.17,0.3c-0.57,0.99-0.01,1.46,1.29,2.21
				l8.2,4.73c1.27,0.73,1.98,1,2.55,0.01l0.09,0.05l-2.15,3.74l-0.09-0.05c0.57-1-0.01-1.47-1.29-2.21l-8.2-4.73
				c-1.29-0.74-1.98-1-2.55-0.01l-0.17,0.3c-1.01,1.75-0.06,3.34,0.78,4.5l-0.05,0.09l-2.4-1.89l5.65-9.81L314.58,254.8z"/>
			<path class="st3" d="M330.42,240.33c1.38,0.5,2.12,0.66,2.52-0.41l0.09,0.04l-1.5,4.02l-0.09-0.03c0.4-1.08-0.25-1.45-1.63-1.97
				l-8.87-3.32c-1.38-0.52-2.12-0.66-2.52,0.41l-0.09-0.03l1.5-4.02l0.09,0.04c-0.4,1.08,0.26,1.43,1.63,1.96L330.42,240.33z"/>
			<path class="st3" d="M333.53,206.28c4.39,0.43,6.87,4.06,6.46,8.25c-0.39,4.17-3.5,7.28-7.9,6.87c-4.41-0.43-6.89-4.07-6.48-8.25
				C326,208.98,329.12,205.87,333.53,206.28z M333.32,208.29c-3.91-0.38-7.33,1.81-7.61,4.88c-0.3,3.06,2.64,5.86,6.57,6.22
				c3.91,0.38,7.31-1.82,7.61-4.88C340.18,211.45,337.25,208.65,333.32,208.29z"/>
			<path class="st3" d="M328.16,175.25l0.1,0c0.03,1.35,1.46,2.45,3.86,2.4l10.19-0.21l0.01,0.24c-0.18,0.16-11.51,9.41-12.05,9.88
				l8.34-0.17c2.4-0.05,3.78-1.21,3.76-2.58l0.1,0l0.1,5.08l-0.1,0c-0.03-1.37-1.46-2.45-3.86-2.4l-8.46,0.18
				c-0.85,0.72-1.6,1.58-1.58,2.37l-0.1,0l-0.07-3.36l11.26-9.08l-7.53,0.16c-2.4,0.05-3.78,1.21-3.76,2.58l-0.1,0L328.16,175.25z"
				/>
			<path class="st3" d="M334.58,148.7c2.42-0.51,4.05,1.23,4.61,3.91c0.22,1.07,0.22,2.2,0.21,2.86c-0.03,0.64-0.08,1.75,1.26,1.46
				l0.02,0.1l-4.97,1.05l-0.02-0.1c1.14-0.24,4.06-2.24,3.4-5.35c-0.38-1.79-1.78-2.78-3.4-2.43c-3.49,0.74-2.2,8-6.36,8.88
				c-2.35,0.49-3.88-1.28-4.32-3.37c-0.23-1.1-0.07-2.09-0.04-3c0.05-0.75-0.23-1.08-1.31-0.86l-0.02-0.1l4.97-1.05l0.02,0.1
				c-2.41,0.51-4.02,2.5-3.53,4.82c0.27,1.28,1.33,2.48,3.24,2.08C331.68,156.99,330.56,149.55,334.58,148.7z"/>
		</g>
		<g>
			<path class="st2" d="M152.64,341.21l-0.07,0.29c-1.26,0.6-2.64,1.02-4.85,0.65c-4.14-0.7-7.13-3.83-6.51-8.2
				c0.61-4.39,4.37-6.68,8.52-6.11c1.26,0.19,2.76,0.85,3.84,1.39c0.95,0.47,1.36,0.63,1.67-0.71l0.1,0.02l-1.15,4.95l-0.1-0.02
				c0.3-1.28-0.52-3.2-1.53-4.16c-0.84-0.73-1.85-1.22-2.85-1.37c-3.05-0.42-5.95,2.38-6.51,6.28c-0.55,3.88,1.43,7.18,4.53,7.82
				C149.6,342.45,151.31,341.96,152.64,341.21z"/>
			<path class="st2" d="M181.18,342.48l-0.97,3.37l-9.76-0.42l0-0.1c1.15,0.05,1.3-0.69,1.36-2.16l0.41-9.46
				c0.06-1.47-0.03-2.22-1.17-2.27l0-0.1l9.12,0.39l0.56,2.81l-0.1,0c-0.53-1.33-1.62-2.75-3.63-2.84l-1.67-0.07
				c-1.15-0.05-1.28,0.69-1.36,2.16l-0.2,4.71l1.47,0.06c1.57,0.07,2.87-1.01,2.92-2.35l0.1,0l-0.22,5.05l-0.1,0
				c0.06-1.35-1.14-2.53-2.71-2.6l-1.47-0.06l-0.2,4.65c-0.04,1.47,0.03,2.22,1.17,2.27l2.29,0.1c2.03,0.09,3.41-1.85,4.05-3.13
				L181.18,342.48z"/>
			<path class="st2" d="M208.83,340.26l-0.39,3.49l-9.67,1.29l-0.01-0.1c1.14-0.15,1.16-0.89,0.97-2.34l-1.25-9.41
				c-0.2-1.46-0.41-2.18-1.55-2.03l-0.01-0.1l4.25-0.57l0.01,0.1c-1.14,0.15-1.14,0.9-0.97,2.36l1.25,9.41
				c0.21,1.46,0.41,2.16,1.55,2.01l2.28-0.3c2.02-0.27,3.03-2.42,3.44-3.79L208.83,340.26z"/>
			<path class="st2" d="M235.49,333.26l0.25,3.49l-9.31,2.97l-0.03-0.1c1.09-0.35,0.98-1.1,0.53-2.5l-2.88-9.02
				c-0.45-1.4-0.79-2.07-1.88-1.72l-0.03-0.1l8.69-2.78l1.5,2.44l-0.1,0.03c-0.96-1.07-2.47-2.02-4.38-1.41l-1.59,0.51
				c-1.09,0.35-0.96,1.09-0.53,2.5l1.44,4.49l1.4-0.45c1.5-0.48,2.34-1.93,1.93-3.22l0.1-0.03l1.54,4.82l-0.1,0.03
				c-0.41-1.29-1.94-1.98-3.44-1.5l-1.4,0.45l1.42,4.43c0.47,1.39,0.79,2.07,1.88,1.72l2.19-0.7c1.94-0.62,2.56-2.91,2.72-4.34
				L235.49,333.26z"/>
			<path class="st2" d="M260.85,321.3c1.19,2.24-0.32,4.21-2.25,5.24l-5.67,3.02l-0.05-0.09c1.01-0.54,0.75-1.25,0.08-2.55
				l-4.45-8.36c-0.71-1.29-1.15-1.9-2.16-1.36l-0.05-0.09l5-2.66c1.72-0.92,4.2-1.12,5.39,1.12c0.98,1.83,0.13,3.45-1.28,4.54
				C257.13,319.19,259.66,319.06,260.85,321.3z M250.13,315.18c-1.01,0.54-0.77,1.25-0.08,2.55l2.17,4.07
				c0.66-0.35,1.44-0.77,1.9-1.01c1.33-0.71,2.05-2.07,0.85-4.31c-1.19-2.24-3.03-2.26-4.06-1.72L250.13,315.18z M259.13,322.22
				c-1.19-2.24-3.19-2.27-4.23-1.72c0,0-2.44,1.3-2.63,1.4l2.24,4.2c0.69,1.3,1.15,1.9,2.16,1.36c0.53-0.28,1.12-0.6,1.51-0.81
				C259.3,326.05,260.32,324.46,259.13,322.22z"/>
			<path class="st2" d="M287.97,306.12l0.06,0.08c0,0-0.88,0.71-1.68,1.35c-0.68,0.54-1.5,0.9-2.33,0.73
				c-2.62-0.46-5.29-3.4-6.98-2.19c0,0-1.22,0.98-1.37,1.1l2.93,3.64c0.94,1.13,1.47,1.64,2.37,0.92l0.06,0.08l-3.35,2.69
				l-0.06-0.08c0.9-0.72,0.52-1.35-0.39-2.51l-5.94-7.4c-0.95-1.15-1.48-1.65-2.38-0.93l-0.06-0.08l4.34-3.48
				c1.52-1.22,3.96-1.86,5.55,0.12c1.32,1.65,0.78,3.45-0.44,4.8c1.92-0.77,3.78,0.79,5.96,1.47
				C285.6,306.84,287.01,306.89,287.97,306.12z M277.1,305.91c0.99-0.8,1.7-2.55,0.11-4.53c-1.59-1.98-3.54-1.6-4.45-0.87l-0.5,0.4
				c-0.9,0.72-0.52,1.35,0.4,2.52l2.95,3.68C276.12,306.69,276.72,306.21,277.1,305.91z"/>
			<path class="st2" d="M309.09,283.67l0.08,0.07l-2.87,3.38l-0.08-0.07c0.63-0.74,0.43-1.09-1.05-1.63
				c-0.55-0.2-2.03-0.72-3.68-1.3l-3.13,3.69c0.44,0.82,0.76,1.41,0.84,1.56c0.9,1.58,2.64,2.84,3.51,1.81l0.08,0.06l-2.77,3.27
				l-0.08-0.07c0.66-1.13,0.6-2.42-0.43-4.32c-0.89-1.66-5.55-10.28-5.55-10.28l0.12-0.14c0,0,10.1,3.57,11.43,3.99
				C306.84,284.14,308.28,284.62,309.09,283.67z M301.39,284.09c-2.83-1-6.11-2.14-6.21-2.18c0.95,1.75,2.26,4.19,3.14,5.8
				L301.39,284.09z"/>
			<path class="st2" d="M314.58,254.8l-0.05,0.09c-1.43-0.15-3.27-0.17-4.28,1.58l-0.17,0.3c-0.57,0.99-0.01,1.46,1.29,2.21
				l8.2,4.73c1.27,0.73,1.98,1,2.55,0.01l0.09,0.05l-2.15,3.74l-0.09-0.05c0.57-1-0.01-1.47-1.29-2.21l-8.2-4.73
				c-1.29-0.74-1.98-1-2.55-0.01l-0.17,0.3c-1.01,1.75-0.06,3.34,0.78,4.5l-0.05,0.09l-2.4-1.89l5.65-9.81L314.58,254.8z"/>
			<path class="st2" d="M330.42,240.33c1.38,0.5,2.12,0.66,2.52-0.41l0.09,0.04l-1.5,4.02l-0.09-0.03c0.4-1.08-0.25-1.45-1.63-1.97
				l-8.87-3.32c-1.38-0.52-2.12-0.66-2.52,0.41l-0.09-0.03l1.5-4.02l0.09,0.04c-0.4,1.08,0.26,1.43,1.63,1.96L330.42,240.33z"/>
			<path class="st2" d="M333.53,206.28c4.39,0.43,6.87,4.06,6.46,8.25c-0.39,4.17-3.5,7.28-7.9,6.87c-4.41-0.43-6.89-4.07-6.48-8.25
				C326,208.98,329.12,205.87,333.53,206.28z M333.32,208.29c-3.91-0.38-7.33,1.81-7.61,4.88c-0.3,3.06,2.64,5.86,6.57,6.22
				c3.91,0.38,7.31-1.82,7.61-4.88C340.18,211.45,337.25,208.65,333.32,208.29z"/>
			<path class="st2" d="M328.16,175.25l0.1,0c0.03,1.35,1.46,2.45,3.86,2.4l10.19-0.21l0.01,0.24c-0.18,0.16-11.51,9.41-12.05,9.88
				l8.34-0.17c2.4-0.05,3.78-1.21,3.76-2.58l0.1,0l0.1,5.08l-0.1,0c-0.03-1.37-1.46-2.45-3.86-2.4l-8.46,0.18
				c-0.85,0.72-1.6,1.58-1.58,2.37l-0.1,0l-0.07-3.36l11.26-9.08l-7.53,0.16c-2.4,0.05-3.78,1.21-3.76,2.58l-0.1,0L328.16,175.25z"
				/>
			<path class="st2" d="M334.58,148.7c2.42-0.51,4.05,1.23,4.61,3.91c0.22,1.07,0.22,2.2,0.21,2.86c-0.03,0.64-0.08,1.75,1.26,1.46
				l0.02,0.1l-4.97,1.05l-0.02-0.1c1.14-0.24,4.06-2.24,3.4-5.35c-0.38-1.79-1.78-2.78-3.4-2.43c-3.49,0.74-2.2,8-6.36,8.88
				c-2.35,0.49-3.88-1.28-4.32-3.37c-0.23-1.1-0.07-2.09-0.04-3c0.05-0.75-0.23-1.08-1.31-0.86l-0.02-0.1l4.97-1.05l0.02,0.1
				c-2.41,0.51-4.02,2.5-3.53,4.82c0.27,1.28,1.33,2.48,3.24,2.08C331.68,156.99,330.56,149.55,334.58,148.7z"/>
		</g>
	</g>
	<g>
		<path class="st2" d="M94.63,309.31c-0.18,0-0.36-0.05-0.53-0.14c-23.3-13.75-42.82-33.36-56.46-56.72
			c-14.05-24.07-21.48-51.61-21.48-79.64c0-42.26,16.46-81.99,46.34-111.87c29.88-29.88,69.61-46.34,111.87-46.34
			c28.03,0,55.57,7.43,79.64,21.48c23.36,13.64,42.97,33.16,56.72,56.46c0.29,0.49,0.13,1.13-0.37,1.42
			c-0.49,0.29-1.13,0.13-1.42-0.37c-13.57-22.99-32.92-42.26-55.98-55.72C229.22,24,202.04,16.67,174.38,16.67
			c-41.7,0-80.91,16.24-110.4,45.73c-29.49,29.49-45.73,68.7-45.73,110.4c0,27.66,7.33,54.84,21.19,78.59
			c13.46,23.05,32.72,42.41,55.72,55.98c0.49,0.29,0.66,0.93,0.37,1.42C95.33,309.13,94.99,309.31,94.63,309.31z"/>
	</g>
</g>
</svg>
