<?xml version="1.0" standalone="no"?>
<!DOCTYPE svg PUBLIC "-//W3C//DTD SVG 20010904//EN"
 "http://www.w3.org/TR/2001/REC-SVG-20010904/DTD/svg10.dtd">
<svg version="1.0" xmlns="http://www.w3.org/2000/svg"
 width="1024.000000pt" height="1024.000000pt" viewBox="0 0 1024.000000 1024.000000"
 preserveAspectRatio="xMidYMid meet">

<g transform="translate(0.000000,1024.000000) scale(0.100000,-0.100000)"
fill="#000000" stroke="none">
<path d="M0 5120 l0 -5120 5120 0 5120 0 0 5120 0 5120 -5120 0 -5120 0 0
-5120z m5195 3119 c60 -28 131 -106 145 -160 14 -52 6 -137 -16 -182 -23 -46
-73 -95 -119 -120 -54 -28 -163 -29 -220 -2 -158 76 -194 298 -68 417 70 67
191 88 278 47z m-745 -217 c19 -9 45 -32 57 -51 77 -114 -66 -263 -184 -191
-46 28 -67 65 -67 119 0 107 100 171 194 123z m1428 -11 c34 -24 62 -77 62
-118 0 -64 -73 -133 -141 -133 -77 0 -145 79 -134 154 16 107 128 158 213 97z
m-1843 -96 c14 -13 25 -36 25 -50 0 -14 -11 -37 -25 -50 -38 -39 -86 -32 -111
16 -39 77 51 145 111 84z m2219 4 c52 -41 23 -129 -44 -129 -64 0 -93 79 -48
127 27 29 57 29 92 2z m-2580 -58 c23 -25 13 -59 -21 -72 -13 -5 -65 -9 -115
-9 -99 0 -128 12 -128 55 0 39 18 45 135 45 98 0 114 -2 129 -19z m3100 -3
c20 -29 20 -34 -4 -58 -17 -17 -33 -20 -122 -20 -110 0 -138 11 -138 55 0 39
18 45 136 45 105 0 114 -1 128 -22z m-1852 -308 c20 -6 46 -22 58 -37 22 -29
27 -85 7 -101 -8 -7 -210 -13 -597 -16 -644 -6 -660 -8 -792 -69 -140 -64
-254 -183 -329 -342 -73 -155 -71 -143 -78 -710 -7 -560 -3 -535 -66 -497 -16
10 -43 38 -60 62 l-30 43 -3 406 c-2 237 1 440 7 489 14 111 67 263 127 364
57 95 182 227 269 283 75 49 210 101 312 119 97 18 1115 22 1175 6z m2259 0
c18 -10 19 -25 19 -388 0 -499 -16 -604 -125 -828 -139 -285 -380 -513 -674
-634 -41 -16 -76 -30 -79 -30 -3 0 89 96 204 213 116 116 240 253 278 302 85
114 168 281 203 410 26 98 27 108 31 453 l4 352 -907 -1 c-1002 -2 -938 -6
-938 61 0 37 35 77 77 89 45 13 1882 14 1907 1z m-4265 -341 c40 -44 7 -119
-53 -119 -29 0 -73 42 -73 70 0 69 80 100 126 49z m4639 -4 c50 -49 20 -125
-50 -125 -67 0 -100 77 -53 127 29 31 72 30 103 -2z m-698 -197 c-6 -210 -20
-290 -76 -430 -61 -155 -121 -234 -356 -473 -852 -865 -884 -895 -931 -917
-32 -14 -67 -21 -106 -20 -91 1 -141 35 -268 178 -142 159 -226 219 -335 240
-20 3 -35 10 -33 14 2 4 174 181 383 394 209 213 382 389 385 392 2 3 -392 3
-875 1 -986 -4 -931 0 -1106 -78 -48 -22 -94 -39 -103 -39 -8 0 -23 11 -32 24
-14 22 -15 64 -12 333 3 290 4 311 25 355 27 59 86 116 161 156 119 63 28 60
1731 61 l1554 1 -6 -192z m-4042 17 c46 -45 22 -115 -40 -115 -36 0 -75 36
-75 70 0 29 39 70 66 70 14 0 36 -11 49 -25z m4755 -205 c55 -55 -3 -337 -118
-565 -134 -268 -341 -498 -617 -684 -183 -124 -287 -174 -525 -254 -88 -29
-453 -127 -474 -127 -4 0 42 50 102 110 l109 110 119 35 c394 113 712 313 945
594 186 224 296 462 324 702 4 35 14 64 26 78 26 28 82 28 109 1z m-4682 -247
c35 -75 37 -83 41 -202 l3 -124 -28 21 c-120 85 -159 248 -86 360 8 12 19 22
24 22 5 0 26 -35 46 -77z m-66 -369 c46 -24 81 -86 97 -171 11 -54 3 -54 -78
-2 -64 42 -177 167 -164 180 23 21 97 17 145 -7z m2079 -36 c14 -26 -2 -49
-121 -169 -61 -61 -106 -99 -119 -99 -25 0 -45 34 -37 64 3 12 54 69 114 128
89 88 112 106 130 101 13 -3 27 -14 33 -25z m-1355 -71 c67 -49 104 -95 136
-164 19 -40 22 -66 22 -158 0 -60 -3 -119 -7 -129 -7 -18 -12 -15 -53 25 -127
123 -174 226 -174 380 0 49 4 89 9 89 5 0 35 -19 67 -43z m488 -28 c21 -17 26
-29 26 -66 0 -38 -5 -50 -34 -79 -85 -85 -197 -2 -141 106 31 60 99 78 149 39z
m3616 -167 c0 -111 -44 -228 -126 -332 -45 -57 -98 -102 -195 -163 l-56 -36
34 69 c23 47 40 102 53 173 23 134 46 184 112 250 52 52 152 112 169 101 5 -3
9 -31 9 -62z m-3066 -99 l28 -5 -68 -69 c-57 -58 -74 -69 -102 -69 -46 0 -163
-28 -226 -53 -230 -95 -371 -226 -599 -558 -127 -185 -191 -247 -428 -412
-227 -158 -373 -353 -429 -571 -24 -96 -27 -262 -5 -351 22 -93 20 -130 -11
-154 -60 -48 -109 -7 -144 119 -35 126 -34 297 4 435 73 269 224 470 496 660
147 103 239 178 288 235 16 20 76 103 132 185 168 246 281 366 445 471 186
118 433 173 619 137z m-1082 -113 c24 -25 29 -36 23 -58 -8 -34 -32 -59 -66
-67 -19 -5 -34 0 -57 20 -40 34 -43 75 -7 110 33 34 70 32 107 -5z m-430 -52
c79 -37 124 -73 175 -141 72 -99 100 -231 72 -343 -12 -47 -56 -94 -89 -94
-34 0 -63 34 -62 71 7 152 5 166 -17 213 -52 107 -131 159 -241 160 -116 1
-205 -60 -262 -181 -68 -144 -37 -298 96 -473 31 -41 59 -85 63 -98 12 -51
-38 -101 -90 -88 -33 8 -79 56 -140 146 -138 203 -162 408 -71 598 61 126 172
219 301 252 21 5 76 8 123 7 67 -3 97 -9 142 -29z m4021 -131 c-3 -57 -32
-117 -70 -147 -31 -24 -94 -53 -100 -46 -8 8 19 120 38 158 25 48 83 90 119
84 11 -1 14 -13 13 -49z m-2910 -159 c-130 -146 -210 -210 -282 -228 -29 -7
-55 -10 -58 -6 -3 3 7 31 23 61 33 66 104 142 180 192 52 35 206 102 232 103
8 0 -35 -55 -95 -122z m632 -21 c38 -16 90 -60 215 -182 122 -119 177 -166
212 -181 27 -10 48 -23 48 -27 0 -9 -175 -190 -540 -560 -107 -109 -197 -202
-199 -208 -2 -7 274 -9 870 -7 863 4 875 4 952 26 105 29 170 66 238 133 97
96 148 213 169 387 6 48 15 91 20 96 6 6 19 1 35 -14 l25 -23 0 -704 0 -703
-1770 0 -1770 0 0 163 c0 276 22 410 90 569 53 124 151 264 281 403 246 263
783 797 823 817 98 51 204 56 301 15z m-1825 -27 c77 -55 59 -165 -33 -199
-85 -32 -167 61 -131 148 8 20 25 44 37 53 30 24 92 23 127 -2z m3643 -81
c159 -24 271 -68 420 -165 232 -152 421 -407 501 -678 43 -141 50 -196 51
-361 0 -175 -14 -266 -49 -318 -18 -27 -28 -32 -60 -32 -31 0 -43 6 -59 27
-20 27 -20 29 -4 132 31 189 18 345 -42 525 -70 208 -192 386 -354 516 -82 66
-245 154 -322 174 -205 54 -410 16 -535 -97 -147 -132 -154 -300 -18 -416 42
-36 118 -66 168 -66 73 0 85 -78 16 -115 -50 -27 -166 -17 -234 20 -68 37
-136 111 -170 183 -24 51 -27 68 -27 173 0 113 1 117 37 191 109 220 397 350
681 307z m900 -14 c32 -8 76 -24 99 -36 54 -28 150 -124 146 -146 -8 -44 -226
-61 -329 -26 -55 19 -303 172 -293 182 10 10 192 39 254 40 36 1 92 -6 123
-14z m-1801 -242 c10 -9 18 -25 18 -37 0 -22 -496 -527 -542 -552 -25 -13 -29
-13 -48 6 -11 11 -20 28 -20 37 0 21 539 563 559 563 8 0 23 -7 33 -17z m686
-143 c36 -22 52 -54 52 -107 0 -28 -8 -43 -36 -69 -49 -47 -100 -47 -149 -1
-46 44 -54 90 -23 137 41 61 97 76 156 40z m-2895 -162 c-80 -125 -153 -180
-255 -194 -43 -6 -48 -5 -48 13 0 46 85 143 160 183 42 23 165 59 168 50 2 -5
-9 -28 -25 -52z m3636 -190 c37 -77 41 -136 41 -607 0 -492 0 -494 -54 -519
-32 -16 -80 -2 -96 29 -6 11 -10 257 -10 631 l1 613 48 -52 c27 -28 58 -71 70
-95z m-4039 -280 c9 -97 11 -220 6 -472 -8 -372 -7 -366 -67 -381 -20 -5 -34
0 -55 18 l-29 25 0 334 0 333 32 90 c32 91 79 185 92 185 4 0 14 -59 21 -132z
m-393 -820 c61 -57 -7 -165 -80 -127 -52 28 -63 84 -22 124 30 31 71 32 102 3z
m4842 -4 c31 -39 27 -77 -10 -108 -37 -31 -58 -33 -92 -6 -33 26 -41 63 -22
99 17 33 27 39 72 40 23 1 37 -6 52 -25z m-3330 -696 c104 -215 201 -418 201
-424 0 -2 -33 -4 -73 -4 l-74 0 -24 48 c-20 39 -29 47 -51 46 -16 0 -68 -1
-116 -2 l-88 -2 -22 -45 -22 -45 -75 0 -75 0 15 36 c38 90 289 594 297 594 4
0 52 -91 107 -202z m-629 111 c0 -33 -10 -55 -54 -117 -64 -93 -176 -269 -176
-278 0 -4 52 -5 115 -2 l115 5 0 -73 0 -74 -245 0 c-135 0 -245 2 -245 4 0 5
116 195 196 322 35 55 64 104 64 107 0 4 -54 7 -120 7 l-120 0 -2 28 c-1 15
-3 46 -4 70 l-2 42 239 0 239 0 0 -41z m1269 -69 c52 -61 97 -110 101 -108 4
2 45 50 92 108 l85 105 66 3 67 3 0 -291 0 -290 -70 0 -70 0 0 156 c0 85 -4
153 -8 150 -5 -3 -44 -55 -87 -115 l-78 -110 -86 120 -86 120 -3 -161 -2 -160
-70 0 -70 0 0 290 0 290 63 0 64 0 92 -110z m1066 84 c51 -27 101 -92 110
-144 10 -58 -11 -132 -49 -176 l-33 -38 63 -92 c35 -50 64 -95 64 -98 0 -3
-35 -6 -78 -6 l-79 0 -54 81 c-50 75 -56 80 -83 75 -16 -3 -35 -6 -42 -6 -11
0 -14 -18 -14 -75 l0 -75 -70 0 -70 0 0 291 0 290 148 -3 c126 -3 153 -6 187
-24z m575 -264 l0 -290 -70 0 -70 0 0 290 0 290 70 0 70 0 0 -290z m470 0 l0
-290 -70 0 -69 0 -6 33 c-3 17 -5 148 -3 289 l3 258 73 0 72 0 0 -290z m-2620
-660 c0 -30 -1 -30 -55 -30 -48 0 -55 -3 -55 -19 0 -16 8 -20 38 -23 30 -2 38
-7 40 -25 3 -21 -1 -23 -37 -23 -37 0 -41 -2 -41 -25 0 -24 3 -25 55 -25 52 0
55 -1 55 -25 0 -25 -1 -25 -85 -25 l-85 0 0 125 0 125 85 0 85 0 0 -30z m195
-7 c9 -21 24 -56 34 -78 l18 -40 23 70 c13 39 28 73 34 77 10 7 56 11 56 5 0
-5 -67 -161 -90 -210 -17 -37 -25 -45 -35 -37 -15 12 -90 179 -100 223 -6 24
-5 27 19 27 21 0 29 -8 41 -37z m450 7 c0 -23 -4 -25 -57 -28 -50 -3 -58 -6
-58 -22 0 -17 7 -20 45 -20 41 0 45 -2 45 -24 0 -22 -5 -25 -42 -28 -36 -3
-44 -7 -46 -26 -4 -23 -1 -24 52 -20 55 3 56 3 56 -24 l0 -28 -80 0 -80 0 0
119 c0 137 -6 130 100 128 62 -2 65 -3 65 -27z m240 -37 l64 -68 1 68 0 67 30
0 30 0 0 -124 c0 -81 -4 -127 -11 -132 -7 -4 -38 22 -73 60 -34 36 -64 66 -67
66 -3 0 -6 -8 -6 -17 1 -91 -3 -103 -28 -103 l-25 0 0 125 c0 81 4 125 11 125
5 0 39 -30 74 -67z m430 57 c14 -22 -6 -50 -36 -50 l-29 0 0 -95 c0 -95 0 -95
-25 -95 -22 0 -25 4 -25 34 0 18 -3 61 -6 95 -7 59 -8 61 -35 61 -26 0 -29 4
-29 30 l0 30 89 0 c50 0 93 -5 96 -10z m263 -7 c16 -14 19 -23 11 -42 -9 -22
-11 -23 -27 -7 -21 18 -48 21 -57 6 -10 -16 15 -40 41 -40 57 0 85 -87 42
-128 -34 -31 -71 -36 -112 -17 -48 23 -53 33 -28 58 20 20 22 20 41 3 23 -21
54 -18 59 6 2 12 -8 20 -38 29 -70 21 -91 79 -45 124 29 30 83 33 113 8z
m-2130 -95 c17 -17 15 -45 -4 -52 -30 -11 -229 -7 -242 6 -16 16 -15 23 4 42
20 20 223 23 242 4z m2800 0 c17 -17 15 -45 -4 -52 -30 -11 -229 -7 -242 6
-16 16 -15 23 4 42 20 20 223 23 242 4z"/>
<path d="M4103 2520 l-22 -50 50 0 c48 0 50 1 43 23 -10 34 -34 77 -42 77 -4
0 -17 -23 -29 -50z"/>
<path d="M5750 2611 l0 -81 54 0 c43 0 60 5 80 23 38 33 42 68 13 102 -20 24
-33 29 -85 33 l-62 4 0 -81z"/>
</g>
</svg>
