<?xml version="1.0" encoding="utf-8"?>
<!-- Generator: Adobe Illustrator 27.5.0, SVG Export Plug-In . SVG Version: 6.00 Build 0)  -->
<svg version="1.1" id="Layer_1" xmlns="http://www.w3.org/2000/svg" xmlns:xlink="http://www.w3.org/1999/xlink" x="0px" y="0px"
	 viewBox="0 0 748.19 73.98" style="enable-background:new 0 0 748.19 73.98;" xml:space="preserve">
<style type="text/css">
	.st0{fill:#444C4C;}
	.st1{fill:none;}
	.st2{fill:#CDAD72;}
	.st3{fill:#899096;}
	.st4{fill:#FFFFFF;}
</style>
<g>
	<g>
		<path class="st4" d="M40.62,13.51c0,6.59-5.63,10.11-11.62,10.11h-5.33v9.2c0,3.67,0.3,5.53,3.17,5.53v0.25H16.08v-0.25
			c2.87,0,3.17-1.86,3.17-5.53V9.18c0-3.72-0.3-5.53-3.17-5.53V3.4h12.93C34.99,3.4,40.62,6.92,40.62,13.51z M35.75,13.51
			c0-6.69-3.92-9.86-7.29-9.86h-1.61c-2.87,0-3.17,1.81-3.17,5.53v14.18h4.78C31.82,23.37,35.75,20.2,35.75,13.51z"/>
		<path class="st4" d="M81.56,38.36v0.25c0,0-2.82,0-5.38,0c-2.16,0-4.33-0.6-5.68-2.21c-4.38-4.98-4.98-14.89-10.16-15.19
			c0,0-3.92,0-4.38,0v11.67c0.05,3.67,0.3,5.48,3.17,5.48v0.25H48.42v-0.25c2.87,0,3.12-1.81,3.17-5.48V9.18
			c-0.05-3.72-0.3-5.53-3.17-5.53V3.4H62.3c4.88,0,10.61,2.56,10.61,8.9c0,5.28-3.87,7.95-8.35,8.65c4.93,1.51,6.14,7.44,9.3,12.17
			C75.83,36.04,78.5,38.36,81.56,38.36z M60.74,20.95c3.17,0,7.29-2.31,7.29-8.65s-4.38-8.65-7.29-8.65h-1.61
			c-2.87,0-3.12,1.81-3.17,5.53v11.77C57.62,20.95,59.54,20.95,60.74,20.95z"/>
		<path class="st4" d="M114.56,30.11l-2.06,8.5H88.1v-0.25c2.87,0,3.17-1.86,3.17-5.53V9.18c0-3.67-0.3-5.53-3.17-5.53V3.4h22.78
			l1.71,6.94h-0.25c-1.46-3.27-4.32-6.69-9.35-6.69h-4.17c-2.87,0-3.12,1.86-3.17,5.53v11.77h3.67c3.92,0,7.04-2.82,7.04-6.19h0.25
			v12.62h-0.25c0-3.37-3.12-6.19-7.04-6.19h-3.67v11.62c0.05,3.67,0.3,5.53,3.17,5.53h5.73c5.08,0,8.3-4.98,9.76-8.25H114.56z"/>
		<path class="st4" d="M153.58,33.88v0.75c-2.72,2.16-5.83,3.97-11.42,4.33c-10.46,0.65-19.51-5.28-20.47-16.24
			C120.69,11.7,128.54,4,138.95,3.05c3.17-0.25,7.19,0.5,10.11,1.21c2.56,0.6,3.67,0.75,3.67-2.67h0.25v12.67h-0.25
			c0-3.27-3.07-7.49-6.09-9.25c-2.46-1.31-5.18-1.91-7.7-1.71c-7.64,0.7-13.13,9.15-12.27,18.96c0.85,9.76,7.54,16.65,15.44,16.45
			C146.9,38.61,150.77,36.44,153.58,33.88z"/>
		<path class="st4" d="M169.68,32.82c0.05,3.67,0.3,5.53,3.17,5.53v0.25h-10.71v-0.25c2.87,0,3.17-1.86,3.17-5.53V9.18
			c0-3.67-0.3-5.53-3.17-5.53V3.4h10.71v0.25c-2.87,0-3.12,1.86-3.17,5.53V32.82z"/>
		<path class="st4" d="M219.02,19.34c0.95,10.96-6.84,18.71-17.3,19.61c-10.41,0.96-19.46-5.28-20.47-16.24
			c-0.96-11.01,6.84-18.76,17.3-19.67C208.96,2.09,218.01,8.33,219.02,19.34z M213.99,19.75c-0.86-9.76-7.8-17.15-15.44-16.45
			c-7.64,0.65-13.18,9.15-12.27,18.96c0.85,9.76,7.8,17.1,15.44,16.45C209.36,38,214.89,29.55,213.99,19.75z"/>
		<path class="st4" d="M257.39,3.4v0.25c-2.87,0-3.17,1.81-3.17,5.53v18.46c0,8.8-5.73,11.47-11.47,11.47
			c-5.48,0-12.67-2.67-12.67-11.47V9.18c0-3.72-0.3-5.53-3.17-5.53V3.4h10.71v0.25c-2.87,0-3.12,1.81-3.17,5.53v19.06
			c0,6.49,3.57,10.51,8.3,10.51c7.8,0,11.22-4.43,11.22-11.11V9.18c0-3.72-0.3-5.53-3.17-5.53V3.4H257.39z"/>
		<path class="st4" d="M288.92,29.86c0,6.19-5.08,9.25-11.92,9.25c-2.72,0-5.48-0.6-7.09-0.96c-1.56-0.4-4.22-1.11-4.22,2.31h-0.25
			V27.79h0.25c0,2.92,3.37,11.06,11.32,11.06c4.58,0,7.7-2.92,7.7-7.04c0-8.9-18.41-9.51-18.41-20.12c0-5.98,5.13-8.8,10.46-8.8
			c2.82,0,5.13,0.91,7.34,1.46c1.81,0.5,2.77,0,2.77-2.77h0.25v12.67h-0.25c0-6.14-4.02-11.11-9.96-11.11
			c-3.27,0-6.74,1.96-6.74,6.84C270.16,18.49,288.92,19.6,288.92,29.86z"/>
		<path class="st4" d="M343.29,33.88v0.75c-2.72,2.16-5.83,3.97-11.42,4.33c-10.46,0.65-19.51-5.28-20.47-16.24
			C310.4,11.7,318.24,4,328.65,3.05c3.17-0.25,7.19,0.5,10.11,1.21c2.56,0.6,3.67,0.75,3.67-2.67h0.25v12.67h-0.25
			c0-3.27-3.07-7.49-6.09-9.25c-2.46-1.31-5.18-1.91-7.7-1.71c-7.64,0.7-13.13,9.15-12.27,18.96c0.85,9.76,7.54,16.65,15.44,16.45
			C336.6,38.61,340.47,36.44,343.29,33.88z"/>
		<path class="st4" d="M378.3,30.11l-2.06,8.5h-24.39v-0.25c2.87,0,3.17-1.86,3.17-5.53V9.18c0-3.67-0.3-5.53-3.17-5.53V3.4h22.78
			l1.71,6.94h-0.25c-1.46-3.27-4.32-6.69-9.35-6.69h-4.17c-2.87,0-3.12,1.86-3.17,5.53v11.77h3.67c3.92,0,7.04-2.82,7.04-6.19h0.25
			v12.62h-0.25c0-3.37-3.12-6.19-7.04-6.19h-3.67v11.62c0.05,3.67,0.3,5.53,3.17,5.53h5.73c5.08,0,8.3-4.98,9.76-8.25H378.3z"/>
		<path class="st4" d="M412.04,30.11l-2.11,8.5h-24.34v-0.25c2.87,0,3.17-1.81,3.17-5.48V9.18c0-3.67-0.3-5.53-3.17-5.53V3.4h10.71
			v0.25c-2.87,0-3.12,1.86-3.17,5.53v23.69c0.05,3.67,0.3,5.48,3.17,5.48h5.73c5.08,0,8.3-4.98,9.76-8.25H412.04z"/>
		<path class="st4" d="M445.29,30.11l-2.06,8.5h-24.39v-0.25c2.87,0,3.17-1.86,3.17-5.53V9.18c0-3.67-0.3-5.53-3.17-5.53V3.4h22.78
			l1.71,6.94h-0.25c-1.46-3.27-4.32-6.69-9.35-6.69h-4.17c-2.87,0-3.12,1.86-3.17,5.53v11.77h3.67c3.92,0,7.04-2.82,7.04-6.19h0.25
			v12.62h-0.25c0-3.37-3.12-6.19-7.04-6.19h-3.67v11.62c0.05,3.67,0.3,5.53,3.17,5.53h5.73c5.08,0,8.3-4.98,9.76-8.25H445.29z"/>
		<path class="st4" d="M479.74,29.7c0,6.34-5.63,8.9-11.12,8.9h-16.04v-0.25c2.87,0,3.12-1.86,3.17-5.53V9.18
			c-0.05-3.67-0.3-5.53-3.17-5.53V3.4h14.13c4.88,0,10.56,2.46,10.56,8.8c0,5.18-3.77,7.75-8.15,8.5
			C474,20.7,479.74,23.37,479.74,29.7z M463.29,3.65c-2.87,0-3.17,1.86-3.17,5.53V20.7c1.86,0,4.07,0,5.38,0
			c3.77,0,6.94-2.16,6.94-8.5s-4.02-8.55-6.94-8.55H463.29z M474.86,29.7c0-6.34-4.38-8.75-7.29-8.75c0,0-6.89,0-7.44,0v11.87
			c0,3.67,0.3,5.53,3.17,5.53c1.51,0,3.17,0,4.27,0C470.73,38.36,474.86,36.04,474.86,29.7z"/>
		<path class="st4" d="M520.68,38.36v0.25c0,0-2.82,0-5.38,0c-2.16,0-4.33-0.6-5.68-2.21c-4.38-4.98-4.98-14.89-10.16-15.19
			c0,0-3.92,0-4.38,0v11.67c0.05,3.67,0.3,5.48,3.17,5.48v0.25h-10.71v-0.25c2.87,0,3.12-1.81,3.17-5.48V9.18
			c-0.05-3.72-0.3-5.53-3.17-5.53V3.4h13.88c4.88,0,10.61,2.56,10.61,8.9c0,5.28-3.87,7.95-8.35,8.65c4.93,1.51,6.14,7.44,9.3,12.17
			C514.94,36.04,517.61,38.36,520.68,38.36z M499.86,20.95c3.17,0,7.29-2.31,7.29-8.65s-4.38-8.65-7.29-8.65h-1.61
			c-2.87,0-3.12,1.81-3.17,5.53v11.77C496.74,20.95,498.65,20.95,499.86,20.95z"/>
		<path class="st4" d="M560.26,38.36v0.25h-11.06v-0.25c2.41,0,2.77-0.96,1.41-4.63c-0.5-1.36-1.91-5.03-3.47-9.1h-12.07
			c-0.85,2.16-1.46,3.72-1.61,4.12c-1.56,4.27-1.16,9.61,2.21,9.61v0.25h-10.71v-0.25c3.22-0.55,5.58-2.77,7.54-7.8
			c1.71-4.38,10.61-27.16,10.61-27.16h0.45c0,0,9.5,25,10.86,28.21C555.73,34.83,557.14,38.36,560.26,38.36z M547.03,24.37
			c-2.67-6.99-5.78-15.09-5.88-15.34c-1.81,4.63-4.33,11.06-5.99,15.34H547.03z"/>
		<path class="st4" d="M592.5,10.94h-0.25c-1.46-3.27-3.72-7.29-8.75-7.29h-0.86c-2.87,0-3.17,1.81-3.17,5.53v23.64
			c0,3.67,0.3,5.53,3.17,5.53v0.25h-10.76v-0.25c2.87,0,3.17-1.86,3.17-5.53V9.18c0-3.72-0.3-5.53-3.17-5.53h-0.86
			c-5.03,0-7.29,4.02-8.75,7.29h-0.25l1.11-7.54h28.27L592.5,10.94z"/>
		<path class="st4" d="M608.09,32.82c0.05,3.67,0.3,5.53,3.17,5.53v0.25h-10.71v-0.25c2.87,0,3.17-1.86,3.17-5.53V9.18
			c0-3.67-0.3-5.53-3.17-5.53V3.4h10.71v0.25c-2.87,0-3.12,1.86-3.17,5.53V32.82z"/>
		<path class="st4" d="M657.43,19.34c0.95,10.96-6.84,18.71-17.3,19.61c-10.41,0.96-19.46-5.28-20.47-16.24
			c-0.96-11.01,6.84-18.76,17.3-19.67C647.37,2.09,656.42,8.33,657.43,19.34z M652.4,19.75c-0.86-9.76-7.8-17.15-15.44-16.45
			c-7.64,0.65-13.18,9.15-12.27,18.96c0.85,9.76,7.8,17.1,15.44,16.45C647.77,38,653.3,29.55,652.4,19.75z"/>
		<path class="st4" d="M701.33,3.4v0.25c-3.37,0-6.19,3.52-6.19,9.51v25.45h-0.6c-0.4-0.45-22.88-29.22-24.04-30.58v20.82
			c0,5.98,2.82,9.51,6.24,9.51v0.25h-12.67v-0.25c3.42,0,6.19-3.52,6.19-9.51V7.73c-1.76-2.16-3.87-4.07-5.83-4.07V3.4h8.4
			l22.08,28.57V13.16c0-5.98-2.82-9.51-6.24-9.51V3.4H701.33z"/>
		<path class="st4" d="M732.11,29.86c0,6.19-5.08,9.25-11.92,9.25c-2.72,0-5.48-0.6-7.09-0.96c-1.56-0.4-4.22-1.11-4.22,2.31h-0.25
			V27.79h0.25c0,2.92,3.37,11.06,11.32,11.06c4.58,0,7.7-2.92,7.7-7.04c0-8.9-18.41-9.51-18.41-20.12c0-5.98,5.13-8.8,10.46-8.8
			c2.82,0,5.13,0.91,7.34,1.46c1.81,0.5,2.77,0,2.77-2.77h0.25v12.67h-0.25c0-6.14-4.02-11.11-9.96-11.11
			c-3.27,0-6.74,1.96-6.74,6.84C713.35,18.49,732.11,19.6,732.11,29.86z"/>
	</g>
	<g>
		<path class="st4" d="M152.51,55.54h5.88l0.02,0.17h-0.27c-0.4,0-0.71,0.14-0.94,0.41c-0.23,0.27-0.28,0.6-0.15,0.98l3.97,11.63
			l3.89-13.44h0.62l5.01,13.16l3.12-11.18c0.13-0.43,0.07-0.8-0.17-1.1c-0.25-0.31-0.59-0.46-1.02-0.46h-0.55v-0.17h4.46v0.17
			c-0.45,0-0.85,0.12-1.23,0.36c-0.37,0.24-0.62,0.6-0.76,1.08l-4.31,15.12h-0.62l-5.11-12.97l-3.74,12.97H160l-5.63-14.95
			c-0.18-0.5-0.44-0.89-0.78-1.18c-0.34-0.29-0.7-0.43-1.08-0.43V55.54z"/>
		<path class="st4" d="M190.87,71.7h0.22c0.36,0,0.67-0.15,0.92-0.46c0.25-0.31,0.38-0.67,0.4-1.1l-0.17-12.84
			c0-0.45-0.13-0.83-0.4-1.14c-0.26-0.31-0.59-0.47-0.97-0.47h-0.22v-0.17h11.45l0.05,3.47h-0.12l-0.07-0.42
			c-0.07-0.33-0.19-0.64-0.37-0.93c-0.18-0.29-0.41-0.55-0.67-0.77c-0.26-0.22-0.56-0.4-0.88-0.52c-0.32-0.12-0.66-0.19-1-0.19
			h-4.29c0.02,0.88,0.03,1.9,0.05,3.07c0.02,1.17,0.04,2.38,0.07,3.62h3.2c0.58,0,1.09-0.13,1.54-0.38c0.45-0.26,0.7-0.57,0.77-0.95
			l0.05-0.22h0.12l0.05,3.99h-0.12l-0.05-0.27c-0.07-0.43-0.33-0.79-0.78-1.08c-0.45-0.29-0.97-0.43-1.55-0.43h-3.22
			c0.02,0.81,0.03,1.61,0.04,2.4c0.01,0.79,0.02,1.53,0.04,2.21c0.02,0.68,0.03,1.29,0.04,1.83c0.01,0.55,0.01,0.98,0.01,1.31h4.44
			c0.43,0,0.83-0.07,1.19-0.22c0.36-0.15,0.69-0.36,0.97-0.62c0.28-0.26,0.52-0.57,0.73-0.9c0.21-0.34,0.38-0.7,0.51-1.08h0.12
			l-0.57,3.47h-11.48L190.87,71.7z"/>
		<path class="st4" d="M224.19,55.54c1.21,0,2.35,0.22,3.42,0.64c1.07,0.43,2.01,1.02,2.81,1.76c0.8,0.74,1.44,1.61,1.92,2.6
			c0.48,0.99,0.73,2.05,0.74,3.17c0.02,1.12-0.17,2.18-0.57,3.17s-0.95,1.86-1.65,2.6c-0.7,0.74-1.53,1.33-2.48,1.76
			c-0.95,0.43-1.97,0.64-3.06,0.64h-7.69v-0.17h0.22c0.36,0,0.67-0.15,0.92-0.46c0.25-0.31,0.38-0.67,0.4-1.1
			c0-0.02,0-0.34-0.01-0.98c-0.01-0.64-0.02-1.43-0.03-2.38c-0.01-0.95-0.02-1.98-0.04-3.09c-0.02-1.11-0.03-2.14-0.05-3.09
			c-0.02-0.95-0.03-2.05-0.05-3.31c0-0.45-0.13-0.83-0.4-1.14c-0.26-0.31-0.59-0.47-0.97-0.47l-0.22-0.02v-0.15H224.19z
			 M221.51,56.16c0.02,0.69,0.03,1.5,0.04,2.4c0.01,0.91,0.02,1.86,0.04,2.84c0.02,0.98,0.03,1.98,0.05,2.99
			c0.02,1.01,0.03,1.95,0.04,2.84c0.01,0.88,0.02,1.68,0.04,2.39c0.02,0.71,0.02,1.26,0.02,1.66h3.59c0.73,0,1.41-0.2,2.06-0.59
			s1.2-0.94,1.67-1.62c0.47-0.69,0.84-1.49,1.1-2.4c0.26-0.92,0.39-1.9,0.37-2.94c-0.02-1.04-0.2-2.02-0.55-2.94
			c-0.35-0.92-0.81-1.72-1.38-2.4c-0.57-0.69-1.24-1.23-2-1.62c-0.76-0.4-1.57-0.59-2.43-0.59H221.51z"/>
		<path class="st4" d="M253.77,55.54c1.21,0,2.35,0.22,3.42,0.64c1.07,0.43,2.01,1.02,2.81,1.76c0.8,0.74,1.44,1.61,1.92,2.6
			c0.48,0.99,0.73,2.05,0.74,3.17c0.02,1.12-0.17,2.18-0.57,3.17c-0.4,0.99-0.95,1.86-1.65,2.6c-0.7,0.74-1.53,1.33-2.48,1.76
			c-0.95,0.43-1.97,0.64-3.06,0.64h-7.69v-0.17h0.22c0.36,0,0.67-0.15,0.92-0.46c0.25-0.31,0.38-0.67,0.4-1.1
			c0-0.02,0-0.34-0.01-0.98c-0.01-0.64-0.02-1.43-0.03-2.38c-0.01-0.95-0.02-1.98-0.04-3.09c-0.02-1.11-0.03-2.14-0.05-3.09
			c-0.02-0.95-0.03-2.05-0.05-3.31c0-0.45-0.13-0.83-0.4-1.14c-0.26-0.31-0.59-0.47-0.97-0.47L247,55.69v-0.15H253.77z
			 M251.09,56.16c0.02,0.69,0.03,1.5,0.04,2.4c0.01,0.91,0.02,1.86,0.04,2.84c0.02,0.98,0.03,1.98,0.05,2.99
			c0.02,1.01,0.03,1.95,0.04,2.84c0.01,0.88,0.02,1.68,0.04,2.39c0.02,0.71,0.02,1.26,0.02,1.66h3.59c0.73,0,1.41-0.2,2.06-0.59
			s1.2-0.94,1.67-1.62c0.47-0.69,0.84-1.49,1.1-2.4c0.26-0.92,0.39-1.9,0.37-2.94c-0.02-1.04-0.2-2.02-0.55-2.94
			s-0.81-1.72-1.38-2.4c-0.57-0.69-1.24-1.23-2-1.62c-0.76-0.4-1.57-0.59-2.43-0.59H251.09z"/>
		<path class="st4" d="M276.75,71.73l0.22-0.02c0.36,0,0.67-0.15,0.92-0.46c0.25-0.31,0.38-0.67,0.4-1.1c0-0.02,0-0.34-0.01-0.98
			c-0.01-0.64-0.02-1.43-0.03-2.38c-0.01-0.95-0.02-1.98-0.04-3.08c-0.02-1.11-0.03-2.13-0.05-3.08c-0.02-0.95-0.03-2.05-0.05-3.3
			c0-0.45-0.13-0.83-0.4-1.14c-0.26-0.31-0.59-0.47-0.97-0.47h-0.22v-0.17h5.68v0.17h-0.22c-0.36,0-0.67,0.14-0.91,0.43
			c-0.24,0.29-0.38,0.65-0.41,1.08c0.02,0.96,0.03,2.03,0.05,3.21c0.02,1.18,0.03,2.36,0.05,3.55c0.02,1.18,0.03,2.31,0.05,3.4
			c0.02,1.08,0.03,2,0.05,2.74c0,0.45,0.13,0.83,0.4,1.14c0.26,0.31,0.59,0.47,0.97,0.47l0.22-0.02v0.2l-5.68-0.02L276.75,71.73z"/>
		<path class="st4" d="M296,55.71v-0.2h3.87l9.2,12.79l-0.17-10.98c-0.02-0.45-0.15-0.83-0.41-1.14c-0.26-0.31-0.58-0.47-0.95-0.47
			h-0.22v-0.2h3.89v0.2h-0.22c-0.36,0-0.68,0.15-0.94,0.45c-0.26,0.3-0.39,0.66-0.37,1.09l0.22,15.15h-0.92l-10.64-14.65l0.2,12.37
			c0.02,0.45,0.15,0.83,0.41,1.14c0.26,0.31,0.57,0.47,0.95,0.47h0.22v0.17h-3.87v-0.17h0.22c0.36,0,0.68-0.15,0.94-0.45
			c0.26-0.3,0.39-0.66,0.37-1.09l-0.2-12.87c0-0.45-0.13-0.83-0.4-1.14c-0.26-0.31-0.59-0.47-0.97-0.47H296z"/>
		<path class="st4" d="M339.43,60.1c-0.1-0.53-0.32-1.01-0.67-1.45c-0.35-0.44-0.77-0.82-1.28-1.14c-0.5-0.32-1.07-0.57-1.69-0.74
			c-0.62-0.17-1.25-0.26-1.9-0.26c-0.74,0-1.47,0.13-2.18,0.38c-0.71,0.26-1.34,0.67-1.9,1.25c-0.55,0.58-1,1.33-1.33,2.24
			c-0.33,0.92-0.49,2.04-0.47,3.36c0.02,1.26,0.18,2.36,0.5,3.3c0.31,0.94,0.75,1.73,1.31,2.36c0.56,0.63,1.23,1.1,2.01,1.43
			c0.78,0.32,1.64,0.48,2.58,0.48c0.99,0,2.06-0.17,3.2-0.52c-0.02-0.89-0.02-1.69-0.02-2.4c0-0.3,0-0.59-0.01-0.88
			c-0.01-0.29-0.02-0.55-0.03-0.77c-0.01-0.22-0.02-0.47-0.04-0.73c0-0.5-0.14-0.89-0.43-1.18c-0.29-0.29-0.67-0.43-1.15-0.43v-0.17
			h5.4v0.17c-0.48,0-0.85,0.14-1.12,0.42c-0.26,0.28-0.41,0.66-0.42,1.14c0.02,0.66,0.03,1.27,0.04,1.82
			c0.01,0.55,0.01,1.04,0.01,1.45c0.02,0.48,0.02,0.92,0.02,1.31c-0.84,0.5-1.73,0.86-2.67,1.1c-0.93,0.24-1.87,0.36-2.81,0.36
			c-1.16,0-2.28-0.18-3.36-0.53c-1.08-0.36-2.05-0.88-2.9-1.57c-0.85-0.69-1.54-1.56-2.06-2.59c-0.52-1.03-0.8-2.23-0.83-3.58
			c-0.02-1.37,0.21-2.57,0.69-3.61c0.48-1.03,1.13-1.89,1.95-2.58c0.82-0.69,1.76-1.2,2.84-1.55c1.07-0.35,2.18-0.52,3.32-0.52
			c0.94,0,1.88,0.12,2.81,0.35c0.93,0.23,1.82,0.59,2.67,1.07l0.05,3.2L339.43,60.1z"/>
		<path class="st4" d="M365.79,59.97c-0.17-0.73-0.39-1.35-0.68-1.86c-0.29-0.51-0.61-0.93-0.97-1.24
			c-0.35-0.31-0.73-0.54-1.14-0.68c-0.4-0.14-0.81-0.21-1.23-0.21c-0.56,0-1.09,0.12-1.6,0.35c-0.5,0.23-0.93,0.53-1.26,0.9
			c-0.34,0.37-0.56,0.8-0.66,1.28c-0.1,0.48-0.02,0.97,0.24,1.48c0.26,0.5,0.71,0.99,1.38,1.46c0.66,0.47,1.59,0.9,2.8,1.28
			c1.21,0.38,2.15,0.88,2.83,1.49c0.68,0.61,1.13,1.27,1.36,1.97c0.23,0.7,0.26,1.41,0.07,2.12c-0.18,0.71-0.52,1.36-1.03,1.93
			c-0.5,0.58-1.16,1.05-1.96,1.41c-0.8,0.36-1.7,0.55-2.69,0.55c-0.71,0-1.45-0.1-2.23-0.31c-0.78-0.21-1.59-0.55-2.43-1.03
			l-0.05-3.4h0.15c0.18,0.73,0.43,1.35,0.76,1.86c0.32,0.51,0.69,0.93,1.09,1.25c0.41,0.32,0.84,0.55,1.3,0.69
			c0.46,0.14,0.93,0.21,1.39,0.21c0.63,0,1.23-0.11,1.8-0.33c0.57-0.22,1.05-0.52,1.44-0.89c0.39-0.37,0.65-0.8,0.78-1.28
			c0.13-0.48,0.08-0.97-0.16-1.46c-0.24-0.5-0.7-0.99-1.39-1.48c-0.69-0.49-1.66-0.93-2.94-1.33c-1.16-0.36-2.06-0.84-2.72-1.44
			c-0.65-0.59-1.1-1.24-1.34-1.93c-0.24-0.69-0.28-1.4-0.12-2.11c0.16-0.71,0.46-1.35,0.92-1.92c0.46-0.57,1.05-1.04,1.78-1.4
			c0.74-0.36,1.57-0.55,2.49-0.55c0.63,0,1.29,0.1,1.98,0.29c0.69,0.19,1.41,0.5,2.16,0.93l0.05,3.4H365.79z"/>
		<path class="st4" d="M403.4,63.25c-0.48-0.76-0.86-1.46-1.13-2.11c-0.27-0.64-0.42-1.19-0.43-1.64c0-0.56,0.1-1.09,0.29-1.59
			c0.19-0.5,0.45-0.93,0.78-1.3c0.33-0.37,0.72-0.66,1.17-0.88c0.45-0.21,0.93-0.32,1.44-0.32c0.51,0,1,0.08,1.45,0.24
			c0.46,0.16,0.85,0.37,1.19,0.63c0.34,0.26,0.61,0.58,0.82,0.94c0.21,0.36,0.31,0.74,0.31,1.14c0,0.46-0.1,0.92-0.29,1.38
			c-0.19,0.45-0.45,0.88-0.78,1.26c-0.33,0.39-0.73,0.73-1.19,1.03c-0.46,0.3-0.96,0.53-1.49,0.69l-0.05,0.07
			c0.33,0.48,0.71,1,1.14,1.55c0.43,0.55,0.88,1.1,1.34,1.64c0.46,0.54,0.93,1.05,1.39,1.55c0.46,0.5,0.89,0.93,1.29,1.31
			c0.16-0.25,0.31-0.6,0.42-1.07c0.12-0.46,0.16-0.93,0.15-1.39c-0.02-0.46-0.12-0.86-0.32-1.2c-0.2-0.34-0.54-0.51-1.02-0.51h-0.22
			v-0.1l-0.02-0.05v-0.02h3.62v0.02c0.02,0.02,0.02,0.03,0.02,0.05v0.1h-0.22c-0.48,0-0.8,0.15-0.95,0.46
			c-0.16,0.31-0.26,0.69-0.31,1.15c-0.05,0.46-0.11,0.95-0.17,1.48c-0.07,0.52-0.25,1-0.55,1.43c1.01,0.93,1.86,1.56,2.55,1.9
			c0.69,0.34,1.3,0.51,1.81,0.51c0.08,0,0.16,0,0.25-0.01c0.08-0.01,0.16-0.02,0.25-0.04v0.37c-0.23,0.03-0.47,0.06-0.72,0.09
			c-0.25,0.02-0.5,0.04-0.74,0.04c-0.73,0-1.47-0.12-2.23-0.35c-0.76-0.23-1.58-0.64-2.45-1.24c-0.68,0.48-1.48,0.86-2.39,1.15
			c-0.92,0.29-1.91,0.43-2.96,0.43c-0.69,0-1.36-0.1-1.98-0.31c-0.63-0.21-1.17-0.49-1.64-0.86c-0.46-0.36-0.83-0.78-1.12-1.25
			c-0.28-0.47-0.42-0.98-0.42-1.52c-0.02-0.43,0.08-0.87,0.29-1.33c0.21-0.45,0.5-0.9,0.87-1.33c0.37-0.43,0.81-0.83,1.33-1.21
			C402.26,63.86,402.81,63.53,403.4,63.25z M401.27,67.31c0,0.51,0.12,1,0.35,1.46c0.23,0.46,0.54,0.87,0.93,1.21
			c0.39,0.35,0.84,0.62,1.36,0.82c0.52,0.2,1.07,0.3,1.65,0.3c0.69,0,1.35-0.09,1.96-0.26c0.61-0.17,1.17-0.41,1.66-0.71
			c-0.48-0.38-0.98-0.83-1.49-1.34c-0.51-0.51-1.01-1.05-1.5-1.62c-0.49-0.57-0.95-1.15-1.4-1.75s-0.84-1.16-1.19-1.69
			c-0.69,0.43-1.26,0.97-1.7,1.62C401.47,66.02,401.26,66.67,401.27,67.31z M403.48,58.59c0.02,0.43,0.18,0.98,0.5,1.65
			c0.31,0.67,0.73,1.4,1.26,2.19c0.33-0.15,0.64-0.36,0.92-0.62c0.28-0.26,0.52-0.57,0.73-0.9c0.21-0.34,0.36-0.71,0.47-1.12
			c0.11-0.4,0.16-0.81,0.16-1.23c0-0.36-0.06-0.7-0.19-1.02c-0.12-0.31-0.29-0.59-0.48-0.83c-0.2-0.24-0.43-0.43-0.69-0.56
			c-0.26-0.13-0.55-0.2-0.84-0.2c-0.25,0-0.49,0.07-0.72,0.21c-0.23,0.14-0.43,0.33-0.6,0.57c-0.17,0.24-0.29,0.52-0.38,0.83
			C403.52,57.88,403.48,58.22,403.48,58.59z"/>
		<path class="st4" d="M446.7,71.7h0.22c0.36,0,0.67-0.15,0.92-0.46c0.25-0.31,0.38-0.67,0.4-1.1l-0.17-12.84
			c0-0.45-0.13-0.83-0.4-1.14c-0.26-0.31-0.59-0.47-0.97-0.47h-0.22v-0.17h11.45l0.05,3.47h-0.12l-0.07-0.42
			c-0.07-0.33-0.19-0.64-0.37-0.93c-0.18-0.29-0.41-0.55-0.67-0.77c-0.26-0.22-0.56-0.4-0.88-0.52c-0.32-0.12-0.66-0.19-1-0.19
			h-4.29c0.02,0.88,0.03,1.9,0.05,3.07c0.02,1.17,0.04,2.38,0.07,3.62h3.2c0.58,0,1.09-0.13,1.54-0.38c0.45-0.26,0.7-0.57,0.77-0.95
			l0.05-0.22h0.12l0.05,3.99h-0.12l-0.05-0.27c-0.07-0.43-0.33-0.79-0.78-1.08c-0.45-0.29-0.97-0.43-1.55-0.43h-3.22
			c0.02,0.81,0.03,1.61,0.04,2.4c0.01,0.79,0.02,1.53,0.04,2.21c0.02,0.68,0.03,1.29,0.04,1.83c0.01,0.55,0.01,0.98,0.01,1.31h4.44
			c0.43,0,0.83-0.07,1.19-0.22c0.36-0.15,0.69-0.36,0.97-0.62c0.28-0.26,0.52-0.57,0.73-0.9c0.21-0.34,0.38-0.7,0.51-1.08h0.12
			l-0.57,3.47h-11.48L446.7,71.7z"/>
		<path class="st4" d="M478.28,55.71l-0.42-0.02c-0.41,0.02-0.73,0.17-0.94,0.45c-0.22,0.28-0.24,0.61-0.07,0.99l5.03,11.85
			l3.62-11.08c0.2-0.59,0.15-1.11-0.14-1.54c-0.29-0.43-0.71-0.64-1.25-0.64l-0.37-0.02v-0.15l4.78-0.02v0.2l-0.22-0.02
			c-0.38,0.02-0.75,0.18-1.12,0.5c-0.36,0.31-0.62,0.69-0.77,1.14l-4.98,14.95h-0.62l-6.69-15.07c-0.22-0.48-0.5-0.85-0.84-1.1
			c-0.35-0.26-0.71-0.38-1.09-0.38v-0.2h6.1V55.71z"/>
		<path class="st4" d="M502.36,71.7h0.22c0.36,0,0.67-0.15,0.92-0.46c0.25-0.31,0.38-0.67,0.4-1.1l-0.17-12.84
			c0-0.45-0.13-0.83-0.4-1.14c-0.26-0.31-0.59-0.47-0.97-0.47h-0.22v-0.17h11.45l0.05,3.47h-0.12l-0.07-0.42
			c-0.07-0.33-0.19-0.64-0.37-0.93c-0.18-0.29-0.41-0.55-0.67-0.77c-0.26-0.22-0.56-0.4-0.88-0.52c-0.32-0.12-0.66-0.19-1-0.19
			h-4.29c0.02,0.88,0.03,1.9,0.05,3.07c0.02,1.17,0.04,2.38,0.07,3.62h3.2c0.58,0,1.09-0.13,1.54-0.38c0.45-0.26,0.7-0.57,0.77-0.95
			l0.05-0.22h0.12l0.05,3.99h-0.12l-0.05-0.27c-0.07-0.43-0.33-0.79-0.78-1.08c-0.45-0.29-0.97-0.43-1.55-0.43h-3.22
			c0.02,0.81,0.03,1.61,0.04,2.4c0.01,0.79,0.02,1.53,0.04,2.21c0.02,0.68,0.03,1.29,0.04,1.83c0.01,0.55,0.01,0.98,0.01,1.31h4.44
			c0.43,0,0.83-0.07,1.19-0.22c0.36-0.15,0.69-0.36,0.97-0.62c0.28-0.26,0.52-0.57,0.73-0.9c0.21-0.34,0.38-0.7,0.51-1.08h0.12
			l-0.57,3.47h-11.48L502.36,71.7z"/>
		<path class="st4" d="M528.89,55.71v-0.2h3.87l9.2,12.79l-0.17-10.98c-0.02-0.45-0.15-0.83-0.41-1.14
			c-0.26-0.31-0.58-0.47-0.95-0.47h-0.22v-0.2h3.89v0.2h-0.22c-0.36,0-0.68,0.15-0.94,0.45c-0.26,0.3-0.39,0.66-0.37,1.09
			l0.22,15.15h-0.92l-10.64-14.65l0.2,12.37c0.02,0.45,0.15,0.83,0.41,1.14c0.26,0.31,0.57,0.47,0.95,0.47h0.22v0.17h-3.87v-0.17
			h0.22c0.36,0,0.68-0.15,0.94-0.45c0.26-0.3,0.39-0.66,0.37-1.09l-0.2-12.87c0-0.45-0.13-0.83-0.4-1.14
			c-0.26-0.31-0.59-0.47-0.97-0.47H528.89z"/>
		<path class="st4" d="M572.06,59.35c-0.1-0.38-0.21-0.76-0.33-1.13c-0.12-0.37-0.29-0.71-0.5-1c-0.21-0.3-0.47-0.54-0.79-0.73
			c-0.32-0.19-0.72-0.29-1.2-0.29h-3.45c0.03,1.7,0.07,3.39,0.1,5.06c0.02,0.71,0.03,1.45,0.04,2.23c0.01,0.78,0.02,1.55,0.02,2.33
			c0.01,0.78,0.02,1.53,0.03,2.27c0.01,0.74,0.01,1.42,0.01,2.05c0,0.43,0.11,0.81,0.32,1.13c0.21,0.32,0.56,0.48,1.04,0.48h0.22
			v0.17h-5.65v-0.17h0.22c0.36,0,0.67-0.14,0.93-0.43c0.26-0.29,0.38-0.65,0.38-1.08c0-0.63,0-1.31-0.01-2.05
			c-0.01-0.74-0.02-1.49-0.03-2.27c-0.01-0.78-0.02-1.56-0.02-2.34c-0.01-0.78-0.02-1.54-0.04-2.27c-0.03-1.69-0.07-3.4-0.12-5.13
			h-3.45c-0.48,0-0.87,0.1-1.18,0.29c-0.31,0.19-0.56,0.44-0.76,0.74c-0.2,0.31-0.36,0.64-0.47,1.02c-0.12,0.37-0.22,0.74-0.32,1.1
			h-0.12c0.02-0.38,0.04-0.72,0.06-1.02c0.02-0.3,0.05-0.59,0.07-0.88c0.03-0.29,0.05-0.59,0.08-0.89c0.02-0.31,0.04-0.64,0.06-1
			h14.58l0.37,3.79L572.06,59.35z"/>
		<path class="st4" d="M594.42,59.97c-0.17-0.73-0.39-1.35-0.68-1.86c-0.29-0.51-0.61-0.93-0.97-1.24
			c-0.35-0.31-0.73-0.54-1.14-0.68c-0.4-0.14-0.81-0.21-1.23-0.21c-0.56,0-1.09,0.12-1.6,0.35c-0.5,0.23-0.93,0.53-1.26,0.9
			c-0.34,0.37-0.56,0.8-0.66,1.28c-0.1,0.48-0.02,0.97,0.24,1.48c0.26,0.5,0.71,0.99,1.38,1.46c0.66,0.47,1.59,0.9,2.8,1.28
			c1.21,0.38,2.15,0.88,2.83,1.49c0.68,0.61,1.13,1.27,1.36,1.97c0.23,0.7,0.26,1.41,0.07,2.12c-0.18,0.71-0.52,1.36-1.03,1.93
			c-0.5,0.58-1.16,1.05-1.96,1.41c-0.8,0.36-1.7,0.55-2.69,0.55c-0.71,0-1.45-0.1-2.23-0.31c-0.78-0.21-1.59-0.55-2.43-1.03
			l-0.05-3.4h0.15c0.18,0.73,0.43,1.35,0.76,1.86c0.32,0.51,0.69,0.93,1.09,1.25c0.41,0.32,0.84,0.55,1.3,0.69
			c0.46,0.14,0.93,0.21,1.39,0.21c0.63,0,1.23-0.11,1.8-0.33c0.57-0.22,1.05-0.52,1.44-0.89c0.39-0.37,0.65-0.8,0.78-1.28
			c0.13-0.48,0.08-0.97-0.16-1.46c-0.24-0.5-0.7-0.99-1.39-1.48c-0.69-0.49-1.66-0.93-2.94-1.33c-1.16-0.36-2.06-0.84-2.72-1.44
			c-0.65-0.59-1.1-1.24-1.34-1.93c-0.24-0.69-0.28-1.4-0.12-2.11c0.16-0.71,0.46-1.35,0.92-1.92c0.46-0.57,1.05-1.04,1.78-1.4
			c0.74-0.36,1.57-0.55,2.49-0.55c0.63,0,1.29,0.1,1.98,0.29c0.69,0.19,1.41,0.5,2.16,0.93l0.05,3.4H594.42z"/>
	</g>
</g>
</svg>
