<?xml version="1.0" standalone="no"?>
<!DOCTYPE svg PUBLIC "-//W3C//DTD SVG 20010904//EN"
 "http://www.w3.org/TR/2001/REC-SVG-20010904/DTD/svg10.dtd">
<svg version="1.0" xmlns="http://www.w3.org/2000/svg"
 width="1024.000000pt" height="1024.000000pt" viewBox="0 0 1024.000000 1024.000000"
 preserveAspectRatio="xMidYMid meet">

<g transform="translate(0.000000,1024.000000) scale(0.100000,-0.100000)"
fill="#000000" stroke="none">
<path d="M1585 9088 c-48 -28 -50 -47 -29 -239 9 -85 8 -87 -298 -491 -37 -49
-118 -153 -180 -231 -62 -78 -125 -158 -139 -177 -51 -67 -107 -125 -115 -117
-4 4 13 29 38 55 25 26 87 101 137 167 50 66 102 134 115 150 84 105 216 278
206 269 -9 -9 -48 23 -167 140 -138 135 -183 172 -183 151 0 -4 73 -77 161
-164 135 -131 159 -159 147 -169 -12 -10 -24 -3 -64 36 -188 180 -238 229
-254 250 l-19 23 -28 -37 c-64 -82 -115 -139 -130 -145 -12 -4 27 -48 150
-170 145 -144 192 -200 158 -187 -6 2 -85 75 -176 162 -116 111 -164 164 -160
175 6 20 12 27 -134 -178 -102 -144 -116 -160 -138 -155 -21 6 -34 -9 -16 -18
5 -1 23 -23 41 -48 l34 -45 -51 53 c-44 46 -53 52 -71 42 -38 -20 -25 -58 45
-131 41 -43 63 -73 59 -82 -3 -8 0 -18 5 -22 6 -3 9 -10 6 -15 -7 -12 94 -100
116 -100 14 0 19 9 22 48 3 40 4 37 5 -19 3 -90 22 -140 87 -220 55 -68 135
-127 155 -114 19 11 57 -22 82 -71 27 -56 130 -161 175 -180 73 -31 89 -21
284 202 118 133 157 184 189 249 14 28 27 52 30 55 3 3 7 16 8 30 2 14 11 39
19 57 8 18 12 37 8 43 -3 5 1 13 10 16 12 5 13 9 5 14 -8 5 -2 14 19 26 17 10
31 23 31 29 0 6 -57 66 -126 135 l-126 124 23 40 c12 23 29 50 38 60 9 11 10
16 4 12 -7 -4 -27 -28 -44 -54 -18 -26 -39 -53 -48 -61 -14 -12 -14 -14 -1
-19 8 -2 69 -58 135 -123 90 -90 116 -122 108 -130 -9 -9 -29 4 -83 52 -139
125 -195 182 -182 186 6 3 9 9 6 14 -9 16 85 147 162 226 62 64 76 73 107 73
19 0 37 -4 39 -9 2 -4 50 -12 108 -15 96 -7 103 -6 85 8 -19 15 -19 15 8 16
50 0 97 27 111 62 29 72 28 93 -14 175 -21 43 -51 90 -66 103 l-27 25 30 -45
c66 -101 84 -169 58 -224 -31 -64 -94 -82 -244 -67 -52 5 -107 5 -123 0 -38
-10 -84 -50 -152 -132 -32 -37 -62 -65 -67 -61 -12 7 -39 -14 -39 -30 0 -6 7
-2 15 8 8 11 18 16 22 13 9 -10 -51 -82 -68 -82 -7 0 -22 14 -34 30 -11 17
-28 41 -37 54 l-17 25 -21 -24 c-11 -13 -20 -20 -20 -16 0 4 25 35 55 69 58
63 165 218 208 300 15 27 28 42 31 34 3 -6 3 0 0 16 -4 18 -2 27 6 27 9 0 11
20 6 78 -12 160 -12 167 8 164 10 -2 15 1 12 6 -9 14 69 -5 112 -28 54 -28 86
-51 135 -97 25 -23 48 -39 52 -35 4 4 5 2 3 -3 -2 -6 13 -31 34 -55 45 -56 88
-136 88 -164 0 -12 -5 -27 -12 -34 -9 -9 -5 -9 15 0 56 26 25 129 -73 248
-127 151 -318 252 -395 208z m298 -555 c-7 -2 -19 -2 -25 0 -7 3 -2 5 12 5 14
0 19 -2 13 -5z m-743 -383 c-6 -11 -13 -20 -16 -20 -2 0 0 9 6 20 6 11 13 20
16 20 2 0 0 -9 -6 -20z m243 -202 c134 -130 165 -168 137 -168 -14 0 -340 324
-340 339 0 20 43 -16 203 -171z m-793 107 c19 -19 32 -35 29 -35 -3 0 -20 16
-39 35 -19 19 -32 35 -29 35 3 0 20 -16 39 -35z m65 -55 c10 -11 16 -20 13
-20 -3 0 -13 9 -23 20 -10 11 -16 20 -13 20 3 0 13 -9 23 -20z m348 -24 c-10
-13 -20 -22 -22 -20 -4 4 29 44 36 44 2 0 -4 -11 -14 -24z m-263 -78 c-1 -17
-39 -67 -40 -51 0 21 19 63 30 63 5 0 10 -6 10 -12z m26 -128 l38 -45 -47 45
c-26 24 -47 49 -47 54 0 11 0 11 56 -54z m124 -32 c0 -6 -7 -5 -15 2 -8 7 -15
17 -15 22 0 6 7 5 15 -2 8 -7 15 -17 15 -22z m-59 -25 c13 -16 12 -17 -3 -4
-17 13 -22 21 -14 21 2 0 10 -8 17 -17z m89 -67 c-9 -8 -11 -6 -5 12 4 13 2
22 -4 22 -7 0 -6 9 2 27 l12 28 3 -39 c2 -21 -2 -44 -8 -50z m-40 44 c13 -8
13 -10 -2 -10 -9 0 -20 5 -23 10 -8 13 5 13 25 0z m146 -57 l29 -38 -29 23
c-16 12 -35 22 -44 22 -12 0 -12 3 -2 15 7 8 14 15 15 15 1 0 15 -17 31 -37z
m165 -150 c13 -16 12 -17 -3 -4 -17 13 -22 21 -14 21 2 0 10 -8 17 -17z"/>
<path d="M1519 9053 c-8 -20 -8 -60 1 -143 7 -63 13 -119 15 -125 8 -26 4 92
-6 159 -8 53 -8 84 -1 106 14 37 5 40 -9 3z"/>
<path d="M5183 8620 c-118 -24 -224 -125 -247 -236 -7 -31 -7 -31 -103 -43
-235 -29 -489 -94 -723 -186 -562 -221 -1027 -582 -1367 -1059 -111 -155 -150
-220 -243 -401 -163 -318 -253 -615 -306 -1005 -27 -198 -25 -601 4 -790 47
-302 101 -489 205 -720 162 -358 379 -679 637 -944 365 -374 812 -647 1286
-786 301 -88 562 -124 899 -124 417 0 755 61 1109 200 563 221 1038 609 1384
1131 292 439 458 875 512 1343 14 119 8 556 -9 680 -37 260 -93 499 -166 697
-58 157 -216 467 -312 613 -299 453 -718 825 -1188 1055 -319 156 -568 238
-875 287 l-136 21 -17 57 c-41 141 -201 238 -344 210z m141 -116 c74 -38 116
-104 116 -182 0 -65 -20 -111 -69 -155 -107 -96 -269 -59 -325 75 -23 54 -20
111 9 167 52 104 169 145 269 95z m-384 -273 c0 -22 50 -100 86 -136 38 -36
119 -73 176 -81 62 -9 142 12 204 51 56 36 84 70 115 141 l21 46 51 -6 c313
-39 723 -177 1026 -345 244 -136 430 -279 652 -500 175 -175 270 -290 392
-478 239 -365 380 -733 448 -1173 23 -147 38 -583 24 -724 l-7 -75 -55 -31
c-58 -33 -148 -119 -158 -151 -12 -38 -25 -17 -25 41 0 60 0 60 63 129 91 98
104 156 67 286 -18 62 -18 71 -5 90 47 63 47 63 35 84 -7 14 -21 21 -38 21
-51 0 -102 -76 -102 -151 0 -14 -14 -44 -31 -65 -66 -82 -64 -56 -69 -644 l-5
-535 -25 -49 -25 -48 -7 38 c-10 57 -9 963 1 1070 6 56 22 127 41 185 53 154
172 378 230 434 40 38 41 82 3 91 -14 4 -33 3 -42 -3 -44 -27 -214 -323 -245
-427 l-13 -41 -8 47 c-4 27 -2 68 4 100 19 87 149 309 227 386 35 34 44 50 44
77 0 29 -4 36 -25 41 -18 4 -32 1 -47 -12 -24 -22 -103 -136 -165 -238 l-43
-70 0 81 0 82 61 76 c34 41 92 103 130 137 76 69 82 78 69 112 -14 38 -47 39
-78 3 -15 -18 -62 -68 -104 -112 l-78 -80 0 66 c0 60 4 72 36 120 20 30 58 79
84 109 59 70 65 85 40 110 -35 35 -54 27 -105 -45 l-35 -50 0 96 c0 86 2 98
25 129 48 66 29 100 -56 100 l-56 0 -45 -67 c-47 -70 -125 -163 -136 -163 -4
0 -5 33 -2 74 5 79 -4 63 129 233 l26 32 27 -29 c32 -35 60 -38 88 -10 l21 21
-30 38 c-16 20 -35 49 -42 64 -28 61 -82 40 -160 -63 l-54 -70 -3 65 c-3 59
-5 65 -27 71 -57 14 -55 25 -55 -354 0 -382 7 -532 24 -532 6 0 58 64 116 141
l105 140 7 -423 c3 -233 11 -457 17 -498 12 -90 14 -210 3 -210 -7 0 -60 61
-170 196 l-42 52 32 23 c47 32 68 60 68 93 0 37 -25 66 -58 66 -27 0 -92 -59
-92 -83 0 -8 -7 -20 -15 -27 -43 -36 -34 118 12 202 14 26 55 80 90 119 60 66
63 72 50 92 -10 15 -25 22 -48 22 -29 0 -39 -8 -85 -67 -38 -49 -54 -63 -58
-52 -3 9 -6 258 -6 555 l0 539 -26 6 c-15 4 -30 2 -37 -5 -8 -8 -14 -79 -17
-218 l-5 -206 -35 -12 c-118 -41 -204 -104 -266 -196 l-31 -46 -57 5 c-37 3
-56 1 -56 -7 0 -6 -4 -11 -10 -11 -6 0 -10 28 -10 63 0 118 66 211 177 248
103 34 203 139 203 213 0 27 -16 36 -69 36 -84 0 -181 -76 -267 -209 -21 -34
-43 -61 -48 -61 -5 0 -6 37 -3 84 10 135 66 222 161 250 84 25 160 104 186
195 27 94 -118 75 -220 -28 -31 -31 -69 -82 -85 -113 -17 -32 -34 -58 -39 -58
-5 0 -6 38 -4 85 5 67 11 94 32 130 27 46 88 95 117 95 9 0 35 14 58 31 52 37
86 105 78 156 -17 99 -97 76 -97 -28 0 -33 -5 -51 -20 -64 -20 -18 -20 -17
-20 8 0 59 -49 38 -105 -45 l-35 -53 0 56 c0 69 22 159 58 228 26 51 30 55 93
75 86 28 119 50 119 81 0 22 -4 25 -39 25 -21 0 -52 -5 -70 -11 -38 -13 -50
-6 -29 18 48 55 59 133 23 163 -20 17 -46 -6 -64 -57 -7 -21 -30 -74 -49 -117
l-36 -79 -41 84 c-43 91 -68 107 -92 60 -14 -29 -2 -63 52 -153 41 -66 42 -83
14 -167 l-21 -62 -29 33 c-16 18 -38 52 -49 75 -47 93 -139 134 -176 78 -35
-54 15 -137 109 -183 72 -34 109 -74 126 -137 12 -45 15 -185 4 -184 -5 0 -30
30 -58 66 -61 80 -107 113 -156 113 -44 0 -89 -32 -89 -63 0 -61 75 -124 137
-114 27 5 41 0 75 -26 64 -49 91 -111 96 -221 l5 -91 -40 50 c-78 96 -131 135
-188 135 -76 0 -104 -44 -70 -110 20 -39 64 -61 119 -58 35 1 53 -5 80 -26 76
-58 106 -156 106 -347 l0 -104 -66 70 c-87 93 -104 122 -104 172 0 45 -19 73
-50 73 -27 0 -50 -39 -50 -85 1 -95 23 -122 685 -805 264 -273 358 -373 436
-465 107 -127 109 -132 109 -194 l0 -55 -28 45 c-34 52 -85 96 -160 133 -55
28 -65 37 -398 391 -93 99 -264 279 -380 401 -117 121 -228 245 -247 275 -39
61 -73 84 -112 77 -22 -5 -35 6 -103 86 -129 152 -148 169 -171 156 -12 -6
-21 -19 -21 -28 0 -17 142 -195 189 -236 24 -22 26 -41 7 -75 l-13 -24 -32 43
c-17 24 -29 50 -26 58 8 22 -24 52 -55 52 -19 0 -30 -7 -38 -25 -12 -26 -16
-18 74 -163 l27 -44 -89 -89 c-48 -48 -90 -86 -93 -83 -4 3 -8 389 -11 857
l-5 852 -23 3 c-55 8 -52 53 -52 -917 l0 -897 -49 -55 -49 -54 -31 29 -31 30
-2 1140 -3 1141 -32 3 c-24 2 -34 -2 -43 -18 -9 -16 -11 -291 -10 -1059 1
-570 2 -1056 1 -1081 l-1 -44 -65 69 -64 70 -1 800 c0 609 -3 804 -12 813 -18
18 -56 14 -68 -7 -7 -13 -10 -271 -10 -768 l0 -748 -83 83 c-45 45 -87 82 -92
82 -5 0 -35 -26 -67 -57 l-58 -57 0 34 c-3 612 -11 1313 -15 1320 -11 17 -54
11 -65 -9 -6 -13 -10 -263 -10 -724 l-1 -705 -68 -69 -68 -70 -7 286 c-4 157
-6 653 -5 1101 0 448 1 823 0 832 -1 25 -36 41 -61 28 -19 -10 -19 -28 -22
-1174 l-3 -1163 -39 -47 c-48 -59 -61 -64 -92 -36 l-24 23 0 876 c0 482 -4
881 -8 887 -13 21 -49 25 -66 9 -14 -15 -16 -97 -16 -842 l0 -826 -77 83 c-43
45 -86 94 -96 107 l-19 24 47 50 c73 78 94 154 60 219 -9 18 -12 40 -9 59 6
28 4 31 -18 31 -15 0 -39 -16 -66 -43 l-42 -43 30 -26 c17 -15 30 -36 30 -50
0 -40 -64 -127 -95 -128 -11 0 -125 111 -125 122 0 9 128 162 242 290 43 48
78 94 78 101 0 16 -20 37 -36 37 -7 0 -70 -64 -141 -142 -70 -79 -158 -174
-194 -213 -36 -38 -82 -94 -103 -123 -20 -29 -110 -124 -199 -210 -89 -86
-238 -232 -332 -324 -458 -450 -523 -510 -566 -533 -63 -33 -107 -71 -139
-122 -30 -47 -40 -46 -40 3 0 48 12 72 78 160 60 78 111 134 616 666 529 557
516 541 516 637 0 53 -17 81 -50 81 -32 0 -50 -28 -50 -80 0 -51 -14 -73 -124
-195 l-45 -50 0 100 c-1 259 62 385 191 385 47 0 52 3 126 72 129 120 453 451
467 478 24 46 28 95 11 153 -9 30 -16 68 -16 84 0 44 -17 55 -54 36 -17 -8
-41 -24 -53 -35 l-22 -20 25 -38 c46 -70 41 -143 -13 -192 -11 -10 -44 -21
-74 -26 l-54 -8 3 -41 c2 -41 -1 -46 -116 -170 l-119 -128 -49 3 c-61 4 -104
-23 -184 -113 l-55 -62 -3 59 c-5 91 20 161 78 222 42 44 52 50 84 48 67 -5
129 42 142 107 13 64 -79 95 -151 51 -19 -11 -60 -55 -92 -97 l-58 -76 -3 68
c-6 137 29 215 117 259 96 49 156 151 116 196 -41 45 -122 3 -167 -84 -12 -23
-35 -60 -53 -83 l-32 -42 -16 72 c-10 40 -17 81 -17 93 0 11 23 59 51 105 54
89 62 121 36 147 -15 14 -18 14 -37 -3 -12 -11 -38 -48 -57 -83 -21 -38 -39
-60 -45 -54 -5 5 -28 57 -51 117 -44 114 -64 138 -91 116 -24 -20 -20 -84 10
-143 23 -45 24 -50 7 -44 -10 4 -41 10 -68 13 -39 4 -54 2 -64 -11 -23 -27 20
-63 108 -89 66 -20 77 -27 93 -59 39 -74 84 -288 62 -288 -5 0 -22 20 -37 45
-16 25 -41 54 -55 66 l-27 21 -8 -31 c-4 -17 -12 -31 -18 -31 -14 0 -29 45
-29 89 0 42 -27 75 -57 69 -27 -5 -46 -53 -38 -98 11 -66 42 -101 124 -140 42
-21 85 -50 102 -70 39 -46 61 -124 57 -200 l-3 -61 -47 80 c-80 133 -192 211
-266 185 -35 -12 -38 -41 -11 -103 27 -65 82 -114 150 -136 106 -34 167 -126
176 -264 3 -45 3 -81 0 -81 -3 0 -22 27 -42 60 -50 83 -127 165 -178 189 -71
34 -167 24 -167 -17 1 -34 56 -117 107 -158 37 -31 67 -46 108 -54 48 -10 60
-17 87 -53 54 -74 78 -136 78 -205 l0 -62 -25 16 c-19 12 -37 15 -69 11 -42
-6 -43 -5 -66 35 -52 93 -134 156 -250 193 -30 10 -57 20 -60 22 -3 3 -7 100
-10 216 l-5 212 -29 3 c-39 5 -46 -9 -46 -103 l-1 -80 -57 65 c-109 124 -139
150 -177 150 -29 0 -41 -8 -89 -66 -31 -36 -56 -69 -56 -74 0 -17 32 -40 57
-40 17 0 39 13 64 39 l37 40 111 -130 111 -129 0 -71 0 -71 -94 89 c-52 48
-111 110 -131 136 -36 47 -36 47 -96 47 -33 0 -69 -5 -80 -10 -27 -15 -24 -56
6 -96 23 -29 25 -42 25 -126 l0 -93 -33 50 c-27 42 -38 51 -67 53 -46 5 -65
-19 -45 -58 7 -14 21 -33 30 -40 37 -31 128 -163 136 -198 8 -34 12 -112 7
-112 -9 0 -140 132 -167 168 -46 59 -101 55 -101 -7 0 -20 29 -54 120 -143 69
-67 127 -132 135 -152 16 -37 19 -104 8 -145 -6 -22 -8 -20 -32 26 -45 88
-174 263 -199 269 -31 8 -52 -12 -52 -50 0 -24 11 -41 47 -76 52 -50 108 -133
177 -261 48 -90 63 -152 51 -216 l-7 -38 -24 63 c-28 74 -97 206 -167 315 -50
79 -82 101 -116 80 -28 -18 -25 -53 7 -87 67 -70 190 -302 244 -458 l32 -93 4
-569 c2 -317 -1 -573 -6 -578 -5 -5 -18 11 -31 37 -22 44 -22 52 -29 577 l-7
533 -28 45 c-15 25 -38 59 -50 76 -14 18 -24 48 -25 74 -3 46 -21 88 -46 109
-21 18 -66 10 -82 -14 -12 -18 -10 -26 15 -64 l29 -43 -19 -69 c-36 -130 -23
-183 67 -278 l64 -68 -1 -64 c0 -63 0 -64 -17 -39 -37 54 -88 102 -148 142
-53 34 -65 47 -71 77 -13 59 -9 536 5 656 53 453 191 846 433 1232 276 441
618 767 1068 1019 209 117 549 246 784 299 133 29 348 64 360 58 4 -2 7 -12 7
-22z m-1520 -1436 c19 -19 32 -35 29 -35 -3 0 -20 16 -39 35 -19 19 -32 35
-29 35 3 0 20 -16 39 -35z m3584 14 c-10 -12 -32 -30 -49 -42 -26 -17 -25 -15
10 21 39 42 75 61 39 21z m31 -310 c-22 -22 -49 -45 -60 -51 -11 -5 5 13 35
41 67 61 78 66 25 10z m-3644 -16 l34 -37 -34 25 c-19 14 -37 31 -39 37 -6 20
2 14 39 -25z m-341 -418 l0 -76 -81 91 c-145 160 -184 220 -205 310 l-13 55
150 -152 149 -153 0 -75z m4597 285 c-7 -55 -42 -116 -138 -238 l-61 -77 7 74
7 74 89 101 c49 55 89 103 89 108 0 4 3 8 6 8 4 0 4 -22 1 -50z m-4451 -240
c24 -106 45 -143 145 -248 93 -97 105 -124 70 -156 -17 -16 -20 -15 -46 21
-74 100 -122 132 -153 101 -23 -23 -12 -48 53 -119 36 -39 65 -75 65 -80 0 -4
-42 -53 -92 -106 l-93 -98 -7 165 c-8 195 -8 561 -1 609 l6 34 18 -24 c10 -13
26 -58 35 -99z m4058 -294 c5 -225 4 -387 -1 -385 -5 2 -49 48 -97 102 -102
113 -102 109 -15 192 56 54 70 88 45 113 -15 15 -19 15 -44 2 -15 -9 -52 -46
-82 -82 l-55 -67 -18 21 c-28 33 -14 63 74 156 90 95 111 131 135 228 15 62
41 121 49 112 1 -1 6 -178 9 -392z m-4301 145 l108 -122 -2 -92 c-1 -51 -4
-96 -6 -100 -3 -5 -23 16 -45 47 -22 31 -50 59 -63 62 -35 9 -64 -4 -71 -32
-5 -20 6 -37 64 -98 81 -88 103 -129 111 -211 11 -109 -1 -121 -48 -45 -33 53
-65 69 -101 50 -54 -29 -40 -110 26 -151 40 -24 49 -7 -86 -168 -82 -98 -85
-100 -88 -71 -2 16 4 100 12 187 11 111 16 269 16 547 l1 391 32 -37 c18 -20
81 -91 140 -157z m4159 158 c-5 -13 -15 -42 -22 -64 -15 -46 -56 -109 -94
-144 l-26 -24 0 34 c0 52 51 150 100 192 48 40 55 42 42 6z m-3778 -20 c41
-49 72 -110 81 -165 l7 -39 -40 39 c-38 36 -82 118 -96 179 -9 38 7 34 48 -14z
m226 -135 c22 -20 40 -41 40 -48 -1 -14 -77 -103 -83 -96 -9 11 -16 180 -7
180 6 0 28 -16 50 -36z m3326 -16 c-3 -29 -6 -71 -6 -92 l0 -40 -31 30 c-17
16 -37 42 -46 57 -14 28 -13 30 22 63 54 51 69 46 61 -18z m-2609 -185 c80
-82 192 -199 249 -262 101 -109 104 -114 88 -132 -9 -11 -21 -19 -26 -19 -9 0
-73 67 -167 175 -29 33 -59 64 -68 68 -16 10 -53 -17 -53 -39 0 -7 43 -61 96
-120 52 -59 102 -120 110 -135 13 -27 12 -30 -17 -64 -17 -19 -35 -35 -39 -35
-5 0 -57 49 -116 110 -59 60 -116 112 -125 115 -24 8 -59 -11 -59 -31 0 -9 41
-58 90 -109 50 -51 90 -95 90 -97 0 -1 -89 -3 -197 -3 -171 -1 -208 -4 -273
-22 -121 -34 -178 -59 -309 -133 -112 -63 -160 -82 -120 -47 8 7 57 52 109 98
52 47 187 163 300 257 320 267 384 322 393 338 10 18 -17 54 -41 54 -8 0 -58
-37 -111 -83 -53 -45 -177 -150 -276 -232 -237 -197 -409 -348 -519 -456 -87
-85 -90 -87 -113 -72 -13 9 -37 18 -54 22 -30 6 -25 12 268 296 164 160 381
369 482 465 101 96 197 190 214 208 17 17 35 32 40 32 6 0 75 -66 154 -147z
m2219 4 c185 -190 344 -357 518 -542 88 -94 189 -200 225 -237 l65 -67 -30
-11 c-16 -6 -36 -18 -45 -26 -15 -13 -39 8 -245 220 -126 130 -237 236 -246
236 -10 0 -44 -24 -75 -53 -32 -30 -100 -92 -151 -140 l-94 -85 -58 36 c-32
20 -66 42 -76 49 -17 11 -9 22 94 122 61 61 112 114 112 117 0 14 -33 44 -49
44 -9 0 -46 -30 -81 -66 -36 -36 -90 -87 -120 -114 l-56 -48 -62 20 c-34 11
-62 23 -62 28 0 9 335 333 349 338 5 2 44 -36 86 -83 43 -47 86 -85 96 -85 25
0 51 39 39 59 -6 9 -54 63 -108 120 -92 96 -100 103 -121 92 -12 -7 -106 -93
-209 -193 -103 -99 -199 -188 -213 -198 l-26 -19 -46 54 -47 54 252 250 c139
138 255 251 258 251 4 0 60 -55 126 -123z m-1050 -89 c99 -101 227 -232 284
-293 l103 -110 -29 -7 c-16 -3 -63 -11 -105 -17 -41 -7 -103 -20 -136 -30
l-62 -19 -138 146 c-76 80 -150 158 -165 174 -37 40 -88 33 -88 -11 0 -9 70
-89 155 -179 85 -89 155 -164 155 -166 0 -2 -30 -23 -67 -45 l-66 -42 -167
165 c-91 91 -171 166 -177 166 -19 0 -45 -38 -39 -57 3 -10 71 -83 151 -162
80 -80 148 -153 151 -163 4 -14 -7 -30 -38 -58 -24 -22 -48 -39 -53 -40 -6 0
-49 39 -95 86 -47 47 -93 90 -102 95 -22 12 -58 -5 -58 -27 0 -8 43 -60 95
-115 52 -54 95 -105 95 -112 0 -8 -10 -23 -23 -35 l-22 -21 -85 77 c-47 42
-108 93 -135 113 -56 41 -195 114 -238 124 -15 4 -26 12 -25 17 6 16 722 728
733 728 6 0 92 -82 191 -182z m1554 -721 c0 -5 -8 -6 -17 -3 -43 13 -266 24
-352 18 -92 -7 -136 0 -136 24 0 15 33 52 139 154 l99 94 133 -139 c73 -77
133 -144 134 -148z m-959 184 c152 -39 306 -136 455 -285 106 -107 184 -200
184 -220 0 -6 -29 -24 -65 -40 l-66 -29 -36 44 c-355 427 -859 465 -1225 92
-42 -43 -136 -152 -208 -243 -199 -249 -312 -358 -465 -447 -76 -45 -132 -98
-161 -153 -14 -26 -19 -57 -19 -120 0 -75 3 -91 27 -131 32 -54 72 -91 137
-124 45 -23 47 -25 104 -163 31 -76 57 -153 57 -169 0 -40 -11 -93 -19 -93 -3
0 -34 55 -68 123 -79 158 -113 204 -169 229 -53 23 -96 17 -129 -18 l-22 -24
-23 25 -22 24 27 56 c58 117 18 275 -69 275 -49 0 -60 -46 -21 -91 33 -41 40
-87 20 -135 l-16 -39 -14 26 c-29 55 -87 41 -65 -16 6 -15 8 -30 6 -33 -3 -3
-33 1 -66 8 -33 7 -63 10 -67 6 -17 -16 14 -62 57 -84 37 -19 54 -22 97 -17
45 6 52 4 58 -14 11 -37 125 -130 221 -182 119 -64 144 -85 189 -160 34 -55
36 -62 25 -94 -6 -19 -15 -35 -18 -35 -4 0 -30 15 -57 34 -74 49 -263 155
-290 162 -18 4 -26 0 -35 -17 -11 -20 -9 -25 20 -49 l33 -27 -86 -26 c-87 -28
-160 -75 -206 -132 l-21 -28 -1 27 c-1 14 -2 37 -2 51 0 47 3 52 52 86 27 18
59 50 70 70 26 46 28 136 4 186 -19 40 -80 89 -124 98 l-29 7 0 193 c0 228
-12 204 144 292 264 148 460 329 761 703 222 276 332 394 455 484 203 150 444
198 681 137z m1919 -16 c0 -47 -47 -135 -72 -135 -16 0 -8 38 23 98 32 66 49
78 49 37z m-5466 -27 c26 -47 37 -96 21 -99 -13 -3 -51 66 -60 109 -9 46 9 41
39 -10z m1838 -22 c113 -22 254 -72 330 -117 89 -53 206 -146 247 -198 l33
-41 -27 -36 -28 -36 -98 98 c-84 84 -102 97 -117 88 -34 -22 -25 -44 51 -123
41 -44 83 -90 92 -104 15 -23 15 -27 1 -44 -9 -10 -21 -26 -29 -36 -12 -17
-17 -13 -72 45 -275 289 -542 412 -917 420 -64 2 -114 6 -110 9 28 26 194 74
317 93 53 8 248 -3 327 -18z m-308 -191 c163 -29 312 -96 456 -203 81 -60 185
-160 214 -204 18 -28 18 -28 -12 -62 l-30 -35 -58 66 c-161 183 -349 305 -550
358 -88 23 -282 40 -329 29 -36 -9 -40 -13 -40 -39 l0 -30 115 -6 c243 -13
388 -62 555 -186 91 -67 232 -213 241 -248 3 -14 -1 -30 -12 -43 -16 -20 -19
-17 -148 113 -176 179 -309 263 -330 209 -10 -27 -7 -31 46 -65 132 -85 338
-282 338 -324 0 -11 -9 -29 -21 -41 l-21 -22 -89 98 c-215 237 -454 373 -749
426 -118 21 -332 22 -407 1 -29 -8 -53 -11 -53 -6 0 4 21 30 48 56 79 82 251
148 450 172 99 12 272 6 386 -14z m2983 -38 c45 -13 99 -36 120 -50 44 -31
149 -134 142 -141 -2 -3 -36 2 -74 10 -53 12 -106 14 -215 10 -80 -3 -154 -7
-166 -8 -15 -2 -41 21 -103 95 -47 55 -79 102 -75 109 13 20 276 3 371 -25z
m-1004 8 c89 -23 176 -63 246 -113 73 -52 221 -191 221 -208 0 -7 -11 -19 -24
-27 -24 -16 -26 -15 -92 49 -164 159 -323 222 -528 211 -248 -14 -447 -153
-644 -451 -43 -64 -81 -110 -111 -131 -50 -37 -98 -91 -125 -143 -10 -19 -21
-30 -28 -26 -6 4 -28 12 -50 18 l-39 12 72 75 c87 90 192 214 292 346 88 116
240 264 322 313 33 19 95 47 140 62 67 23 97 28 185 28 62 0 129 -6 163 -15z
m-2896 -43 c13 -8 -168 -219 -213 -249 -29 -18 -114 -134 -114 -154 0 -9 -3
-10 -10 -3 -17 17 7 151 39 215 53 106 120 172 195 189 42 11 88 11 103 2z
m4299 -3 c119 -30 245 -222 244 -372 l-1 -52 -21 40 c-11 22 -59 78 -107 125
-48 47 -116 119 -151 160 -36 41 -68 77 -72 78 -5 2 -8 10 -8 18 0 17 53 19
116 3z m-5027 -38 c85 -85 162 -231 122 -231 -11 0 -99 69 -123 96 -35 40 -73
174 -49 174 6 0 29 -18 50 -39z m5707 -1 c-12 -73 -37 -119 -98 -175 -67 -62
-88 -69 -88 -27 0 48 143 242 178 242 11 0 13 -9 8 -40z m-2039 -110 c76 -26
156 -74 229 -136 79 -68 82 -76 38 -117 l-37 -34 -63 48 c-106 80 -228 115
-374 106 -178 -10 -294 -84 -450 -285 l-25 -32 -67 11 -67 12 16 31 c24 48
115 165 174 225 143 143 292 205 469 197 61 -3 117 -12 157 -26z m-2417 -85
c227 -55 401 -147 571 -304 74 -68 159 -169 159 -187 -1 -18 -145 -121 -228
-163 l-38 -19 -37 73 c-21 40 -61 99 -88 131 -28 31 -62 75 -76 96 -23 34 -53
51 -53 30 0 -4 -40 -61 -90 -127 -49 -66 -97 -138 -106 -162 -14 -37 -21 -43
-45 -43 -32 0 -41 -21 -60 -145 -33 -207 23 -344 195 -480 l38 -30 -40 -75
c-22 -41 -46 -95 -53 -120 -18 -65 -24 -67 -48 -10 -16 38 -19 55 -11 69 30
57 -3 115 -61 109 -53 -5 -59 -38 -25 -140 16 -46 39 -104 52 -130 13 -26 24
-50 24 -53 0 -7 -44 21 -111 72 -98 74 -111 157 -58 365 26 100 31 134 26 192
-6 89 -29 147 -73 185 -30 27 -37 29 -63 20 -17 -6 -50 -28 -74 -49 -24 -22
-47 -36 -51 -33 -8 8 -8 477 1 499 14 38 80 -172 89 -289 l7 -79 36 7 c20 4
42 11 49 17 50 42 -85 447 -190 568 -41 47 -43 46 -107 -39 -106 -144 -131
-258 -131 -612 l0 -250 -29 33 c-53 61 -111 161 -132 227 -29 96 -45 300 -31
400 32 226 197 387 467 458 65 17 306 10 395 -12z m3573 -11 c239 -53 413
-233 438 -451 10 -88 -4 -280 -26 -368 -19 -73 -46 -125 -109 -210 l-51 -69
-6 284 c-5 273 -7 289 -32 373 -15 49 -37 107 -48 130 -31 59 -99 147 -115
147 -18 0 -89 -90 -121 -154 -35 -70 -99 -259 -113 -335 -16 -88 -9 -108 41
-121 23 -6 42 -10 43 -8 2 2 8 44 14 94 12 104 70 293 83 272 5 -7 9 -124 9
-260 l0 -248 -52 40 c-29 22 -68 43 -87 46 -31 6 -38 3 -67 -29 -43 -46 -59
-103 -58 -207 1 -62 8 -108 28 -169 19 -63 26 -105 26 -165 -1 -108 -20 -149
-96 -208 -98 -75 -127 -83 -89 -24 17 26 85 222 85 247 0 22 -37 59 -60 59
-10 0 -30 -10 -45 -22 -25 -22 -25 -25 -14 -78 10 -48 9 -60 -7 -97 -10 -24
-22 -43 -25 -43 -4 0 -9 19 -13 41 -4 23 -24 79 -46 125 -22 45 -40 87 -40 93
0 5 20 24 44 40 66 46 132 125 157 189 27 71 35 201 20 301 -15 98 -30 126
-62 124 -20 -1 -28 7 -42 42 -10 24 -50 83 -88 132 -39 48 -79 105 -90 126
-23 43 -31 45 -51 15 -9 -13 -45 -58 -82 -101 -70 -83 -101 -134 -120 -201 -8
-28 -18 -42 -31 -44 -138 -21 -201 -60 -241 -146 -32 -68 -33 -167 -3 -231 12
-25 25 -48 30 -51 16 -9 10 -40 -12 -60 -19 -17 -21 -18 -30 -1 -30 52 -110
57 -179 11 -49 -32 -76 -74 -144 -219 -29 -64 -57 -112 -60 -106 -4 6 -10 33
-13 61 -7 59 27 177 80 275 26 48 43 65 89 92 32 19 69 49 84 68 30 39 54 112
54 164 0 33 4 38 55 65 30 17 57 37 61 45 3 9 19 54 35 100 67 197 166 325
359 468 93 69 254 139 374 163 74 14 282 11 359 -6z m-4712 -119 c26 -6 26 -7
32 -138 3 -72 4 -133 2 -135 -9 -9 -135 294 -135 324 0 10 12 6 38 -15 20 -16
49 -33 63 -36z m5479 -86 c-28 -74 -58 -150 -65 -169 -13 -32 -14 -25 -15 102
l0 136 44 21 c24 12 52 31 62 42 32 36 26 5 -26 -132z m-1987 76 c78 -16 152
-54 196 -99 l30 -31 -25 -33 -26 -32 -36 31 c-128 113 -341 119 -485 13 -26
-19 -67 -61 -90 -94 -23 -32 -44 -59 -47 -59 -3 0 -16 8 -29 19 l-23 20 31 49
c47 72 142 158 208 187 101 45 183 53 296 29z m-17 -173 c55 -19 105 -55 124
-87 9 -17 4 -35 -28 -105 -22 -47 -47 -108 -56 -137 -10 -28 -26 -64 -38 -78
l-20 -26 -28 43 c-40 62 -87 103 -152 133 -62 28 -91 27 -108 -5 -16 -29 -2
-47 46 -64 135 -46 199 -178 143 -294 -40 -82 -125 -107 -180 -53 -23 23 -29
38 -29 72 0 74 60 110 82 49 14 -43 41 -55 63 -30 42 47 8 119 -66 142 -33 9
-43 8 -85 -13 -60 -30 -84 -73 -84 -149 0 -74 37 -128 118 -176 2 -1 -8 -30
-22 -65 -15 -34 -26 -72 -26 -83 -1 -12 -9 4 -20 34 -24 72 -98 143 -144 138
-22 -2 -37 -13 -53 -37 -21 -31 -23 -46 -23 -155 0 -126 -13 -200 -33 -193
-17 5 -45 95 -57 179 -11 77 -6 144 17 227 18 69 35 93 83 125 22 14 52 45 67
67 l27 41 -23 19 c-32 26 -42 24 -77 -12 -95 -100 -254 -88 -324 25 -95 154 7
341 186 340 121 -1 209 -72 247 -201 22 -76 34 -85 81 -67 21 8 21 90 0 143
-15 39 -15 41 12 91 78 143 238 211 380 162z m-2846 -529 l0 -445 -35 42 -35
42 0 297 c0 166 5 324 11 357 14 83 41 164 51 158 4 -3 8 -206 8 -451z m4205
385 c30 -107 35 -167 35 -462 l0 -302 -35 -34 -35 -34 0 442 c0 280 4 442 10
442 5 0 16 -24 25 -52z m-3417 -95 c57 -69 92 -123 92 -143 0 -11 -15 -24 -40
-34 l-40 -16 0 -248 0 -248 -35 -17 c-20 -9 -37 -17 -38 -17 -2 0 -3 118 -3
262 l1 261 -27 8 c-31 8 -52 -9 -42 -35 11 -30 -11 -16 -39 26 -19 26 -27 48
-23 62 6 25 132 186 145 186 5 0 27 -21 49 -47z m2721 -40 c39 -48 71 -96 71
-105 0 -10 -13 -37 -30 -60 l-30 -41 0 31 c0 27 -4 32 -23 32 -13 0 -31 -6
-41 -13 -17 -13 -18 -30 -14 -265 4 -226 3 -252 -11 -248 -9 2 -26 7 -38 11
l-23 6 0 239 c0 131 -3 245 -6 254 -4 10 -18 16 -40 16 -19 0 -34 5 -34 11 0
33 119 217 141 219 4 0 39 -39 78 -87z m-1741 -55 c42 -22 46 -27 59 -81 18
-79 36 -111 103 -177 71 -70 93 -131 92 -255 -1 -103 -54 -295 -81 -295 -16 0
-23 45 -28 185 -3 89 -10 150 -19 167 -16 30 -44 43 -78 34 -36 -9 -105 -86
-117 -131 -26 -94 -21 -99 -74 75 -4 11 6 20 29 28 60 22 112 68 140 123 31
63 33 117 6 177 -16 36 -23 42 -49 42 -43 0 -53 -24 -30 -75 31 -70 -1 -143
-78 -177 -101 -45 -223 24 -248 139 -19 90 69 206 185 244 43 14 138 2 188
-23z m-1159 -288 c7 -19 15 -86 18 -149 6 -112 6 -113 -15 -102 -24 13 -50 48
-82 110 -28 56 -37 169 -20 241 l13 53 37 -59 c20 -33 42 -75 49 -94z m3058
48 c8 -113 -7 -173 -63 -248 -24 -33 -49 -60 -55 -60 -17 0 -5 213 15 267 20
57 78 145 89 134 4 -4 10 -46 14 -93z m-436 66 c52 -26 54 -34 57 -234 l4
-187 -46 -17 c-62 -24 -95 -52 -117 -100 -23 -50 -24 -105 -3 -154 18 -45 66
-96 104 -112 25 -10 28 -17 33 -78 3 -37 4 -68 3 -69 -2 -2 -16 16 -33 40 -39
53 -124 104 -219 132 l-73 21 29 18 c32 19 42 62 16 72 -17 7 -167 -72 -284
-150 l-83 -54 -14 35 c-8 20 -15 39 -15 43 0 4 21 39 46 78 48 71 49 72 227
172 32 18 88 62 125 98 66 64 68 65 117 63 73 -3 139 32 143 77 3 30 1 32 -26
32 -16 0 -46 -7 -65 -15 -52 -22 -60 -19 -42 14 19 37 10 61 -21 61 -18 0 -27
-9 -37 -32 l-14 -33 -16 32 c-10 19 -17 55 -17 88 0 141 106 218 221 159z
m-2987 -181 c9 -26 16 -66 16 -90 0 -55 -39 -215 -51 -207 -5 3 -9 39 -9 80
l0 74 -30 0 c-25 0 -30 -4 -36 -34 -3 -19 -4 -77 -2 -129 l3 -94 -21 14 c-29
19 -34 40 -34 166 0 80 4 116 16 139 21 40 103 128 119 128 7 0 20 -21 29 -47z
m1863 0 c-3 -10 -5 -2 -5 17 0 19 2 27 5 18 2 -10 2 -26 0 -35z m1904 0 c79
-83 79 -82 79 -233 0 -124 -2 -136 -20 -148 -11 -7 -23 -12 -26 -12 -3 0 -6
55 -7 123 l-2 122 -32 3 c-30 3 -33 1 -34 -25 -1 -15 -3 -37 -4 -48 -1 -11 -3
-36 -4 -55 l-2 -35 -13 35 c-21 57 -39 179 -33 225 8 52 26 95 41 95 7 0 32
-21 57 -47z m-2176 -364 c5 -21 1 -19 -29 13 -43 45 -46 81 -14 148 l22 45 7
-91 c4 -50 10 -102 14 -115z m545 169 c12 -19 20 -51 20 -76 0 -35 -6 -49 -36
-80 -24 -25 -34 -30 -29 -17 4 11 9 62 12 113 3 50 8 92 10 92 2 0 12 -15 23
-32z m484 -57 c3 -4 -16 -22 -42 -38 -26 -16 -60 -38 -77 -49 l-29 -19 24 44
c34 60 76 94 100 81 10 -6 21 -14 24 -19z m-1482 -8 c31 -34 63 -83 54 -83 -6
0 -113 65 -125 76 -2 2 -1 10 2 19 10 23 41 18 69 -12z m718 -79 c0 -8 14 -58
32 -111 l31 -95 -24 -97 c-21 -85 -23 -119 -24 -303 l0 -208 -26 0 -27 0 -5
223 c-4 187 -8 235 -27 306 l-22 83 36 92 c20 50 36 99 36 109 0 9 5 17 10 17
6 0 10 -7 10 -16z m1315 -29 c83 -62 130 -169 141 -319 l7 -81 -41 -22 c-22
-13 -42 -23 -45 -23 -4 0 1 19 10 43 22 61 22 180 -1 250 -26 78 -78 136 -131
144 l-40 6 33 -37 c41 -46 41 -78 2 -118 -27 -26 -36 -30 -67 -25 -47 8 -72
33 -80 80 -18 115 112 179 212 102z m-2488 6 c69 -43 48 -160 -34 -185 -33
-10 -91 18 -99 48 -8 35 1 57 44 104 30 32 35 42 23 45 -9 3 -5 5 9 6 14 0 39
-8 57 -18z m-178 -33 c-31 -33 -67 -118 -78 -188 -9 -56 -5 -118 14 -192 9
-34 -1 -35 -40 -4 -28 22 -29 28 -28 88 3 97 44 215 94 272 22 25 45 46 50 46
5 0 0 -10 -12 -22z m1051 -64 c93 -70 143 -160 162 -291 6 -44 8 -103 4 -135
l-7 -58 -41 81 c-32 65 -106 172 -137 199 -3 3 -22 24 -43 47 -34 38 -36 44
-27 80 5 21 9 60 9 86 0 55 -3 55 80 -9z m661 -57 l10 -58 -63 -72 c-92 -104
-121 -143 -162 -222 l-36 -70 3 125 c3 83 10 140 21 170 26 71 84 146 150 196
l61 46 3 -28 c1 -16 7 -55 13 -87z m965 -129 c-11 -99 -52 -228 -74 -228 -4 0
-7 54 -7 119 l0 120 35 24 c19 14 39 26 44 26 5 1 6 -27 2 -61z m-2643 33 l37
-19 4 -116 c3 -67 1 -116 -4 -116 -16 0 -51 79 -66 149 -12 60 -18 121 -11
121 1 0 19 -8 40 -19z m974 -156 c53 -70 118 -202 128 -260 l7 -40 -22 35
c-38 59 -146 193 -194 240 -25 24 -46 47 -46 51 0 4 7 23 16 44 l15 37 26 -23
c13 -13 45 -51 70 -84z m767 71 c3 -13 8 -30 11 -38 4 -9 -27 -50 -78 -105
-46 -50 -103 -123 -126 -162 -24 -39 -45 -70 -47 -68 -12 11 34 146 71 209 41
71 138 188 155 188 4 0 11 -11 14 -24z m-1158 -1 c74 -22 168 -87 260 -179 72
-72 184 -223 184 -247 0 -13 -72 -11 -170 5 -104 17 -140 26 -140 35 1 3 19
19 41 34 30 20 39 33 37 50 -5 35 -55 26 -126 -21 -71 -49 -68 -48 -109 -39
-48 10 -42 34 22 97 30 30 55 59 55 66 0 24 -43 64 -80 75 -63 19 -123 -3
-190 -70 -30 -31 -60 -65 -66 -75 -7 -14 -16 -17 -28 -13 -18 7 -18 9 -2 26
18 20 13 46 -12 56 -19 7 -45 -22 -38 -42 7 -18 -15 -16 -42 3 -27 19 -28 34
-2 84 37 74 123 141 205 161 52 12 149 10 201 -6z m1657 1 c93 -28 198 -131
201 -198 1 -34 -2 -36 -91 -77 l-42 -19 -26 43 c-69 118 -199 167 -279 104
-36 -28 -33 -59 10 -100 42 -41 78 -95 70 -108 -3 -5 -22 -12 -41 -15 -31 -6
-41 -3 -68 21 -55 47 -124 80 -144 67 -30 -19 -21 -46 25 -77 27 -18 40 -33
34 -39 -10 -10 -151 -33 -249 -41 -72 -6 -72 -7 -7 96 93 144 268 297 388 339
62 21 156 23 219 4z m-1752 -231 c-16 -14 -40 -41 -51 -60 -25 -41 -40 -45
-40 -11 0 29 70 96 101 96 18 0 17 -3 -10 -25z m1659 2 c45 -30 79 -86 59 -98
-10 -6 -19 2 -32 29 -10 20 -33 49 -50 65 -38 33 -23 36 23 4z"/>
<path d="M4487 8094 c-13 -14 -7 -62 9 -68 27 -10 56 12 52 42 -2 20 -9 28
-28 30 -14 2 -29 0 -33 -4z"/>
<path d="M5854 8073 c-8 -30 15 -54 46 -46 44 12 35 73 -10 73 -24 0 -31 -5
-36 -27z"/>
<path d="M5712 8044 c-25 -17 -29 -56 -7 -74 35 -29 83 17 62 59 -16 31 -27
35 -55 15z"/>
<path d="M4648 8025 c-10 -22 -9 -29 9 -46 37 -37 91 0 72 49 -12 33 -65 31
-81 -3z"/>
<path d="M4188 7955 c-25 -55 39 -109 82 -70 22 20 26 65 8 83 -7 7 -27 12
-45 12 -26 0 -36 -6 -45 -25z"/>
<path d="M6132 7968 c-39 -39 12 -113 63 -90 28 13 43 57 28 81 -12 20 -74 26
-91 9z"/>
<path d="M5230 7930 c-13 -8 -15 -105 -13 -787 2 -1212 0 -1111 22 -1118 10
-3 26 -3 35 1 15 6 16 84 16 948 0 719 -3 945 -12 954 -14 14 -28 15 -48 2z"/>
<path d="M4480 7890 c-14 -25 -5 -57 19 -70 40 -21 81 46 49 78 -19 19 -56 14
-68 -8z"/>
<path d="M5853 7884 c-23 -35 -7 -59 38 -59 30 0 34 3 37 28 7 56 -44 77 -75
31z"/>
<path d="M5431 7844 c-40 -51 24 -119 70 -73 23 23 25 62 3 83 -23 23 -50 20
-73 -10z"/>
<path d="M5040 7841 c-24 -47 0 -111 42 -111 39 0 66 88 36 118 -19 19 -66 15
-78 -7z"/>
<path d="M4053 7820 c-67 -41 -107 -135 -101 -240 5 -87 42 -151 112 -195 42
-26 59 -30 115 -30 97 1 172 47 215 132 20 40 21 125 1 162 -33 65 -109 103
-185 95 -35 -4 -40 -2 -40 15 0 25 -47 81 -68 81 -10 0 -31 -9 -49 -20z m47
-125 c0 -39 -19 -84 -44 -104 -36 -30 -27 57 12 117 21 32 32 27 32 -13z m199
-64 c42 -59 15 -138 -62 -177 -35 -19 -95 -14 -132 10 -30 20 -31 27 -6 57 16
21 31 25 97 29 67 4 79 8 82 24 6 27 -12 39 -65 46 -44 5 -46 6 -29 23 11 10
33 17 56 17 31 0 43 -6 59 -29z"/>
<path d="M6312 7824 c-12 -8 -29 -28 -37 -45 -14 -25 -21 -29 -60 -29 -75 0
-137 -37 -171 -102 -22 -43 -18 -136 9 -183 28 -50 104 -102 160 -110 135 -21
271 106 270 253 0 69 -31 147 -76 190 -41 39 -67 46 -95 26z m68 -148 c12 -30
20 -65 18 -78 -3 -22 -4 -22 -30 12 -26 34 -31 53 -29 98 2 37 18 25 41 -32z
m-135 -36 c18 -20 17 -20 -28 -20 -42 0 -77 -18 -77 -39 0 -23 32 -33 83 -27
45 6 58 4 87 -16 46 -31 49 -53 9 -73 -42 -22 -111 -23 -143 -1 -59 38 -80
111 -47 164 18 27 27 32 59 32 26 0 45 -7 57 -20z"/>
<path d="M3752 7718 c-25 -25 -6 -68 30 -68 26 0 45 44 28 65 -15 18 -41 20
-58 3z"/>
<path d="M6597 7724 c-4 -4 -7 -20 -7 -35 0 -22 6 -30 26 -35 31 -8 45 9 42
46 -2 18 -10 26 -28 28 -14 2 -29 0 -33 -4z"/>
<path d="M4582 7693 c-18 -7 -33 -39 -26 -58 10 -25 41 -37 64 -25 27 14 27
65 1 80 -11 5 -21 10 -23 9 -2 0 -9 -3 -16 -6z"/>
<path d="M5832 7688 c-16 -16 -15 -53 3 -68 21 -17 47 -9 64 22 13 22 13 29 2
42 -16 19 -52 21 -69 4z"/>
<path d="M3643 7653 c-7 -2 -13 -16 -13 -29 0 -19 5 -24 26 -24 22 0 25 4 22
27 -3 27 -14 35 -35 26z"/>
<path d="M6725 7640 c-12 -37 20 -55 45 -25 10 12 10 18 0 30 -17 21 -37 19
-45 -5z"/>
<path d="M5434 7606 c-15 -24 -15 -28 0 -51 20 -30 47 -32 72 -4 17 19 17 23
3 47 -20 37 -53 40 -75 8z"/>
<path d="M5053 7573 c-10 -3 -13 -40 -13 -133 0 -134 7 -156 47 -148 35 6 44
46 37 158 -3 58 -9 108 -13 111 -10 11 -45 18 -58 12z"/>
<path d="M3827 7483 c-4 -3 -7 -15 -7 -25 0 -21 45 -26 52 -5 11 28 -24 52
-45 30z"/>
<path d="M6517 7484 c-4 -4 -7 -16 -7 -26 0 -14 6 -19 23 -16 14 2 22 10 22
23 0 20 -25 32 -38 19z"/>
<path d="M3158 7339 c-38 -21 -11 -74 34 -67 26 3 37 41 18 64 -14 16 -28 17
-52 3z"/>
<path d="M7186 7334 c-23 -22 -20 -43 8 -56 35 -15 56 -4 56 31 0 40 -35 54
-64 25z"/>
<path d="M4100 7180 c-25 -6 -25 -7 -28 -132 -2 -120 -1 -128 18 -138 32 -17
63 -8 71 20 9 33 11 145 3 203 -7 49 -20 58 -64 47z"/>
<path d="M6229 7153 c-1 -83 3 -226 8 -239 7 -18 57 -18 72 0 8 9 11 55 9 137
l-3 124 -42 3 c-41 3 -43 2 -44 -25z"/>
<path d="M3135 7150 c-27 -30 -7 -70 35 -70 24 0 31 5 36 27 13 52 -36 82 -71
43z"/>
<path d="M7202 7158 c-17 -17 -15 -65 4 -72 29 -11 53 -6 64 13 14 27 13 37
-6 55 -18 19 -45 21 -62 4z"/>
<path d="M6074 6994 c-4 -14 -4 -60 -2 -102 4 -69 9 -84 46 -142 36 -58 39
-66 24 -74 -36 -19 -62 -50 -62 -75 1 -28 13 -46 129 -190 70 -87 75 -91 95
-78 38 25 30 49 -44 136 -38 46 -70 86 -70 90 0 19 63 90 85 95 13 3 30 16 36
28 10 18 9 24 -6 33 -119 71 -135 93 -142 195 -7 106 -9 110 -48 110 -29 0
-36 -4 -41 -26z"/>
<path d="M2984 6990 c-30 -12 -64 -58 -64 -87 0 -32 26 -80 49 -93 11 -5 40
-10 65 -10 36 0 50 6 75 31 82 82 -14 204 -125 159z"/>
<path d="M7320 6978 c-84 -57 -49 -178 50 -178 110 0 158 94 86 166 -41 41
-87 45 -136 12z"/>
<path d="M4358 6743 c-120 -141 -265 -325 -279 -356 -13 -28 0 -57 26 -57 7 0
61 60 121 133 60 72 144 174 186 225 43 51 78 100 78 110 0 21 -18 42 -36 42
-7 0 -50 -44 -96 -97z"/>
<path d="M4365 6538 c-44 -50 -102 -117 -130 -147 -106 -118 -146 -170 -154
-199 -9 -31 1 -52 25 -52 7 0 55 51 107 113 52 61 138 161 191 220 53 59 96
114 96 120 0 18 -21 37 -39 37 -9 0 -52 -41 -96 -92z"/>
<path d="M4092 6568 c-17 -17 -15 -57 3 -64 23 -9 46 16 43 45 -3 29 -27 38
-46 19z"/>
<path d="M6264 6545 c-9 -23 3 -45 25 -45 25 0 34 14 26 40 -7 23 -43 27 -51
5z"/>
<path d="M6042 6478 c-7 -7 -12 -18 -12 -26 0 -17 236 -301 257 -309 8 -3 21
1 30 9 13 14 13 19 -2 47 -21 41 -211 268 -235 281 -23 13 -23 13 -38 -2z"/>
<path d="M5256 5688 c-17 -24 -41 5 206 -257 112 -119 118 -124 143 -113 14 6
25 19 25 27 0 25 -322 365 -345 365 -8 0 -21 -10 -29 -22z"/>
<path d="M4105 3707 c-25 -19 -13 -50 17 -45 17 2 23 10 23 27 0 30 -14 36
-40 18z"/>
<path d="M4502 4918 c-17 -17 -15 -64 4 -82 18 -19 65 -21 82 -4 18 18 14 63
-6 81 -22 20 -63 22 -80 5z"/>
<path d="M3290 4506 c0 -18 27 -39 40 -31 5 3 10 15 10 26 0 14 -7 19 -25 19
-15 0 -25 -6 -25 -14z"/>
<path d="M3190 4480 c0 -11 6 -20 13 -20 19 0 27 10 20 26 -8 21 -33 17 -33
-6z"/>
<path d="M3456 4468 c-9 -37 -8 -40 22 -36 21 2 27 8 27 28 0 35 -40 41 -49 8z"/>
<path d="M3077 4463 c-8 -7 11 -33 24 -33 5 0 9 9 9 20 0 19 -20 27 -33 13z"/>
<path d="M3687 4463 c-4 -3 -7 -15 -7 -25 0 -13 7 -18 25 -18 27 0 33 18 13
38 -14 14 -22 15 -31 5z"/>
<path d="M3554 4405 c-15 -23 -15 -28 -3 -36 8 -5 17 -9 20 -9 13 0 31 30 27
46 -5 28 -25 27 -44 -1z"/>
<path d="M3000 4396 c0 -7 7 -19 15 -26 12 -10 15 -9 15 8 0 11 -7 22 -15 26
-9 3 -15 0 -15 -8z"/>
<path d="M3860 4395 c-16 -19 -6 -45 19 -45 23 0 35 28 20 46 -15 18 -24 18
-39 -1z"/>
<path d="M3323 4374 c-3 -9 2 -23 11 -32 14 -14 18 -15 25 -3 5 8 7 20 4 27
-7 20 -33 25 -40 8z"/>
<path d="M3693 4353 c-7 -2 -13 -16 -13 -29 0 -19 5 -24 25 -24 21 0 25 5 25
30 0 29 -9 35 -37 23z"/>
<path d="M2914 4336 c-7 -19 3 -36 22 -36 10 0 14 8 12 22 -4 26 -26 36 -34
14z"/>
<path d="M3427 4338 c-6 -18 11 -48 28 -48 15 0 30 35 20 50 -9 14 -42 12 -48
-2z"/>
<path d="M3555 4259 c-4 -12 -2 -26 4 -32 15 -15 46 16 38 37 -9 23 -34 20
-42 -5z"/>
<path d="M4040 4250 c0 -16 5 -21 23 -18 12 2 22 10 22 18 0 8 -10 16 -22 18
-18 3 -23 -2 -23 -18z"/>
<path d="M2836 4251 c-9 -14 4 -41 21 -41 9 0 13 8 11 22 -3 23 -23 35 -32 19z"/>
<path d="M3374 4225 c-8 -20 4 -35 27 -35 23 0 26 35 3 44 -22 8 -24 8 -30 -9z"/>
<path d="M3960 4200 c0 -13 7 -20 20 -20 13 0 20 7 20 20 0 13 -7 20 -20 20
-13 0 -20 -7 -20 -20z"/>
<path d="M2910 4194 c0 -9 5 -14 12 -12 18 6 21 28 4 28 -9 0 -16 -7 -16 -16z"/>
<path d="M3666 4169 c-38 -39 -41 -48 -8 -29 9 5 29 14 45 20 15 5 27 16 27
24 0 29 -26 22 -64 -15z"/>
<path d="M4136 4161 c-10 -16 5 -41 24 -41 17 0 34 33 22 44 -9 9 -40 7 -46
-3z"/>
<path d="M3491 4146 c-9 -10 -8 -16 3 -26 19 -15 36 -5 36 21 0 22 -22 25 -39
5z"/>
<path d="M2862 4103 c4 -22 43 -25 43 -3 0 8 -11 16 -23 18 -19 3 -23 0 -20
-15z"/>
<path d="M4247 4104 c-14 -14 -7 -35 11 -32 9 2 17 10 17 17 0 16 -18 25 -28
15z"/>
<path d="M3410 4057 c0 -27 19 -40 39 -27 20 12 8 45 -17 48 -18 3 -22 -1 -22
-21z"/>
<path d="M3576 4043 c-14 -15 -5 -43 14 -43 13 0 20 7 20 19 0 19 -23 35 -34
24z"/>
<path d="M2830 3995 c0 -9 9 -15 25 -15 16 0 25 6 25 15 0 9 -9 15 -25 15 -16
0 -25 -6 -25 -15z"/>
<path d="M3470 3905 c-10 -12 -10 -18 0 -30 17 -21 37 -19 45 5 12 37 -20 55
-45 25z"/>
<path d="M2855 3870 c-9 -15 4 -30 26 -30 12 0 19 7 19 20 0 21 -33 29 -45 10z"/>
<path d="M6912 4478 c-27 -27 5 -73 38 -53 20 12 4 65 -20 65 -3 0 -11 -5 -18
-12z"/>
<path d="M7136 4475 c-6 -17 17 -31 34 -20 5 3 10 13 10 21 0 19 -36 18 -44
-1z"/>
<path d="M7272 4453 c5 -25 28 -28 28 -4 0 12 -6 21 -16 21 -9 0 -14 -7 -12
-17z"/>
<path d="M6810 4405 c-8 -10 -9 -19 0 -35 14 -26 44 -22 48 7 4 28 -30 49 -48
28z"/>
<path d="M7010 4404 c0 -24 19 -54 35 -54 18 0 20 41 3 58 -17 17 -38 15 -38
-4z"/>
<path d="M7377 4393 c-12 -11 -7 -33 7 -33 12 0 26 20 26 36 0 7 -26 5 -33 -3z"/>
<path d="M6564 4356 c-7 -19 3 -36 22 -36 10 0 14 8 12 22 -4 26 -26 36 -34
14z"/>
<path d="M6695 4350 c-8 -25 10 -50 37 -50 16 0 19 6 16 33 -4 39 -42 52 -53
17z"/>
<path d="M6917 4344 c-12 -12 -8 -42 6 -47 21 -8 39 8 35 29 -3 19 -29 30 -41
18z"/>
<path d="M7460 4325 c0 -16 6 -25 15 -25 21 0 31 30 14 41 -23 14 -29 11 -29
-16z"/>
<path d="M6820 4252 c0 -26 27 -49 41 -35 17 17 6 48 -19 51 -16 3 -22 -2 -22
-16z"/>
<path d="M7552 4248 c-17 -17 -15 -38 3 -38 9 0 15 9 15 25 0 29 -1 30 -18 13z"/>
<path d="M6384 4229 c-8 -14 21 -43 35 -35 19 12 13 46 -8 46 -11 0 -23 -5
-27 -11z"/>
<path d="M6997 4226 c-6 -16 11 -36 30 -36 7 0 13 11 13 25 0 18 -5 25 -19 25
-10 0 -21 -6 -24 -14z"/>
<path d="M7470 4195 c0 -8 5 -15 10 -15 6 0 10 7 10 15 0 8 -4 15 -10 15 -5 0
-10 -7 -10 -15z"/>
<path d="M6680 4192 c0 -18 76 -69 87 -59 9 10 -50 67 -69 67 -10 0 -18 -4
-18 -8z"/>
<path d="M6284 4149 c-10 -16 23 -46 36 -33 6 6 8 18 4 27 -7 19 -29 22 -40 6z"/>
<path d="M6893 4149 c-14 -14 -6 -39 13 -39 8 0 14 10 14 25 0 27 -9 32 -27
14z"/>
<path d="M7517 4123 c-13 -12 -7 -33 8 -33 8 0 15 9 15 20 0 20 -11 26 -23 13z"/>
<path d="M6950 4070 c-13 -24 -5 -40 20 -40 22 0 34 28 19 46 -16 19 -26 17
-39 -6z"/>
<path d="M6802 4038 c-15 -15 3 -38 29 -38 23 0 24 13 3 34 -19 19 -17 19 -32
4z"/>
<path d="M6195 4010 c-7 -12 2 -30 16 -30 5 0 9 9 9 20 0 21 -15 27 -25 10z"/>
<path d="M7520 3994 c0 -9 7 -14 17 -12 25 5 28 28 4 28 -12 0 -21 -6 -21 -16z"/>
<path d="M6913 3913 c-7 -2 -13 -13 -13 -23 0 -22 19 -30 43 -18 14 7 15 13 7
28 -11 20 -16 22 -37 13z"/>
<path d="M7506 3874 c-4 -10 -1 -21 6 -26 19 -11 33 -4 33 18 0 24 -30 30 -39
8z"/>
<path d="M4589 3759 c-24 -46 33 -93 69 -57 18 18 14 56 -7 68 -30 16 -49 12
-62 -11z"/>
<path d="M4727 3719 c-29 -41 8 -83 53 -59 25 13 28 65 4 74 -27 10 -42 7 -57
-15z"/>
<path d="M6254 3702 c-17 -12 -23 -39 -11 -51 16 -16 54 -13 61 5 8 21 8 20
-10 38 -17 18 -24 19 -40 8z"/>
<path d="M6387 3153 c-12 -12 -7 -60 8 -73 34 -28 84 30 55 65 -13 15 -51 20
-63 8z"/>
<path d="M3960 3149 c-19 -34 -4 -69 28 -69 51 0 67 35 32 70 -26 26 -46 25
-60 -1z"/>
<path d="M4197 2783 c-11 -10 -8 -48 5 -61 15 -15 48 3 48 26 0 31 -35 54 -53
35z"/>
<path d="M6173 2783 c-18 -7 -16 -52 2 -59 19 -8 45 13 45 36 0 14 -23 34 -33
29 -1 0 -8 -3 -14 -6z"/>
<path d="M6235 2661 c-9 -11 -15 -26 -13 -34 5 -22 48 -2 48 22 0 29 -15 33
-35 12z"/>
<path d="M1609 8523 l-24 -28 28 24 c25 23 32 31 24 31 -2 0 -14 -12 -28 -27z"/>
<path d="M1725 8520 c-3 -6 1 -7 9 -4 18 7 21 14 7 14 -6 0 -13 -4 -16 -10z"/>
<path d="M2018 8523 c7 -3 16 -2 19 1 4 3 -2 6 -13 5 -11 0 -14 -3 -6 -6z"/>
<path d="M8970 8353 l-52 -127 18 -34 c10 -18 29 -46 42 -60 39 -45 138 -175
169 -223 15 -25 45 -65 66 -90 20 -26 37 -49 37 -53 0 -4 13 -19 29 -34 16
-15 32 -37 36 -49 3 -13 13 -23 21 -23 8 0 14 -6 14 -14 0 -8 10 -23 23 -33
12 -10 30 -31 41 -47 14 -22 20 -26 27 -15 7 11 9 9 9 -6 0 -11 20 -39 44 -62
24 -23 41 -44 38 -47 -3 -3 3 -8 12 -12 10 -4 51 -40 93 -82 41 -41 95 -90
119 -108 24 -18 53 -43 64 -54 11 -11 29 -20 40 -20 11 0 20 -7 20 -15 0 -8
11 -17 24 -21 16 -4 23 -11 19 -20 -3 -8 1 -14 11 -14 8 0 20 -9 26 -20 6 -11
19 -20 30 -20 30 0 49 -11 44 -25 -3 -7 10 -19 35 -28 21 -9 42 -21 46 -27 3
-6 11 -8 16 -5 5 4 9 2 9 -4 0 -14 38 -38 73 -46 l27 -7 -2 442 -3 442 -280
160 c-154 88 -305 174 -335 190 -30 17 -77 43 -105 58 -27 16 -85 49 -128 74
-43 25 -79 46 -81 46 -2 0 -64 36 -137 80 -73 44 -135 80 -139 80 -5 0 -31
-57 -60 -127z"/>
<path d="M1549 8453 c-13 -16 -12 -17 4 -4 9 7 17 15 17 17 0 8 -8 3 -21 -13z"/>
<path d="M1616 8412 l-19 -27 26 24 c28 26 32 31 20 31 -5 0 -17 -13 -27 -28z"/>
<path d="M1514 8408 l-19 -23 23 19 c21 18 27 26 19 26 -2 0 -12 -10 -23 -22z"/>
<path d="M1350 8400 c0 -5 4 -10 9 -10 5 0 28 -19 50 -42 22 -23 43 -39 47
-35 4 4 -12 28 -36 52 -42 43 -70 57 -70 35z"/>
<path d="M10198 4657 c-48 -77 -259 -507 -253 -517 3 -5 -1 -12 -8 -17 -8 -4
-19 -21 -25 -38 -10 -30 -112 -252 -178 -391 -19 -39 -34 -76 -34 -84 0 -7
-11 -36 -24 -64 -61 -128 -96 -207 -102 -233 -4 -15 -13 -37 -21 -49 -7 -11
-22 -49 -34 -85 -11 -35 -34 -93 -51 -128 -17 -35 -33 -82 -35 -105 -3 -22
-11 -48 -18 -56 -17 -21 -115 -322 -115 -354 0 -15 10 -35 24 -47 19 -16 24
-29 20 -48 -3 -14 -6 -34 -8 -43 -1 -10 -5 -21 -9 -24 -4 -4 -1 -14 6 -22 6
-9 -9 -4 -35 11 l-46 26 -60 -142 c-101 -238 -147 -353 -230 -577 -122 -330
-339 -988 -421 -1280 -9 -32 -10 -31 -5 15 l5 50 -44 -90 c-24 -49 -72 -125
-107 -168 -78 -97 -141 -189 -134 -196 6 -7 29 22 89 109 24 36 54 75 66 85
12 11 -2 -15 -32 -59 -30 -43 -62 -91 -72 -107 l-19 -29 360 0 361 0 39 82
c21 46 47 106 57 133 21 58 57 143 86 198 10 22 19 44 19 50 0 7 11 35 25 62
13 28 25 53 25 57 0 4 5 19 12 35 6 15 12 30 13 33 1 3 9 23 19 45 10 22 24
57 32 78 13 36 27 69 65 153 11 22 19 48 19 57 0 9 5 19 10 22 6 3 10 14 10
23 0 9 7 30 15 46 8 16 22 53 31 82 8 30 20 56 25 59 5 4 9 15 9 26 0 10 4 27
9 37 9 16 66 166 92 242 6 19 16 43 21 53 5 10 6 22 3 27 -4 6 -1 10 5 10 6 0
8 5 4 11 -3 6 -2 14 3 18 5 3 24 47 42 96 18 50 39 102 47 117 8 14 14 35 14
45 0 10 4 23 8 29 5 5 21 43 36 84 15 41 36 93 46 116 10 23 21 62 25 87 4 26
13 51 20 57 12 10 66 115 100 195 25 57 77 220 79 248 2 15 8 33 14 39 7 7 12
22 12 33 0 12 3 25 7 29 11 10 33 79 33 103 0 12 4 24 9 27 11 7 26 89 30 163
0 17 8 38 16 47 8 8 15 21 15 29 0 9 6 18 13 20 10 4 10 6 0 6 -7 1 -13 6 -13
12 0 6 7 9 14 6 10 -4 13 -1 9 9 -3 7 -10 14 -15 14 -6 0 -4 7 3 17 12 13 15
141 17 716 1 385 -1 704 -5 708 -5 5 -20 -11 -35 -34z m-3 -472 c40 -18 16
-19 -26 0 -19 8 -27 14 -19 14 8 0 29 -6 45 -14z m-55 -146 l25 -7 -25 -1
c-14 0 -38 6 -55 14 l-30 14 30 -6 c17 -3 41 -10 55 -14z m-70 -145 l35 -14
-35 6 c-40 7 -76 24 -50 23 8 0 31 -7 50 -15z m-50 -154 c23 -6 40 -13 37 -16
-7 -8 -97 17 -104 29 -4 6 0 8 10 4 9 -3 34 -11 57 -17z m-35 -171 c14 -6 9
-7 -15 -3 -19 4 -44 11 -55 15 -14 6 -9 7 15 3 19 -4 44 -11 55 -15z m-60
-155 l40 -14 -40 6 c-22 3 -53 12 -70 19 l-30 14 30 -6 c17 -3 48 -12 70 -19z
m-81 -150 c26 -9 45 -18 43 -20 -5 -5 -81 17 -91 27 -14 12 -7 11 48 -7z m11
-991 c-3 -10 -9 -29 -11 -43 -8 -37 -29 -61 -48 -54 -17 7 -22 24 -7 24 5 0
17 20 28 45 10 25 24 45 32 45 8 0 11 -6 6 -17z m-1328 -1945 c-3 -8 -6 -5 -6
6 -1 11 2 17 5 13 3 -3 4 -12 1 -19z m-10 -40 c-3 -8 -6 -5 -6 6 -1 11 2 17 5
13 3 -3 4 -12 1 -19z m-16 -64 c-5 -16 -10 -21 -10 -12 -1 18 10 51 15 45 2
-1 -1 -16 -5 -33z m-47 -49 c-6 -16 -24 -21 -24 -7 0 11 11 22 21 22 5 0 6 -7
3 -15z"/>
<path d="M2410 3297 c0 -14 -7 -31 -17 -38 -23 -20 -52 -87 -46 -110 7 -26 69
-79 93 -79 24 0 86 54 106 92 15 30 15 30 -28 72 -24 23 -58 52 -76 65 l-32
22 0 -24z m71 -89 l29 -33 -35 -35 -36 -35 -25 28 c-13 15 -24 31 -24 35 0 15
40 72 50 72 6 0 24 -15 41 -32z"/>
<path d="M7974 3299 c-4 -7 15 -31 46 -58 l53 -46 -28 -34 c-25 -29 -33 -32
-64 -28 l-36 6 35 -30 c19 -16 37 -28 41 -27 11 5 99 109 99 117 0 14 -108
111 -124 111 -8 0 -18 -5 -22 -11z"/>
<path d="M7920 3228 c-11 -12 -20 -25 -20 -29 0 -14 39 -20 60 -9 23 12 26 30
8 48 -17 17 -24 15 -48 -10z"/>
<path d="M2942 2897 l-32 -33 55 -48 c30 -26 53 -51 50 -55 -2 -5 -26 -14 -52
-20 -127 -31 -293 -86 -293 -97 0 -15 201 -204 217 -204 6 0 29 10 49 22 l37
22 -64 58 c-55 50 -61 58 -44 64 134 39 339 112 342 120 4 12 -209 204 -225
204 -4 0 -22 -15 -40 -33z"/>
<path d="M7443 2895 c-61 -41 -83 -77 -83 -137 0 -50 19 -82 60 -103 42 -22
84 -19 141 11 59 29 93 29 97 -2 4 -28 -41 -64 -80 -64 -27 0 -67 -31 -68 -52
-1 -20 43 -48 73 -48 111 1 207 119 175 215 -28 82 -115 103 -217 51 -57 -29
-81 -28 -81 3 0 20 43 61 64 61 33 1 38 17 17 59 -12 22 -27 41 -34 41 -7 0
-36 -16 -64 -35z"/>
<path d="M7163 2662 c-33 -26 -95 -71 -137 -100 l-77 -53 33 -39 c18 -22 36
-40 39 -40 3 0 26 16 50 35 l44 35 22 -27 c13 -16 58 -76 100 -135 43 -59 82
-107 86 -108 5 0 25 14 47 31 l38 31 -91 119 c-51 66 -96 127 -102 135 -8 12
-2 23 28 48 20 18 37 37 37 42 -1 5 -13 23 -28 41 l-28 32 -61 -47z"/>
<path d="M3175 2479 l-198 -131 29 -24 c52 -43 60 -45 87 -24 14 11 28 20 32
20 9 0 95 -60 116 -81 13 -13 17 -27 13 -47 -5 -26 -1 -32 41 -56 26 -15 48
-26 49 -24 1 1 18 107 36 235 28 191 31 235 20 247 -7 9 -16 16 -20 16 -4 0
-97 -59 -205 -131z m118 -86 c-3 -29 -8 -53 -12 -53 -11 0 -73 41 -69 45 7 8
83 62 84 61 1 0 -1 -25 -3 -53z"/>
<path d="M6827 2444 c-20 -13 -37 -29 -37 -34 0 -6 21 -48 46 -95 25 -47 44
-85 42 -85 -1 0 -57 18 -122 40 -137 46 -190 57 -200 41 -5 -8 161 -386 180
-410 7 -8 94 33 94 45 0 8 -22 58 -49 112 -35 69 -46 98 -36 100 15 4 169 -54
242 -91 46 -24 52 -25 72 -11 11 8 21 18 21 22 0 7 -205 380 -213 388 -2 2
-20 -8 -40 -22z"/>
<path d="M3636 2413 c-13 -21 -65 -108 -115 -193 -100 -170 -99 -159 -29 -196
l27 -14 52 98 53 97 19 -85 c11 -47 21 -87 23 -89 2 -2 9 1 16 7 17 13 131 72
134 69 2 -1 -17 -44 -42 -95 -24 -51 -44 -97 -44 -102 0 -9 88 -46 93 -39 11
14 177 405 177 416 0 16 -65 -7 -154 -53 -59 -31 -108 -54 -110 -53 -1 2 -10
54 -20 114 -28 169 -38 183 -80 118z"/>
<path d="M6384 2242 l-42 -16 -7 -143 c-4 -79 -11 -143 -15 -143 -5 0 -52 50
-106 110 -53 61 -102 108 -108 106 -6 -3 -28 -10 -48 -17 -21 -7 -38 -15 -38
-18 1 -25 337 -371 360 -371 14 0 21 9 25 33 10 62 24 203 30 302 3 55 8 117
10 138 6 42 2 43 -61 19z"/>
<path d="M4072 2013 l-162 -176 42 -24 41 -24 28 27 27 26 58 -20 c33 -12 71
-23 86 -26 21 -5 29 -14 34 -41 7 -38 20 -49 72 -58 23 -5 32 -3 32 7 0 18
-59 434 -65 464 -3 12 -11 22 -18 22 -7 0 -85 -80 -175 -177z m131 -70 c3 -27
4 -49 2 -51 -5 -6 -75 27 -75 35 0 11 49 63 59 63 5 0 11 -21 14 -47z"/>
<path d="M4515 2096 c-6 -16 -85 -415 -85 -425 0 -9 88 -26 96 -18 2 2 8 28
14 57 16 83 25 83 65 -3 37 -83 36 -82 107 -92 l46 -6 -35 81 c-19 45 -33 82
-31 83 1 1 17 9 33 17 18 9 39 34 54 63 48 97 2 189 -110 221 -91 27 -150 35
-154 22z m150 -132 c45 -29 22 -104 -31 -104 -39 0 -54 11 -54 40 0 73 33 98
85 64z"/>
<path d="M5763 2076 c-116 -24 -114 -21 -93 -123 5 -26 21 -112 36 -191 14
-78 29 -144 33 -146 6 -4 272 43 278 48 5 5 -29 96 -35 96 -4 0 -37 -7 -74
-16 -80 -20 -98 -15 -98 25 0 28 3 30 48 37 26 3 50 8 53 10 3 2 2 27 -4 55
-10 49 -11 51 -39 45 -97 -20 -88 -22 -88 17 0 40 0 40 94 56 33 6 60 12 62
13 1 2 -3 24 -9 51 -12 55 -8 55 -164 23z"/>
<path d="M4956 1988 c-3 -24 -14 -123 -24 -220 -18 -177 -18 -177 3 -182 11
-3 34 -6 50 -6 l31 0 18 178 c10 97 20 198 23 225 l6 47 -51 0 -51 0 -5 -42z"/>
</g>
</svg>
